<svg xmlns="http://www.w3.org/2000/svg" width="54.998" height="74.124" viewBox="0 0 54.998 74.124">
  <g id="handphone" transform="translate(-0.001 0)">
    <path id="Path_4351" data-name="Path 4351" d="M40.037,106.656,50.1,84.479l-6.857-3.11L32.474,105.1a1.882,1.882,0,0,0,1.714,2.661h4.138A1.882,1.882,0,0,0,40.037,106.656Z" transform="translate(-24.692 -33.636)" fill="#131316"/>
    <path id="Path_4352" data-name="Path 4352" d="M84.963,105.1,74.2,81.369l-6.857,3.11L77.4,106.656a1.882,1.882,0,0,0,1.714,1.105h4.134a1.882,1.882,0,0,0,1.714-2.661Z" transform="translate(-37.744 -33.636)" fill="#171719"/>
    <rect id="Rectangle_2718" data-name="Rectangle 2718" width="54.996" height="58.495" rx="5" transform="translate(0.003 0)" fill="#dedee0"/>
    <path id="Path_4353" data-name="Path 4353" d="M46.331,5.3H23.313a3.137,3.137,0,0,0-3.137,3.137V60.657a3.137,3.137,0,0,0,3.137,3.137H46.331Z" transform="translate(-20.173 -5.299)" fill="#c9c9d3"/>
    <path id="Path_4354" data-name="Path 4354" d="M97.469,78.6V54.037a3.334,3.334,0,0,0-1.324-.245H90.53a2.008,2.008,0,0,0-1.3.478l-9.2,7.847Z" transform="translate(-42.47 -23.363)" fill="#c19d06"/>
    <path id="Path_4355" data-name="Path 4355" d="M44.391,49.984H38.116a2.008,2.008,0,0,0-1.3.479l-15.7,13.352-.941.872V77.3A3.137,3.137,0,0,0,23.31,80.44H72.032A3.137,3.137,0,0,0,75.169,77.3v-1.8L45.691,50.463A2.008,2.008,0,0,0,44.391,49.984Z" transform="translate(-20.172 -21.945)" fill="#dbb100"/>
    <path id="Path_4356" data-name="Path 4356" d="M46.33,51l-.638-.542a2.008,2.008,0,0,0-1.3-.479H38.116a2.008,2.008,0,0,0-1.3.479l-15.7,13.352-.941.872V77.3A3.137,3.137,0,0,0,23.31,80.44H46.33Z" transform="translate(-20.172 -21.945)" fill="#c19d06"/>
    <path id="Path_4357" data-name="Path 4357" d="M39.02,58.875c4.99.139,5.891-3.4,9.564-3.4s4.481,3.778,9.633,3.4a19.448,19.448,0,0,0,2.2-.3l-9.547-8.118a2.008,2.008,0,0,0-1.3-.479H43.3a2.008,2.008,0,0,0-1.3.479L34.076,57.2a9.451,9.451,0,0,0,4.944,1.677Z" transform="translate(-25.352 -21.945)" fill="#c9c9d3"/>
    <path id="Path_4358" data-name="Path 4358" d="M98.215,59.578V53.9a2.008,2.008,0,0,0-.69-.125H91.25a2.008,2.008,0,0,0-1.3.479l-7.919,6.737a9.449,9.449,0,0,0,4.944,1.678c4.99.139,5.891-3.4,9.564-3.4a4.756,4.756,0,0,1,1.676.3Z" transform="translate(-43.216 -23.359)" fill="#c9c9d3"/>
    <path id="Path_4359" data-name="Path 4359" d="M96.922,8.437A3.137,3.137,0,0,0,93.784,5.3H83.9A10.934,10.934,0,1,0,96.922,22.716Z" transform="translate(-41.923 -5.299)" fill="#ff5722"/>
    <path id="Path_4360" data-name="Path 4360" d="M45.854,17.079a1.255,1.255,0,0,1-1.776.006l-.791-.791a2.281,2.281,0,0,0-3.169-.025l-.891.86h1.242a1.255,1.255,0,0,1,0,2.51h-4.11a1.255,1.255,0,0,1,0-2.51h1.186l-.791-.791a2.272,2.272,0,0,0-3.2,0l-.747.747A1.256,1.256,0,0,1,31.04,15.3l.747-.747a4.784,4.784,0,0,1,6.614-.119,4.809,4.809,0,0,1,6.664.082l.791.784a1.255,1.255,0,0,1,0,1.776Z" transform="translate(-24.082 -8.218)" fill="#131316"/>
    <path id="Path_4361" data-name="Path 4361" d="M61.072,34.3a1.255,1.255,0,0,1-1.776,0l-.791-.784a2.269,2.269,0,0,0-3.169-.025l-.891.853h1.242a1.255,1.255,0,0,1,0,2.51h-4.11a1.255,1.255,0,0,1,0-2.51h1.186l-.791-.791a2.272,2.272,0,0,0-3.2,0l-.747.747a1.256,1.256,0,1,1-1.776-1.776L47,31.775a4.778,4.778,0,0,1,6.614-.119,4.809,4.809,0,0,1,6.664.075l.784.791a1.255,1.255,0,0,1,.006,1.776Z" transform="translate(-29.751 -14.631)" fill="#171719"/>
    <path id="Path_4362" data-name="Path 4362" d="M51.509,51.006l-.638-.543a2.008,2.008,0,0,0-1.3-.479H43.3a2.008,2.008,0,0,0-1.3.479L34.076,57.2a9.451,9.451,0,0,0,4.944,1.677c4.99.139,5.891-3.4,9.564-3.4a5.237,5.237,0,0,1,2.925.93Z" transform="translate(-25.352 -21.945)" fill="#b7b7c4"/>
    <path id="Path_4363" data-name="Path 4363" d="M55.908,34.384a1.2,1.2,0,0,0-.219-.023H54.446l.891-.853a2.187,2.187,0,0,1,.57-.39V30.482a4.727,4.727,0,0,0-2.29,1.192A4.778,4.778,0,0,0,47,31.794l-.753.747a1.256,1.256,0,1,0,1.776,1.776l.747-.747a2.272,2.272,0,0,1,3.2,0l.791.791H51.579a1.255,1.255,0,0,0,0,2.51h4.11a1.255,1.255,0,0,0,.219-.022Z" transform="translate(-29.751 -14.651)" fill="#131316"/>
  </g>
</svg>
