<svg id="headphone" xmlns="http://www.w3.org/2000/svg" width="54.998" height="54.999" viewBox="0 0 54.998 54.999">
  <rect id="Rectangle_2710" data-name="Rectangle 2710" width="43.361" height="16.225" transform="translate(5.689 33.819)" fill="#ff5722"/>
  <rect id="Rectangle_2711" data-name="Rectangle 2711" width="51.163" height="4.955" rx="2.478" transform="translate(1.787 50.043)" fill="#171719"/>
  <rect id="Rectangle_2712" data-name="Rectangle 2712" width="22.363" height="16.225" transform="translate(5.689 33.819)" fill="#e53c15"/>
  <rect id="Rectangle_2713" data-name="Rectangle 2713" width="51.163" height="4.955" rx="2.478" transform="translate(1.787 28.635)" fill="#171719"/>
  <rect id="Rectangle_2714" data-name="Rectangle 2714" width="3.512" height="16.225" transform="translate(15.278 33.819)" fill="#c12506"/>
  <rect id="Rectangle_2715" data-name="Rectangle 2715" width="3.512" height="16.225" transform="translate(35.955 33.819)" fill="#dd2c00"/>
  <path id="Path_4320" data-name="Path 4320" d="M23.086,25.573,9.434,10.444a2.572,2.572,0,0,0-3.729-.1h0a2.573,2.573,0,0,0,.1,3.729L21.12,27.9a6.293,6.293,0,0,1,1.911,3.658,3.344,3.344,0,0,0,1.013,1.876,3.4,3.4,0,0,0,4.644-.048,3.36,3.36,0,0,0-1.674-5.7,7.116,7.116,0,0,1-3.928-2.121Z" transform="translate(-4.951 -8.135)" fill="#c19d06"/>
  <path id="Path_4321" data-name="Path 4321" d="M73.863,20.289,89.42,7.129a2.572,2.572,0,0,1,3.706.405h0a2.573,2.573,0,0,1-.595,3.682L75.5,22.86a6.3,6.3,0,0,0-2.384,3.367,3.345,3.345,0,0,1-1.256,1.723,3.4,3.4,0,0,1-4.6-.671,3.36,3.36,0,0,1,2.423-5.416A7.114,7.114,0,0,0,73.863,20.289Z" transform="translate(-38.654 -6.522)" fill="#dbb100"/>
  <path id="Path_4322" data-name="Path 4322" d="M56.516,31.994a.945.945,0,0,1-.453-.116l-4.711-2.56a.95.95,0,1,1,.908-1.668l4.71,2.561A.95.95,0,0,1,56.516,32Z" transform="translate(-29.628 -17.435)" fill="#e53c15"/>
  <path id="Path_4323" data-name="Path 4323" d="M68.7,25.109h-.063a.95.95,0,0,1-.886-1.01l.349-5.35a.95.95,0,1,1,1.9.123l-.349,5.351A.95.95,0,0,1,68.7,25.109Z" transform="translate(-38.667 -12.474)" fill="#ff5722"/>
  <path id="Path_4324" data-name="Path 4324" d="M34.979,66.15H11.191a2.478,2.478,0,0,0-2.477,2.478h0A2.477,2.477,0,0,0,11.191,71.1H34.979Z" transform="translate(-6.927 -37.515)" fill="#131316"/>
  <path id="Path_4325" data-name="Path 4325" d="M34.979,110.731H11.191a2.478,2.478,0,0,0,0,4.955H34.979Z" transform="translate(-6.927 -60.688)" fill="#131316"/>
</svg>
