<svg xmlns="http://www.w3.org/2000/svg" width="54.998" height="54.874" viewBox="0 0 54.998 54.874">
  <g id="backpack" transform="translate(0 0)">
    <path id="Path_4340" data-name="Path 4340" d="M81.776,82.881,79.654,85a3.93,3.93,0,0,1-5.365.18L49.479,63.5,60.271,52.706l21.687,24.81A3.93,3.93,0,0,1,81.776,82.881Z" transform="translate(-27.931 -31.281)" fill="#171719"/>
    <ellipse id="Ellipse_542" data-name="Ellipse 542" cx="15.208" cy="15.208" rx="15.208" ry="15.208" transform="translate(0.124 0.001)" fill="#dd2c00"/>
    <rect id="Rectangle_2716" data-name="Rectangle 2716" width="33.578" height="4.057" rx="2.028" transform="translate(2.026 25.646) rotate(-45)" fill="#ff5722"/>
    <rect id="Rectangle_2717" data-name="Rectangle 2717" width="19.473" height="5.68" rx="2.84" transform="translate(17.978 31.625) rotate(-45)" fill="#ff5722"/>
    <path id="Path_4341" data-name="Path 4341" d="M54.745,63.952,49.479,69.22l24.81,21.685a3.93,3.93,0,0,0,5.365-.18l.933-.933Z" transform="translate(-27.931 -37.003)" fill="#131316"/>
    <path id="Path_4342" data-name="Path 4342" d="M73.265,77.475a.977.977,0,0,1-.695-.288l-2.5-2.495a.982.982,0,1,1,1.389-1.39l2.5,2.5a.982.982,0,0,1-.695,1.677Z" transform="translate(-38.263 -41.613)" fill="#dedee0"/>
    <path id="Path_4343" data-name="Path 4343" d="M10.065,18.426a15.2,15.2,0,1,0,21.5,21.5Z" transform="translate(-5.611 -13.84)" fill="#c12506"/>
    <path id="Path_4344" data-name="Path 4344" d="M22.112,37.392l-10.7,10.7a1.474,1.474,0,0,0,0,2.084l.786.786a1.474,1.474,0,0,0,2.084,0l10.7-10.7Z" transform="translate(-8.342 -23.489)" fill="#e53c15"/>
    <path id="Path_4345" data-name="Path 4345" d="M49.6,59.715,43.886,65.43a1.474,1.474,0,0,0,0,2.084l1.932,1.932a1.474,1.474,0,0,0,2.084,0l5.715-5.715Z" transform="translate(-24.865 -34.847)" fill="#e53c15"/>
    <path id="Path_4346" data-name="Path 4346" d="M69.961,73.887a.982.982,0,0,0,.115,1.249l2.5,2.495a.978.978,0,0,0,1.248.115Z" transform="translate(-38.264 -42.057)" fill="#dedee0"/>
    <path id="Path_4347" data-name="Path 4347" d="M69.961,73.887a.982.982,0,0,0,.115,1.249l2.5,2.495a.978.978,0,0,0,1.248.115Z" transform="translate(-38.264 -42.057)" fill="#c9c9d3"/>
    <path id="Path_4348" data-name="Path 4348" d="M94.11,19.345a1.971,1.971,0,0,0-1.965-1.965H87.523a1.971,1.971,0,0,0-1.965,1.965v2.417a2.468,2.468,0,0,0-.807-.065,2.574,2.574,0,1,0,1.307,4.9,2.488,2.488,0,0,0,1.464-2.322V19.836a.491.491,0,0,1,.491-.491h3.64a.491.491,0,0,1,.491.491v1.93a2.241,2.241,0,0,0-.6-.079,2.567,2.567,0,1,0,.251,5.121,2.643,2.643,0,0,0,2.318-2.666Zm-9.151,5.511a.6.6,0,1,1,.6-.6A.6.6,0,0,1,84.959,24.856Zm6.582,0a.6.6,0,1,1,.6-.6.6.6,0,0,1-.6.6Z" transform="translate(-44.675 -13.308)" fill="#dbb100"/>
    <path id="Path_4349" data-name="Path 4349" d="M20.716,82.05H17.572a1.965,1.965,0,0,0-1.965,1.965v2.417a2.452,2.452,0,0,0-.6-.074,2.567,2.567,0,1,0,.257,5.12,2.646,2.646,0,0,0,2.312-2.67v-4.3a.491.491,0,0,1,.491-.491h2.6a1.02,1.02,0,0,0,1.022-.811.982.982,0,0,0-.968-1.154ZM15,89.526a.6.6,0,1,1,.428-.177A.6.6,0,0,1,15,89.526Z" transform="translate(-9.085 -46.211)" fill="#dbb100"/>
    <ellipse id="Ellipse_543" data-name="Ellipse 543" cx="1.631" cy="1.631" rx="1.631" ry="1.631" transform="translate(34.353 34.23)" fill="#dd2c00"/>
    <path id="Path_4350" data-name="Path 4350" d="M78.183,82.314,75.9,80.032a1.621,1.621,0,0,0,2.282,2.282Z" transform="translate(-41.186 -45.184)" fill="#c12506"/>
  </g>
</svg>
