<?xml version="1.0" encoding="UTF-8" standalone="no"?>
<svg
   width="62.145"
   height="62.145"
   viewBox="0 0 62.145 62.145"
   version="1.1"
   id="svg8"
   sodipodi:docname="final dance.svg"
   inkscape:version="1.1 (c68e22c387, 2021-05-23)"
   xmlns:inkscape="http://www.inkscape.org/namespaces/inkscape"
   xmlns:sodipodi="http://sodipodi.sourceforge.net/DTD/sodipodi-0.dtd"
   xmlns="http://www.w3.org/2000/svg"
   xmlns:svg="http://www.w3.org/2000/svg">
  <defs
     id="defs12" />
  <sodipodi:namedview
     id="namedview10"
     pagecolor="#505050"
     bordercolor="#ffffff"
     borderopacity="1"
     inkscape:pageshadow="0"
     inkscape:pageopacity="0"
     inkscape:pagecheckerboard="1"
     showgrid="false"
     inkscape:zoom="9.5805601"
     inkscape:cx="37.210768"
     inkscape:cy="25.102917"
     inkscape:window-width="1920"
     inkscape:window-height="1027"
     inkscape:window-x="-8"
     inkscape:window-y="-8"
     inkscape:window-maximized="1"
     inkscape:current-layer="Group_1696" />
  <g
     id="Group_1705"
     data-name="Group 1705"
     transform="translate(0)">
    <g
       id="Group_1696"
       data-name="Group 1696"
       transform="translate(0 0)">
      <path
         id="Path_3054"
         data-name="Path 3054"
         d="M-3102.393-1312.567a28.288,28.288,0,0,1-28.29,28.291,28.152,28.152,0,0,1-10.87-2.165,26.518,26.518,0,0,1-7.855-18.869,26.6,26.6,0,0,1,26.6-26.6,26.46,26.46,0,0,1,17.277,6.388A28.17,28.17,0,0,1-3102.393-1312.567Z"
         transform="translate(3153.882 1336.384)"
         fill="#eee" />
      <path
         id="Path_3055"
         data-name="Path 3055"
         d="M-3113.844-1335.425a30.819,30.819,0,0,0-9.493-1.485,31.108,31.108,0,0,0-31.073,31.073,31.014,31.014,0,0,0,2.354,11.873,31.134,31.134,0,0,0,28.719,19.2,31.1,31.1,0,0,0,31.073-31.073A31.12,31.12,0,0,0-3113.844-1335.425Zm-9.493,56.187a26.507,26.507,0,0,1-18.743-7.731,26.517,26.517,0,0,1-7.856-18.869,26.6,26.6,0,0,1,26.6-26.6,26.461,26.461,0,0,1,17.276,6.388,26.48,26.48,0,0,1,9.322,20.211A26.6,26.6,0,0,1-3123.336-1279.237Z"
         transform="translate(3154.409 1336.91)"
         fill="#0f0f0f" />
      <path
         id="Path_3056"
         data-name="Path 3056"
         d="M-3095.286-1304.558a26.6,26.6,0,0,1-26.6,26.6,26.51,26.51,0,0,1-18.744-7.73,28.159,28.159,0,0,0,10.871,2.165,28.288,28.288,0,0,0,28.29-28.29,28.157,28.157,0,0,0-3.142-12.955A26.478,26.478,0,0,1-3095.286-1304.558Z"
         transform="translate(3152.958 1335.631)"
         fill="#d4cecb" />
      <g
         id="g207"
         transform="translate(-0.73064622)">
        <g
           id="g666">
          <path
             d="m 54.092827,18.874056 c -0.187646,-0.126985 -0.426286,-0.152649 -0.636929,-0.06833 l -3.289967,1.316188 h -2.599378 c -0.293967,-3.2e-4 -0.554938,0.187978 -0.647594,0.466948 l -0.587268,1.76147 -1.644817,0.731252 -10.034217,4.461504 C 33.285476,26.752176 31.649991,26.56753 30.140825,27.033811 l -0.321631,-0.028 v -1.001555 l 2.353072,-1.172537 c 0.06533,-0.03333 0.125319,-0.07666 0.177313,-0.128319 l 7.215865,-7.219197 0.136317,-0.136317 3.880569,-0.647262 c 0.185979,-0.03099 0.350627,-0.137318 0.455283,-0.2943 l 1.365181,-2.047773 c 0.140318,-0.209309 0.153983,-0.478613 0.03566,-0.701255 -0.118653,-0.222309 -0.350294,-0.361293 -0.602266,-0.361293 h -5.423731 c -0.634262,-6.4e-4 -1.245528,0.238307 -1.711142,0.668926 l -0.580269,0.535606 -7.568492,6.986557 h -0.03433 c 0.135319,-0.18298 0.249639,-0.380291 0.341295,-0.588602 l 0.524943,-1.240195 0.272969,-0.644262 c 0.221308,-0.521608 0.292301,-1.094878 0.204977,-1.654815 0.822242,0.136318 1.644817,-0.239307 2.080435,-0.949895 0.435619,-0.710587 0.396956,-1.614487 -0.09766,-2.285412 -0.494612,-0.670592 -1.346183,-0.974892 -2.154093,-0.769248 -0.807577,0.205977 -1.409843,0.880569 -1.522831,1.706477 -0.04733,-0.02266 -0.08832,-0.05399 -0.136651,-0.07366 -0.168648,-0.06999 -0.343629,-0.124319 -0.522275,-0.162649 -0.04099,-0.0087 -0.08099,-0.019 -0.12132,-0.02734 -0.157982,-0.02833 -0.317631,-0.04433 -0.477947,-0.04766 -0.05933,0 -0.117987,0 -0.176647,0.0034 -0.127986,0.004 -0.255305,0.01634 -0.381624,0.037 -0.07599,0.01234 -0.14965,0.02733 -0.223308,0.04499 -0.111988,0.02666 -0.222642,0.05933 -0.330964,0.09832 -0.06499,0.02299 -0.128985,0.04633 -0.191979,0.07366 -0.126652,0.05466 -0.249971,0.117986 -0.368625,0.188979 l -0.008,0.0077 c -0.545936,0.33064 -0.974221,0.824585 -1.224528,1.411519 l -0.798577,1.885457 c -0.015,0.03466 -0.02066,0.07233 -0.03366,0.106988 L 21.380467,14.420887 C 20.913186,13.716632 20.12394,13.294012 19.278701,13.296012 h -5.159093 c -0.219309,0 -0.425286,0.105321 -0.553605,0.283302 -0.128319,0.17798 -0.163315,0.406621 -0.09399,0.614931 l 0.682591,2.047772 c 0.07999,0.23964 0.285634,0.41562 0.53494,0.457283 l 3.767914,0.62793 3.785245,6.935228 -0.111987,0.27997 c -0.730919,1.858125 0.01033,3.971224 1.741806,4.96578 l 1.865459,3.109653 0.781579,12.120986 0.572936,8.873677 c 0.02299,0.358295 0.319632,0.637597 0.678925,0.638932 h 2.047772 c 0.324631,0 0.604266,-0.228311 0.668926,-0.546276 l 0.656927,-3.2803 1.289856,-1.935118 c 0.152983,-0.229641 0.152983,-0.528608 0,-0.757915 l -1.238195,-1.857127 0.06833,-1.13654 0.580269,-9.863569 15.118651,-8.344739 4.320853,-2.384068 2.730362,-1.365181 c 0.231309,-0.115654 0.377626,-0.352294 0.377292,-0.610931 v -2.730364 c 0,-0.226641 -0.111987,-0.438284 -0.299634,-0.56527 z M 38.624881,14.968158 c 0.213976,-0.198311 0.495612,-0.307966 0.78758,-0.306966 h 4.148205 l -0.493612,0.740584 -3.804244,0.633929 c -0.01499,0.002 -0.02966,0.005 -0.04433,0.009 l -0.718587,-0.95556 z m -10.963114,1.164537 c 0.09532,-0.01266 0.191646,-0.01733 0.287968,-0.01366 0.03733,0 0.07499,0.0063 0.113322,0.01166 0.146983,0.018 0.2913,0.05533 0.428618,0.111321 h 0.0046 c 0.416954,0.17598 0.745917,0.511943 0.913565,0.932229 0.03899,0.09832 0.06933,0.199978 0.08999,0.303967 0.0066,0.034 0.008,0.06833 0.013,0.103655 0.01033,0.06799 0.01666,0.136318 0.01899,0.204644 0,0.04033 0,0.08066 -0.0053,0.120986 -0.0034,0.06433 -0.01033,0.128319 -0.02066,0.191646 -0.0074,0.04099 -0.017,0.08199 -0.02733,0.122986 -0.0074,0.02933 -0.01833,0.05799 -0.02733,0.08666 l -0.225641,-0.166648 c -0.703922,-0.532941 -1.284858,-1.210866 -1.703144,-1.988112 0.04433,-0.0097 0.09199,-0.01666 0.139317,-0.02133 z m 3.522608,-1.471503 c 0.376958,0 0.682591,0.305632 0.682591,0.682591 0,0.376958 -0.305633,0.68259 -0.682591,0.68259 -0.376957,0 -0.68259,-0.305632 -0.68259,-0.68259 0,-0.376959 0.305633,-0.682591 0.68259,-0.682591 z m -5.724695,4.368514 0.799244,-1.885458 c 0.03933,-0.07666 0.08499,-0.149982 0.136651,-0.218975 0.503944,0.8999 1.188534,1.686147 2.010777,2.309077 l 0.512609,0.38429 -0.317298,0.750917 c -0.369959,0.865903 -1.369848,1.270525 -2.237751,0.905232 -0.867236,-0.368292 -1.271858,-1.369513 -0.904232,-2.237085 z M 15.066503,14.661192 h 4.212198 c 0.195312,-3.2e-4 0.38729,0.04899 0.558272,0.143317 l -1.173204,1.173203 -3.344627,-0.556938 z m 14.867345,35.11576 c -0.04933,0.07433 -0.08366,0.157648 -0.100989,0.244972 l -0.573269,2.864348 h -0.847906 l -0.484612,-7.508498 h 1.931117 l -0.03899,0.642262 c -0.0087,0.148317 0.03099,0.2953 0.113321,0.418953 l 1.115543,1.669147 z m 0.920898,-15.917896 c -0.204977,0.112988 -0.337629,0.323297 -0.351628,0.556938 l -0.56427,9.596599 h -2.0991 L 27.088832,32.364888 c -0.007,-0.108988 -0.03999,-0.214642 -0.09599,-0.307964 L 24.94507,28.64397 C 24.878077,28.532648 24.781089,28.442658 24.665101,28.384664 23.445237,27.7664 22.896298,26.321561 23.397576,25.049369 l 0.231307,-0.578935 c 0.07532,-0.188646 0.06266,-0.401622 -0.03466,-0.579936 l -3.852574,-7.060214 0.96156,-0.960893 4.452504,6.678924 c 0.126653,0.189978 0.339963,0.303965 0.567938,0.303965 h 4.095543 c 0.171648,0 0.336963,-0.06466 0.462948,-0.180979 l 7.208865,-6.654593 0.69059,0.920897 -6.718585,6.718586 -2.631375,1.31552 c -0.23164,0.115654 -0.377624,0.351961 -0.377624,0.610933 v 2.047772 c -0.0014,0.354627 0.269303,0.65126 0.622597,0.682591 l 1.07788,0.09532 c 0.09332,0.0083 0.187312,-0.0027 0.276303,-0.032 1.272858,-0.428284 2.672369,-0.240972 3.787912,0.507277 0.194644,0.129653 0.441951,0.150983 0.655927,0.05599 l 9.870236,-4.387177 0.154982,0.204976 0.717254,0.955561 z m 22.172533,-12.11132 -2.377402,1.189868 -3.822575,2.110432 -0.799911,-1.066881 1.136541,-0.504944 c 0.175646,-0.07832 0.310298,-0.226975 0.370625,-0.409621 l 0.524275,-1.57949 h 2.238084 c 0.08699,0 0.173314,-0.01666 0.253972,-0.04866 l 2.476391,-0.990891 z m 0,0"
             id="path121"
             style="stroke-width:0.0853232" />
        </g>
      </g>
    </g>
  </g>
</svg>
