<?xml version="1.0" encoding="UTF-8" standalone="no"?>
<svg
   width="62.145"
   height="62.145"
   viewBox="0 0 62.145 62.145"
   version="1.1"
   id="svg8"
   sodipodi:docname="final music reverted.svg"
   inkscape:version="1.1 (c68e22c387, 2021-05-23)"
   xmlns:inkscape="http://www.inkscape.org/namespaces/inkscape"
   xmlns:sodipodi="http://sodipodi.sourceforge.net/DTD/sodipodi-0.dtd"
   xmlns="http://www.w3.org/2000/svg"
   xmlns:svg="http://www.w3.org/2000/svg">
  <defs
     id="defs12" />
  <sodipodi:namedview
     id="namedview10"
     pagecolor="#505050"
     bordercolor="#ffffff"
     borderopacity="1"
     inkscape:pageshadow="0"
     inkscape:pageopacity="0"
     inkscape:pagecheckerboard="1"
     showgrid="false"
     inkscape:zoom="13.548958"
     inkscape:cx="45.354041"
     inkscape:cy="23.35973"
     inkscape:window-width="1920"
     inkscape:window-height="1027"
     inkscape:window-x="-8"
     inkscape:window-y="-8"
     inkscape:window-maximized="1"
     inkscape:current-layer="Group_1696" />
  <g
     id="Group_1705"
     data-name="Group 1705"
     transform="translate(0)">
    <g
       id="Group_1696"
       data-name="Group 1696"
       transform="translate(0 0)">
      <path
         id="Path_3054"
         data-name="Path 3054"
         d="M-3102.393-1312.567a28.288,28.288,0,0,1-28.29,28.291,28.152,28.152,0,0,1-10.87-2.165,26.518,26.518,0,0,1-7.855-18.869,26.6,26.6,0,0,1,26.6-26.6,26.46,26.46,0,0,1,17.277,6.388A28.17,28.17,0,0,1-3102.393-1312.567Z"
         transform="translate(3153.882 1336.384)"
         fill="#eee"
         style="fill-opacity:1;fill:#151515" />
      <path
         id="Path_3055"
         data-name="Path 3055"
         d="M-3113.844-1335.425a30.819,30.819,0,0,0-9.493-1.485,31.108,31.108,0,0,0-31.073,31.073,31.014,31.014,0,0,0,2.354,11.873,31.134,31.134,0,0,0,28.719,19.2,31.1,31.1,0,0,0,31.073-31.073A31.12,31.12,0,0,0-3113.844-1335.425Zm-9.493,56.187a26.507,26.507,0,0,1-18.743-7.731,26.517,26.517,0,0,1-7.856-18.869,26.6,26.6,0,0,1,26.6-26.6,26.461,26.461,0,0,1,17.276,6.388,26.48,26.48,0,0,1,9.322,20.211A26.6,26.6,0,0,1-3123.336-1279.237Z"
         transform="translate(3154.409 1336.91)"
         fill="#0f0f0f" />
      <path
         id="Path_3056"
         data-name="Path 3056"
         d="M-3095.286-1304.558a26.6,26.6,0,0,1-26.6,26.6,26.51,26.51,0,0,1-18.744-7.73,28.159,28.159,0,0,0,10.871,2.165,28.288,28.288,0,0,0,28.29-28.29,28.157,28.157,0,0,0-3.142-12.955A26.478,26.478,0,0,1-3095.286-1304.558Z"
         transform="translate(3152.958 1335.631)"
         fill="#d4cecb"
         style="fill:#151515;fill-opacity:1" />
      <g
         id="g2799"
         transform="matrix(0.07090542,0,0,0.06192357,12.347212,14.287746)"
         style="fill:#eeeeee;fill-opacity:1">
        <path
           d="M 504.5,208.654 H 497 v -62.447 c 0,-4.142 -3.358,-7.5 -7.5,-7.5 H 460.572 V 55.526 l 22.665,-6.87 c 6.135,-1.86 11.178,-5.997 14.202,-11.65 3.023,-5.653 3.664,-12.145 1.805,-18.28 C 497.385,12.591 493.247,7.547 487.593,4.524 481.938,1.5 475.447,0.86 469.314,2.72 L 320.606,47.793 c -3.964,1.201 -6.204,5.389 -5.003,9.353 1.202,3.964 5.391,6.202 9.353,5.002 l 148.71,-45.074 c 2.299,-0.698 4.733,-0.457 6.853,0.677 2.121,1.134 3.672,3.025 4.369,5.326 0.698,2.301 0.457,4.735 -0.676,6.854 -1.134,2.12 -3.025,3.671 -5.326,4.369 l -28.003,8.488 c -0.024,0.007 -0.048,0.014 -0.073,0.022 0,0 -315.79,95.75 -316.105,95.896 H 72.369 L 296.23,70.854 c 3.964,-1.201 6.204,-5.389 5.002,-9.353 -1.202,-3.965 -5.392,-6.203 -9.353,-5.002 L 20.225,138.838 c -3.631,1.101 -5.807,4.707 -5.225,8.352 v 61.465 H 7.5 c -4.142,0 -7.5,3.358 -7.5,7.5 v 90.414 c 0,4.142 3.358,7.5 7.5,7.5 h 22 v 184.625 c 0,6.414 5.218,11.631 11.631,11.631 H 60.54 c 5.787,0 10.623,-4.152 11.498,-9.873 l 28.506,-186.383 h 79.659 c 4.142,0 7.5,-3.358 7.5,-7.5 0,-4.142 -3.358,-7.5 -7.5,-7.5 H 15 v -75.414 h 21.269 v 16.966 33.605 c 0,4.142 3.358,7.5 7.5,7.5 h 424.462 c 4.142,0 7.5,-3.358 7.5,-7.5 V 240.62 223.654 H 497 v 75.414 H 210.203 c -4.142,0 -7.5,3.358 -7.5,7.5 0,4.142 3.358,7.5 7.5,7.5 h 201.253 l 28.506,186.383 c 0.875,5.721 5.71,9.873 11.498,9.873 h 19.409 c 6.414,0 11.631,-5.218 11.631,-11.631 V 314.068 h 22 c 4.142,0 7.5,-3.358 7.5,-7.5 v -90.414 c 0,-4.142 -3.358,-7.5 -7.5,-7.5 z M 57.647,495.324 H 44.5 v -181.15 h 40.854 z m 409.853,0 H 454.352 L 426.646,314.174 H 467.5 Z M 445.572,60.072 v 78.634 H 186.135 Z M 51.269,248.12 h 15.319 v 18.605 H 51.269 Z m 30.319,0 h 15.319 v 18.605 H 81.588 Z m 30.319,0 h 15.318 v 18.605 h -15.318 z m 30.318,0 h 15.319 v 18.605 h -15.319 z m 30.319,0 h 15.319 v 18.605 h -15.319 z m 30.319,0 h 15.318 v 18.605 h -15.318 z m 30.318,0 H 248.5 v 18.605 h -15.319 z m 30.319,0 h 15.319 v 18.605 H 263.5 Z m 30.319,0 h 15.318 v 18.605 h -15.318 z m 30.318,0 h 15.319 v 18.605 h -15.319 z m 30.319,0 h 15.319 v 18.605 h -15.319 z m 30.319,0 h 15.318 v 18.605 h -15.318 z m 30.318,0 h 15.319 v 18.605 h -15.319 z m 45.638,18.605 H 445.412 V 248.12 h 15.319 z m 7.5,-58.071 c -4.142,0 -7.5,3.358 -7.5,7.5 V 233.12 H 51.269 v -16.966 c 0,-4.142 -3.358,-7.5 -7.5,-7.5 H 30 v -54.947 h 452 v 54.947 z"
           id="path2793"
           style="fill:#eeeeee;fill-opacity:1" />
        <path
           d="m 341.955,173.6 h -171.91 c -4.142,0 -7.5,3.358 -7.5,7.5 v 25.054 c 0,4.142 3.358,7.5 7.5,7.5 h 171.909 c 4.142,0 7.5,-3.358 7.5,-7.5 V 181.1 c 10e-4,-4.142 -3.357,-7.5 -7.499,-7.5 z m -7.5,25.054 H 177.545 V 188.6 h 156.909 v 10.054 z"
           id="path2795"
           style="fill:#eeeeee;fill-opacity:1" />
        <path
           d="M 340.485,352.43 H 182.424 c -15.949,0 -28.924,12.975 -28.924,28.924 v 16.365 c 0,14.74 11.086,26.932 25.356,28.696 v 74.072 c 0,5.515 4.751,9.836 10.816,9.836 h 15.579 c 5.237,0 9.599,-3.245 10.607,-7.891 l 16.458,-75.789 h 61.365 l 16.457,75.788 c 1.009,4.646 5.371,7.892 10.608,7.892 h 15.579 c 6.065,0 10.816,-4.32 10.816,-9.836 V 425.86 c 12.748,-3.016 22.266,-14.485 22.266,-28.142 V 381.353 C 369.409,365.406 356.434,352.43 340.485,352.43 Z M 202.054,495.324 h -8.197 v -68.68 h 23.111 z m 121.892,0 -14.914,-68.68 h 23.111 v 68.68 z m 30.463,-97.604 c 0,7.678 -6.247,13.924 -13.924,13.924 H 182.424 c -7.678,0 -13.924,-6.246 -13.924,-13.924 v -16.365 c 0,-7.678 6.247,-13.924 13.924,-13.924 h 158.061 c 7.678,0 13.924,6.246 13.924,13.924 z"
           id="path2797"
           style="fill:#eeeeee;fill-opacity:1" />
      </g>
    </g>
  </g>
</svg>
