<?xml version="1.0" encoding="UTF-8" standalone="no"?>
<svg
   width="62.145"
   height="62.145"
   viewBox="0 0 62.145 62.145"
   version="1.1"
   id="svg8"
   sodipodi:docname="final paint.svg"
   inkscape:version="1.1 (c68e22c387, 2021-05-23)"
   xmlns:inkscape="http://www.inkscape.org/namespaces/inkscape"
   xmlns:sodipodi="http://sodipodi.sourceforge.net/DTD/sodipodi-0.dtd"
   xmlns="http://www.w3.org/2000/svg"
   xmlns:svg="http://www.w3.org/2000/svg">
  <defs
     id="defs12" />
  <sodipodi:namedview
     id="namedview10"
     pagecolor="#505050"
     bordercolor="#ffffff"
     borderopacity="1"
     inkscape:pageshadow="0"
     inkscape:pageopacity="0"
     inkscape:pagecheckerboard="1"
     showgrid="false"
     inkscape:zoom="13.178856"
     inkscape:cx="31.0725"
     inkscape:cy="31.0725"
     inkscape:window-width="1920"
     inkscape:window-height="1027"
     inkscape:window-x="-8"
     inkscape:window-y="-8"
     inkscape:window-maximized="1"
     inkscape:current-layer="Group_1696" />
  <g
     id="Group_1705"
     data-name="Group 1705"
     transform="translate(0)">
    <g
       id="Group_1696"
       data-name="Group 1696"
       transform="translate(0 0)">
      <path
         id="Path_3054"
         data-name="Path 3054"
         d="M 51.485,23.818 A 28.288,28.288 0 0 1 23.195,52.109 28.152,28.152 0 0 1 12.325,49.944 26.518,26.518 0 0 1 4.47,31.075 a 26.6,26.6 0 0 1 26.6,-26.6 26.46,26.46 0 0 1 17.277,6.388 28.17,28.17 0 0 1 3.138,12.955 z"
         fill="#eeeeee" />
      <path
         id="Path_3055"
         data-name="Path 3055"
         d="M-3113.844-1335.425a30.819,30.819,0,0,0-9.493-1.485,31.108,31.108,0,0,0-31.073,31.073,31.014,31.014,0,0,0,2.354,11.873,31.134,31.134,0,0,0,28.719,19.2,31.1,31.1,0,0,0,31.073-31.073A31.12,31.12,0,0,0-3113.844-1335.425Zm-9.493,56.187a26.507,26.507,0,0,1-18.743-7.731,26.517,26.517,0,0,1-7.856-18.869,26.6,26.6,0,0,1,26.6-26.6,26.461,26.461,0,0,1,17.276,6.388,26.48,26.48,0,0,1,9.322,20.211A26.6,26.6,0,0,1-3123.336-1279.237Z"
         transform="translate(3154.409 1336.91)"
         fill="#0f0f0f" />
      <path
         id="Path_3056"
         data-name="Path 3056"
         d="M-3095.286-1304.558a26.6,26.6,0,0,1-26.6,26.6,26.51,26.51,0,0,1-18.744-7.73,28.159,28.159,0,0,0,10.871,2.165,28.288,28.288,0,0,0,28.29-28.29,28.157,28.157,0,0,0-3.142-12.955A26.478,26.478,0,0,1-3095.286-1304.558Z"
         transform="translate(3152.958 1335.631)"
         fill="#d4cecb" />
      <g
         id="g14"
         transform="matrix(0.07508381,0,0,0.0750838,10.005483,10.006176)">
        <path
           d="m 166.911,248.208 c 22.143,0 40.157,-18.015 40.157,-40.158 0,-22.143 -18.015,-40.158 -40.157,-40.158 -22.144,0 -40.158,18.015 -40.158,40.158 0,22.143 18.014,40.158 40.158,40.158 z m 0,-65.316 c 13.872,0 25.157,11.286 25.157,25.158 0,13.872 -11.285,25.158 -25.157,25.158 -13.872,0 -25.158,-11.286 -25.158,-25.158 0,-13.872 11.286,-25.158 25.158,-25.158 z"
           id="path2" />
        <path
           d="m 255.327,206.177 c 21.604,0 39.182,-17.577 39.182,-39.182 0,-21.605 -17.577,-39.182 -39.182,-39.182 -21.605,0 -39.183,17.577 -39.183,39.182 0,21.605 17.578,39.182 39.183,39.182 z m 0,-63.364 c 13.334,0 24.182,10.848 24.182,24.182 0,13.334 -10.848,24.182 -24.182,24.182 -13.334,0 -24.183,-10.848 -24.183,-24.182 0,-13.334 10.849,-24.182 24.183,-24.182 z"
           id="path4" />
        <path
           d="m 183.032,438.48 c 21.604,0 39.182,-17.577 39.182,-39.182 0,-21.605 -17.577,-39.182 -39.182,-39.182 -21.605,0 -39.183,17.577 -39.183,39.182 0,21.605 17.578,39.182 39.183,39.182 z m 0,-63.363 c 13.334,0 24.182,10.848 24.182,24.182 0,13.334 -10.848,24.182 -24.182,24.182 -13.334,0 -24.183,-10.848 -24.183,-24.182 0,-13.334 10.849,-24.182 24.183,-24.182 z"
           id="path6" />
        <path
           d="m 275.301,468.088 c 21.604,0 39.182,-17.577 39.182,-39.182 0,-21.605 -17.577,-39.182 -39.182,-39.182 -21.605,0 -39.183,17.577 -39.183,39.182 0,21.605 17.577,39.182 39.183,39.182 z m 0,-63.364 c 13.334,0 24.182,10.848 24.182,24.182 0,13.334 -10.848,24.182 -24.182,24.182 -13.334,0 -24.183,-10.848 -24.183,-24.182 0,-13.334 10.849,-24.182 24.183,-24.182 z"
           id="path8" />
        <path
           d="m 84.953,306.925 c 0,25.213 20.512,45.725 45.725,45.725 25.213,0 45.725,-20.512 45.725,-45.725 0,-25.213 -20.512,-45.725 -45.725,-45.725 -25.213,0 -45.725,20.512 -45.725,45.725 z M 130.678,276.2 c 16.941,0 30.725,13.783 30.725,30.725 0,16.942 -13.783,30.725 -30.725,30.725 -16.942,0 -30.725,-13.783 -30.725,-30.725 0,-16.942 13.783,-30.725 30.725,-30.725 z"
           id="path10" />
        <path
           d="m 46.142,299.061 c 0,113.139 97.467,199.138 211.203,206.066 0.155,0.009 0.31,0.014 0.463,0.014 3.934,0 7.237,-3.065 7.479,-7.044 0.252,-4.134 -2.896,-7.69 -7.03,-7.942 C 147.725,483.422 61.142,399.484 61.142,299.061 c 0,-113.779 108.333,-201.572 232.132,-190.358 5.632,5.869 12.562,10.573 19.814,14.016 -0.595,2.741 -0.491,5.665 0.229,8.308 l 14.844,54.597 c -3.456,4.039 -4.657,9.538 -3.278,14.601 l 3.533,12.998 c 2.149,7.917 10.06,12.981 18.146,11.579 l 7.006,30.339 c -25.334,11.541 -39.187,26.996 -39.187,43.921 0,16.985 14.158,32.697 39.866,44.239 9.142,4.104 17.053,9.729 23.542,16.732 8.25,36.216 10.787,47.707 16.834,65.913 -5.598,24.418 -22.336,43.136 -46.187,51.535 -18.198,6.408 -37.138,10.513 -56.293,12.201 -4.126,0.364 -7.177,4.003 -6.813,8.129 0.363,4.127 4.016,7.172 8.129,6.813 20.404,-1.798 40.578,-6.17 59.959,-12.995 22.063,-7.769 39.483,-23.509 49.307,-43.805 10.03,24.608 19.172,39.815 27.671,54.636 4.296,7.495 13.12,11.147 21.459,8.88 8.337,-2.267 14.097,-9.883 14.009,-18.523 -0.258,-25.124 0.404,-62.891 -17.248,-119.162 -1.24,-3.952 -5.447,-6.151 -9.401,-4.911 -3.952,1.24 -6.15,5.449 -4.911,9.401 16.57,52.816 16.284,87.857 16.561,114.826 0.02,1.816 -1.191,3.417 -2.944,3.894 -1.75,0.477 -3.608,-0.291 -4.512,-1.867 -31.556,-55.031 -35.532,-71.354 -51.44,-140.232 0,0 -30.904,-133.833 -30.904,-133.834 l 22.039,-5.992 11.17,35.604 v 10e-4 l 29.55,94.192 c 1.24,3.952 5.446,6.151 9.401,4.911 3.952,-1.24 6.151,-5.449 4.911,-9.401 l -27.351,-87.183 c 41.323,-16.743 52.882,-72.241 17.505,-103.134 -14.497,-12.659 -30.748,-23.457 -48.312,-32.184 l -1.227,-4.512 c -0.749,-2.758 -2.134,-5.231 -4.019,-7.272 7.571,-11.179 15.125,-28.469 9.624,-48.703 -5.281,-19.421 -18.264,-26.914 -32.008,-34.846 -8.336,-4.811 -16.956,-9.786 -25.272,-18.063 -8.081,-8.039 -21.429,-4.428 -24.33,6.614 -2.98,11.349 -7.896,20.004 -12.648,28.374 -7.923,13.953 -17.572,30.191 -7.352,53.648 C 155.432,87.505 46.142,179.848 46.142,299.061 Z m 326.105,36.976 c -3.739,-2.397 -7.688,-4.549 -11.856,-6.42 -19.708,-8.849 -31.011,-19.986 -31.011,-30.556 0,-10.062 9.958,-20.399 27.638,-28.975 z M 418.422,161.23 c 26.551,23.185 17.988,64.539 -12.139,77.489 -7.747,-24.692 -5.646,-17.997 -8.717,-27.786 7.845,-3.003 11.893,-11.41 9.784,-19.172 l -3.533,-12.998 c -1.385,-5.089 -5.228,-9.21 -10.221,-10.931 l -8.212,-30.203 c 11.824,6.837 22.889,14.738 33.038,23.601 z m -30.315,20.761 0.003,-0.001 c 0.482,-0.13 1.076,0.134 1.231,0.708 l 3.533,12.997 c 0.146,0.536 -0.172,1.09 -0.707,1.235 -10.036,2.729 -38.893,10.574 -48.043,13.062 -0.524,0.146 -1.086,-0.162 -1.235,-0.707 l -3.533,-12.998 c -0.155,-0.573 0.238,-1.108 0.707,-1.235 z m -9.715,-12.903 -36.485,9.919 -14.115,-51.917 c -0.365,-1.335 0.472,-2.726 1.762,-3.078 l 31.646,-8.604 c 1.229,-0.337 2.689,0.334 3.077,1.762 4.642,17.075 1.386,5.099 14.115,51.918 z M 303.142,46.747 c 4.882,-8.596 10.4,-18.315 13.913,-31.21 9.524,9.325 19.222,14.921 27.796,19.87 12.408,7.161 21.373,12.334 25.031,25.79 4.471,16.442 -3.226,30.778 -9.602,39.195 -0.966,0.087 -2.097,0.293 -3.017,0.543 l -31.646,8.604 c -0.965,0.262 -2.071,0.679 -2.873,1.058 -13.267,-5.445 -24.335,-14.98 -28.129,-28.936 -3.658,-13.456 1.453,-22.457 8.527,-34.914 z"
           id="path12" />
      </g>
    </g>
  </g>
</svg>
