<?xml version="1.0" encoding="UTF-8" standalone="no"?>
<svg
   width="62.145"
   height="62.145"
   viewBox="0 0 62.145 62.145"
   version="1.1"
   id="svg8"
   sodipodi:docname="final photography reverted.svg"
   inkscape:version="1.1 (c68e22c387, 2021-05-23)"
   xmlns:inkscape="http://www.inkscape.org/namespaces/inkscape"
   xmlns:sodipodi="http://sodipodi.sourceforge.net/DTD/sodipodi-0.dtd"
   xmlns="http://www.w3.org/2000/svg"
   xmlns:svg="http://www.w3.org/2000/svg">
  <defs
     id="defs12" />
  <sodipodi:namedview
     id="namedview10"
     pagecolor="#505050"
     bordercolor="#ffffff"
     borderopacity="1"
     inkscape:pageshadow="0"
     inkscape:pageopacity="0"
     inkscape:pagecheckerboard="1"
     showgrid="false"
     inkscape:zoom="6.774479"
     inkscape:cx="1.4023219"
     inkscape:cy="10.849543"
     inkscape:window-width="1920"
     inkscape:window-height="1027"
     inkscape:window-x="-8"
     inkscape:window-y="-8"
     inkscape:window-maximized="1"
     inkscape:current-layer="Group_1696" />
  <g
     id="Group_1705"
     data-name="Group 1705"
     transform="translate(0)">
    <g
       id="Group_1696"
       data-name="Group 1696"
       transform="translate(0 0)">
      <path
         id="Path_3054"
         data-name="Path 3054"
         d="M-3102.393-1312.567a28.288,28.288,0,0,1-28.29,28.291,28.152,28.152,0,0,1-10.87-2.165,26.518,26.518,0,0,1-7.855-18.869,26.6,26.6,0,0,1,26.6-26.6,26.46,26.46,0,0,1,17.277,6.388A28.17,28.17,0,0,1-3102.393-1312.567Z"
         transform="translate(3153.882 1336.384)"
         fill="#eee"
         style="fill-opacity:1;fill:#151515" />
      <path
         id="Path_3055"
         data-name="Path 3055"
         d="M-3113.844-1335.425a30.819,30.819,0,0,0-9.493-1.485,31.108,31.108,0,0,0-31.073,31.073,31.014,31.014,0,0,0,2.354,11.873,31.134,31.134,0,0,0,28.719,19.2,31.1,31.1,0,0,0,31.073-31.073A31.12,31.12,0,0,0-3113.844-1335.425Zm-9.493,56.187a26.507,26.507,0,0,1-18.743-7.731,26.517,26.517,0,0,1-7.856-18.869,26.6,26.6,0,0,1,26.6-26.6,26.461,26.461,0,0,1,17.276,6.388,26.48,26.48,0,0,1,9.322,20.211A26.6,26.6,0,0,1-3123.336-1279.237Z"
         transform="translate(3154.409 1336.91)"
         fill="#0f0f0f" />
      <path
         id="Path_3056"
         data-name="Path 3056"
         d="M-3095.286-1304.558a26.6,26.6,0,0,1-26.6,26.6,26.51,26.51,0,0,1-18.744-7.73,28.159,28.159,0,0,0,10.871,2.165,28.288,28.288,0,0,0,28.29-28.29,28.157,28.157,0,0,0-3.142-12.955A26.478,26.478,0,0,1-3095.286-1304.558Z"
         transform="translate(3152.958 1335.631)"
         fill="#d4cecb"
         style="fill:#151515;fill-opacity:1;opacity:1;stroke:none;stroke-opacity:1;stroke-width:1;stroke-miterlimit:4;stroke-dasharray:0, 11;stroke-dashoffset:0" />
      <g
         id="g16"
         transform="matrix(0.07508469,0,0,0.07508469,12.268,12.192528)"
         style="fill:#fffffd;fill-opacity:1">
        <path
           d="M 457,101 H 356.812 L 347.069,71.77 C 340.933,53.365 323.776,41 304.377,41 h -96.754 c -19.399,0 -36.556,12.365 -42.691,30.77 L 155.188,101 H 131 V 76 C 131,56.701 115.299,41 96,41 H 76 C 56.701,41 41,56.701 41,76 v 26.812 C 17.432,109.02 0,130.51 0,156 v 260 c 0,30.327 24.673,55 55,55 h 402 c 30.327,0 55,-24.673 55,-55 V 156 c 0,-30.327 -24.673,-55 -55,-55 z M 71,76 c 0,-2.757 2.243,-5 5,-5 h 20 c 2.757,0 5,2.243 5,5 v 25 H 71 Z m 411,340 c 0,13.785 -11.215,25 -25,25 H 55 C 41.215,441 30,429.785 30,416 V 156 c 0,-13.785 11.215,-25 25,-25 h 111 c 6.456,0 12.188,-4.131 14.23,-10.257 L 193.392,81.257 C 195.438,75.122 201.156,71 207.623,71 h 96.754 c 6.467,0 12.186,4.122 14.23,10.256 l 13.162,39.487 C 333.812,126.869 339.544,131 346,131 h 111 c 13.785,0 25,11.215 25,25 z"
           id="path2"
           style="fill:#fffffd;fill-opacity:1" />
        <circle
           cx="436"
           cy="176"
           r="15"
           id="circle4"
           style="fill:#fffffd;fill-opacity:1" />
        <path
           d="M 106,161 H 76 c -8.284,0 -15,6.716 -15,15 0,8.284 6.716,15 15,15 h 30 c 8.284,0 15,-6.716 15,-15 0,-8.284 -6.716,-15 -15,-15 z"
           id="path6"
           style="fill:#fffffd;fill-opacity:1" />
        <g
           id="g10"
           style="fill:#fffffd;fill-opacity:1">
          <path
             d="m 256,411 c -74.439,0 -135,-60.561 -135,-135 0,-74.439 60.561,-135 135,-135 74.439,0 135,60.561 135,135 0,74.439 -60.561,135 -135,135 z m 0,-240 c -57.897,0 -105,47.103 -105,105 0,57.897 47.103,105 105,105 57.897,0 105,-47.103 105,-105 0,-57.897 -47.103,-105 -105,-105 z"
             id="path8"
             style="fill:#fffffd;fill-opacity:1" />
        </g>
        <g
           id="g14"
           style="fill:#fffffd;fill-opacity:1">
          <path
             d="m 256,351 c -41.355,0 -75,-33.645 -75,-75 0,-41.355 33.645,-75 75,-75 41.355,0 75,33.645 75,75 0,41.355 -33.645,75 -75,75 z m 0,-120 c -24.813,0 -45,20.187 -45,45 0,24.813 20.187,45 45,45 24.813,0 45,-20.187 45,-45 0,-24.813 -20.187,-45 -45,-45 z"
             id="path12"
             style="fill:#fffffd;fill-opacity:1" />
        </g>
      </g>
    </g>
  </g>
</svg>
