<?xml version="1.0" encoding="UTF-8" standalone="no"?>
<svg
   width="62.145"
   height="62.145"
   viewBox="0 0 62.145 62.145"
   version="1.1"
   id="svg8"
   sodipodi:docname="final theatre reverted.svg"
   inkscape:version="1.1 (c68e22c387, 2021-05-23)"
   xmlns:inkscape="http://www.inkscape.org/namespaces/inkscape"
   xmlns:sodipodi="http://sodipodi.sourceforge.net/DTD/sodipodi-0.dtd"
   xmlns="http://www.w3.org/2000/svg"
   xmlns:svg="http://www.w3.org/2000/svg">
  <defs
     id="defs12" />
  <sodipodi:namedview
     id="namedview10"
     pagecolor="#505050"
     bordercolor="#ffffff"
     borderopacity="1"
     inkscape:pageshadow="0"
     inkscape:pageopacity="0"
     inkscape:pagecheckerboard="1"
     showgrid="false"
     inkscape:zoom="6.774479"
     inkscape:cx="1.4023219"
     inkscape:cy="10.849543"
     inkscape:window-width="1920"
     inkscape:window-height="1027"
     inkscape:window-x="-8"
     inkscape:window-y="-8"
     inkscape:window-maximized="1"
     inkscape:current-layer="Group_1696" />
  <g
     id="Group_1705"
     data-name="Group 1705"
     transform="translate(0)">
    <g
       id="Group_1696"
       data-name="Group 1696"
       transform="translate(0 0)">
      <path
         id="Path_3054"
         data-name="Path 3054"
         d="M-3102.393-1312.567a28.288,28.288,0,0,1-28.29,28.291,28.152,28.152,0,0,1-10.87-2.165,26.518,26.518,0,0,1-7.855-18.869,26.6,26.6,0,0,1,26.6-26.6,26.46,26.46,0,0,1,17.277,6.388A28.17,28.17,0,0,1-3102.393-1312.567Z"
         transform="translate(3153.882 1336.384)"
         fill="#eee"
         style="fill-opacity:1;fill:#151515" />
      <path
         id="Path_3055"
         data-name="Path 3055"
         d="M-3113.844-1335.425a30.819,30.819,0,0,0-9.493-1.485,31.108,31.108,0,0,0-31.073,31.073,31.014,31.014,0,0,0,2.354,11.873,31.134,31.134,0,0,0,28.719,19.2,31.1,31.1,0,0,0,31.073-31.073A31.12,31.12,0,0,0-3113.844-1335.425Zm-9.493,56.187a26.507,26.507,0,0,1-18.743-7.731,26.517,26.517,0,0,1-7.856-18.869,26.6,26.6,0,0,1,26.6-26.6,26.461,26.461,0,0,1,17.276,6.388,26.48,26.48,0,0,1,9.322,20.211A26.6,26.6,0,0,1-3123.336-1279.237Z"
         transform="translate(3154.409 1336.91)"
         fill="#0f0f0f" />
      <path
         id="Path_3056"
         data-name="Path 3056"
         d="M-3095.286-1304.558a26.6,26.6,0,0,1-26.6,26.6,26.51,26.51,0,0,1-18.744-7.73,28.159,28.159,0,0,0,10.871,2.165,28.288,28.288,0,0,0,28.29-28.29,28.157,28.157,0,0,0-3.142-12.955A26.478,26.478,0,0,1-3095.286-1304.558Z"
         transform="translate(3152.958 1335.631)"
         fill="#d4cecb"
         style="fill:#151515;fill-opacity:1;opacity:1;stroke:none;stroke-opacity:1;stroke-width:1;stroke-miterlimit:4;stroke-dasharray:0, 11;stroke-dashoffset:0" />
      <g
         id="g1841"
         transform="matrix(0.05631352,0,0,0.05631352,29.406005,30.171615)"
         style="fill:#fffffd;fill-opacity:1">
        <path
           d="m 294.84709,-269.15092 -10.25296,-2.55284 c -113.61967,-28.29444 -232.443819,-28.29444 -346.063488,0 l -10.242561,2.55284 c -23.719071,5.90117 -40.361941,27.21298 -40.335951,51.65476 v 74.1416 c -52.93377,14.9947 -103.96982,36.03615 -152.08907,62.708407 l -9.2963,5.121287 c -21.3846,11.812744 -31.93392,36.706848 -25.55442,60.290741 L -268,100.63683 c 27.93568,103.99582 104.81211,187.83927 205.995122,224.6761 l 31.944321,11.71396 c 37.8922881,13.6273 80.261147,2.25129 106.226303,-28.5284 L 97.97669,282.44495 c 20.30316,-24.15581 36.96682,-51.14523 49.47107,-80.12077 6.71226,-2.60483 13.11255,-5.97396 19.07092,-10.0294 l 27.85249,-19.49725 C 282.57682,110.99378 335.12065,10.070729 335.17263,-97.63216 v -119.864 c 0.026,-24.43658 -16.61167,-45.74839 -40.32554,-51.65476 z M 81.671776,268.76046 59.855628,294.83482 C 39.65127,318.77225 6.69828,327.62142 -22.776386,317.0149 L -54.720708,305.30614 C -149.37344,270.84017 -221.28975,192.40397 -247.42649,95.120409 L -278.42454,-20.75055 c -3.81627,-14.131609 2.50085,-29.037921 15.31185,-36.119338 l 9.2859,-5.121273 c 44.9269,-24.909717 92.47423,-44.765719 141.77892,-59.204099 v 23.563087 c 0.0728,95.3806331 41.370601,186.066316 113.260924,248.743533 -18.727771,7.61174 -38.500601,12.36387 -58.647778,14.08483 l -80.073966,6.49388 c -4.84573,0.38476 -8.81796,4.00345 -9.64985,8.79717 -0.83188,4.79373 1.68976,9.54067 6.12474,11.53198 l 106.153511,47.91649 c 23.115962,10.47653 50.412132,3.17675 65.219656,-17.44356 l 23.23035,-32.31347 3.036375,2.12651 c 16.112542,11.25122 35.303054,17.27717 54.956288,17.25117 3.19236,0 6.28072,-0.40553 9.42109,-0.71229 -10.69491,21.45218 -23.890653,41.56297 -39.311694,59.91639 z M 19.987624,166.28283 c 2.906387,2.13171 5.739995,4.42978 8.729571,6.5147 l 7.372576,5.15767 -23.084764,32.1211 c -8.8907564,12.35866 -25.268464,16.72604 -39.134921,10.43493 l -68.541986,-30.87847 38.952932,-3.19235 c 26.22513,-2.1993 51.8575334,-9.02074 75.706592,-20.15758 z M 313.87642,-97.632173 C 313.83489,3.1245031 264.68091,97.527667 182.16849,155.34877 l -27.85251,19.49727 c -25.69478,17.90109 -59.817601,17.90109 -85.507198,0 L 40.966684,155.34877 C -41.550956,97.532871 -90.710059,3.1245031 -90.751653,-97.632173 V -217.49616 c 0,-14.65675 9.972205,-27.43136 24.192207,-30.98766 l 10.252969,-2.56324 c 110.229738,-27.45735 225.507987,-27.45735 335.737717,0 l 10.25297,2.56324 c 14.21481,3.5563 24.19221,16.33091 24.19221,30.98766 z m 0,0"
           id="path2"
           style="stroke-width:1.33101;fill:#fffffd;fill-opacity:1" />
        <path
           d="m 72.089518,-94.148658 14.521569,-15.587422 c -33.290935,-33.21293 -87.18137801,-33.21293 -120.472312,0 l -0.530329,0.53033 15.587418,14.526763 c 12.0727038,-12.077893 28.48161,-18.821353 45.55601,-18.722563 17.079603,0.10395 33.405321,7.0346 45.337644,19.252892 z m 0,0"
           id="path4"
           style="stroke-width:1.33101;fill:#fffffd;fill-opacity:1" />
        <path
           d="m 136.50849,-109.73608 -0.53033,0.53033 15.58742,14.526763 c 12.0727,-12.077893 28.48161,-18.821353 45.55601,-18.722563 17.0796,0.10395 33.40532,7.0346 45.33764,19.252892 l 14.52157,-15.587422 c -33.29093,-33.21293 -87.18138,-33.21293 -120.47231,0 z m 0,0"
           id="path6"
           style="stroke-width:1.33101;fill:#fffffd;fill-opacity:1" />
        <path
           d="m -148.99909,60.176103 c 16.64808,-4.466162 34.39319,-2.01731 49.205903,6.790258 l 9.925407,-18.857758 c -40.74148,-23.521509 -92.83818,-9.566659 -116.36488,31.169632 l -0.36915,0.649907 9.20791,5.324054 9.58226,4.663738 c 8.44361,-14.703532 22.41926,-25.414037 38.81255,-29.739831 z m 0,0"
           id="path8"
           style="stroke-width:1.33101;fill:#fffffd;fill-opacity:1" />
        <path
           d="M 226.78344,4.9754503 147.76491,19.351433 c -23.93745,4.367388 -48.467602,4.367388 -72.405053,0 L -3.6742542,4.9754503 c -4.7729342,-0.8682866 -9.5354728,1.6013688 -11.5683828,6.0103507 -2.038115,4.408982 -0.837088,9.634248 2.921987,12.707025 l 90.170967,73.751652 c 19.632447,15.982572 47.791703,15.982572 67.424143,0 l 90.15536,-73.772456 c 3.75907,-3.072764 4.9653,-8.29803 2.92719,-12.707011 C 236.3241,6.5560287 231.56156,4.0863732 226.78344,4.9546465 Z M 131.79275,80.978392 c -11.77635,9.603062 -28.68438,9.603062 -40.460732,0 l -58.28903,-47.682517 38.51101,6.998229 c 26.448687,4.835319 53.547292,4.835319 79.990782,0 l 38.5162,-6.998229 z m 0,0"
           id="path10"
           style="stroke-width:1.33101;fill:#fffffd;fill-opacity:1" />
      </g>
    </g>
  </g>
</svg>
