<svg xmlns="http://www.w3.org/2000/svg" width="226.132" height="218.579" viewBox="0 0 226.132 218.579">
  <g id="Group_4000" data-name="Group 4000" opacity="0.75">
    <g id="Group_3998" data-name="Group 3998">
      <path id="Path_4746" data-name="Path 4746" d="M156.637,205.206a24.019,24.019,0,0,0-33.918-1.946L109.26,215.274a23.723,23.723,0,0,0-24.971-19.04c4.064-3.391,8.029-6.7,11.724-9.771A24.024,24.024,0,0,0,65.255,149.55S37.341,172.813,9.421,196.174c-13.98,11.7-27.96,23.428-38.444,32.281-24,20.268-25.961,21.923-25.961,33.364a24,24,0,0,0,19.733,23.593c-23.612,18.862-25.143,20.538-25.143,31.912a24.026,24.026,0,0,0,24.028,24.021,23.949,23.949,0,0,0,16.725-6.776c2.9-2.474,13.947-11.315,28.857-23.164a36.744,36.744,0,0,0-.264,4.915,24.018,24.018,0,0,0,41.755,16.2c7.178-6.888,67.1-60.512,103.99-93.4A24.016,24.016,0,0,0,156.637,205.206Z" transform="translate(63.402 -143.982)" fill="#eaf0f5"/>
      <g id="Group_3993" data-name="Group 3993" transform="translate(183.231 37.351)">
        <g id="Group_3992" data-name="Group 3992">
          <path id="Path_4747" data-name="Path 4747" d="M-25.532,157.63a2.159,2.159,0,0,1-3.048-.152l-3.827-4.229a2.159,2.159,0,0,1,.158-3.048,2.159,2.159,0,0,1,3.048.152l3.827,4.229A2.16,2.16,0,0,1-25.532,157.63Z" transform="translate(33.726 -149.643)" fill="#7cb2ff"/>
          <path id="Path_4748" data-name="Path 4748" d="M-23.97,159.357a2.151,2.151,0,0,1-3.041-.152l-3.833-4.229a2.159,2.159,0,0,1,.158-3.048,2.159,2.159,0,0,1,3.048.152l3.827,4.229A2.159,2.159,0,0,1-23.97,159.357Z" transform="translate(42.47 -139.977)" fill="#7cb2ff"/>
          <path id="Path_4749" data-name="Path 4749" d="M-23.5,153.5l-4.242,3.84a2.156,2.156,0,0,1-3.041-.145,2.159,2.159,0,0,1,.152-3.048l4.242-3.84a2.159,2.159,0,0,1,3.048.152A2.151,2.151,0,0,1-23.5,153.5Z" transform="translate(42.769 -149.028)" fill="#7cb2ff"/>
          <path id="Path_4750" data-name="Path 4750" d="M-25.232,155.076l-4.242,3.833a2.152,2.152,0,0,1-3.048-.145,2.16,2.16,0,0,1,.158-3.048l4.242-3.833a2.152,2.152,0,0,1,3.048.145A2.16,2.16,0,0,1-25.232,155.076Z" transform="translate(33.077 -140.261)" fill="#7cb2ff"/>
        </g>
      </g>
      <g id="Group_3995" data-name="Group 3995" transform="translate(0 62.602)">
        <g id="Group_3994" data-name="Group 3994">
          <path id="Path_4751" data-name="Path 4751" d="M-54.821,159.984a1.681,1.681,0,0,1-2.362-.264l-3.167-3.5a1.7,1.7,0,0,1-.026-2.382,1.694,1.694,0,0,1,2.368.264l3.167,3.5A1.683,1.683,0,0,1-54.821,159.984Z" transform="translate(60.85 -153.471)" fill="#7cb2ff"/>
          <path id="Path_4752" data-name="Path 4752" d="M-53.522,161.41a1.688,1.688,0,0,1-2.368-.264l-3.167-3.5a1.7,1.7,0,0,1-.026-2.382,1.7,1.7,0,0,1,2.368.264l3.167,3.5A1.69,1.69,0,0,1-53.522,161.41Z" transform="translate(68.082 -145.476)" fill="#7cb2ff"/>
          <path id="Path_4753" data-name="Path 4753" d="M-53.6,156.679l-3.094,2.8a1.7,1.7,0,0,1-2.368-.264,1.691,1.691,0,0,1-.02-2.382l3.094-2.8a1.68,1.68,0,0,1,2.362.264A1.683,1.683,0,0,1-53.6,156.679Z" transform="translate(68.032 -152.376)" fill="#7cb2ff"/>
          <path id="Path_4754" data-name="Path 4754" d="M-54.871,157.822l-3.094,2.8a1.692,1.692,0,0,1-2.362-.264,1.692,1.692,0,0,1-.026-2.382l3.094-2.8a1.68,1.68,0,0,1,2.362.264A1.683,1.683,0,0,1-54.871,157.822Z" transform="translate(60.96 -145.978)" fill="#7cb2ff"/>
        </g>
      </g>
      <g id="Group_3997" data-name="Group 3997" transform="translate(189.728 142.896)">
        <g id="Group_3996" data-name="Group 3996">
          <path id="Path_4755" data-name="Path 4755" d="M-27.48,170.528a1.316,1.316,0,0,1-1.86-.092l-2.342-2.586a1.324,1.324,0,0,1,.1-1.867,1.316,1.316,0,0,1,1.86.092l2.342,2.593A1.316,1.316,0,0,1-27.48,170.528Z" transform="translate(32.49 -165.641)" fill="#7cb2ff"/>
          <path id="Path_4756" data-name="Path 4756" d="M-26.522,171.579a1.324,1.324,0,0,1-1.867-.092l-2.336-2.586a1.316,1.316,0,0,1,.092-1.86,1.315,1.315,0,0,1,1.86.092l2.342,2.586A1.316,1.316,0,0,1-26.522,171.579Z" transform="translate(37.838 -159.725)" fill="#7cb2ff"/>
          <path id="Path_4757" data-name="Path 4757" d="M-26.235,168l-2.6,2.349a1.316,1.316,0,0,1-1.86-.092,1.316,1.316,0,0,1,.1-1.86L-28,166.051a1.315,1.315,0,0,1,1.86.092A1.316,1.316,0,0,1-26.235,168Z" transform="translate(38.02 -165.261)" fill="#7cb2ff"/>
          <path id="Path_4758" data-name="Path 4758" d="M-27.294,168.961l-2.6,2.349a1.316,1.316,0,0,1-1.86-.092,1.316,1.316,0,0,1,.1-1.86l2.593-2.349a1.316,1.316,0,0,1,1.86.092A1.316,1.316,0,0,1-27.294,168.961Z" transform="translate(32.092 -159.898)" fill="#7cb2ff"/>
        </g>
      </g>
      <path id="Path_4759" data-name="Path 4759" d="M-34.512,184.383l3.253-.666a1.467,1.467,0,0,0,0-2.863l-3.253-.667a8.194,8.194,0,0,1-6.347-6.459l-.66-3.3a1.428,1.428,0,0,0-2.811,0l-.66,3.3a8.194,8.194,0,0,1-6.347,6.459l-3.253.667a1.467,1.467,0,0,0,0,2.863l3.253.666a8.2,8.2,0,0,1,6.347,6.459l.66,3.305a1.429,1.429,0,0,0,2.811,0l.66-3.305A8.194,8.194,0,0,1-34.512,184.383Z" transform="translate(89.475 -2.51)" fill="#ffd875"/>
      <path id="Path_4760" data-name="Path 4760" d="M-33.158,161.6l3.47-.713a1.567,1.567,0,0,0,0-3.061l-3.47-.719a8.765,8.765,0,0,1-6.8-6.908l-.706-3.53a1.53,1.53,0,0,0-3.008,0l-.706,3.53a8.765,8.765,0,0,1-6.8,6.908l-3.47.719a1.567,1.567,0,0,0,0,3.061l3.47.713a8.774,8.774,0,0,1,6.8,6.908l.706,3.536a1.53,1.53,0,0,0,3.008,0l.706-3.536A8.774,8.774,0,0,1-33.158,161.6Z" transform="translate(88.715 -135.943)" fill="#ffd875"/>
      <path id="Path_4761" data-name="Path 4761" d="M-27.036,183.572l1.88-.389a.844.844,0,0,0,0-1.649l-1.88-.389A4.736,4.736,0,0,1-30.7,177.41l-.383-1.907a.826.826,0,0,0-1.623,0l-.383,1.907a4.736,4.736,0,0,1-3.668,3.734l-1.88.389a.844.844,0,0,0,0,1.649l1.88.389a4.744,4.744,0,0,1,3.668,3.734l.383,1.907a.825.825,0,0,0,1.623,0l.383-1.907A4.744,4.744,0,0,1-27.036,183.572Z" transform="translate(181.45 28.688)" fill="#ffd875"/>
    </g>
    <g id="Group_3999" data-name="Group 3999" transform="translate(36.211 46.62)">
      <path id="Path_4762" data-name="Path 4762" d="M21.493,234.348l-76.854-76.72H98.347Z" transform="translate(55.361 -114.22)" fill="#f9cd6b"/>
      <path id="Path_4763" data-name="Path 4763" d="M-21.643,234.349l-26.012-76.72H4.37Z" transform="translate(98.498 -114.216)" fill="#f29e25"/>
      <path id="Path_4764" data-name="Path 4764" d="M98.347,194.461H-55.361l25.951-43.413H72.4Z" transform="translate(55.362 -151.048)" fill="#ffb12f"/>
      <path id="Path_4765" data-name="Path 4765" d="M11.407,194.461H-39.829l25.618-43.413Z" transform="translate(142.302 -151.048)" fill="#ffd875"/>
      <path id="Path_4766" data-name="Path 4766" d="M3.641,194.461H-47.6l25.618-43.413Z" transform="translate(98.832 -151.048)" fill="#ffd875"/>
      <path id="Path_4767" data-name="Path 4767" d="M-4.125,194.461H-55.361l25.618-43.413Z" transform="translate(55.362 -151.048)" fill="#ffd875"/>
    </g>
  </g>
</svg>
