<svg xmlns="http://www.w3.org/2000/svg" width="248" height="229.166" viewBox="0 0 248 229.166">
  <g id="Group_4022" data-name="Group 4022" transform="translate(-6.361 -7.982)" opacity="0.75">
    <g id="Group_4017" data-name="Group 4017" transform="translate(6.361 7.982)">
      <path id="Path_4792" data-name="Path 4792" d="M235.932,72.172a25.183,25.183,0,0,0-35.56-2.041l-14.111,12.6A24.871,24.871,0,0,0,160.08,62.764c4.261-3.555,8.418-7.021,12.292-10.244a25.187,25.187,0,0,0-32.247-38.7S110.858,38.209,81.585,62.7C66.928,74.966,52.271,87.265,41.28,96.547,16.122,117.8,14.068,119.532,14.068,131.527A25.159,25.159,0,0,0,34.75,156.262C10,176.038,8.4,177.795,8.4,189.72A25.187,25.187,0,0,0,51.116,207.8c3.05-2.594,14.623-11.863,30.255-24.286a38.531,38.531,0,0,0-.277,5.153,25.186,25.186,0,0,0,43.785,16.981c7.519-7.221,70.346-63.443,109.019-97.924A25.179,25.179,0,0,0,235.932,72.172Z" transform="translate(5.68 -7.982)" fill="#eaf0f5"/>
      <g id="Group_4012" data-name="Group 4012" transform="translate(193.004 7.859)">
        <g id="Group_4011" data-name="Group 4011">
          <path id="Path_4793" data-name="Path 4793" d="M40.864,16.109a1.883,1.883,0,0,1-2.663-.131l-3.355-3.7a1.893,1.893,0,0,1,2.808-2.539L41,13.446A1.884,1.884,0,0,1,40.864,16.109Z" transform="translate(-33.69 -9.118)" fill="#7cb2ff"/>
          <path id="Path_4794" data-name="Path 4794" d="M42.169,17.555a1.883,1.883,0,0,1-2.663-.131l-3.355-3.708a1.893,1.893,0,0,1,2.808-2.539l3.348,3.708A1.892,1.892,0,0,1,42.169,17.555Z" transform="translate(-25.968 -0.583)" fill="#7cb2ff"/>
          <path id="Path_4795" data-name="Path 4795" d="M42.579,12.494l-3.714,3.362a1.885,1.885,0,1,1-2.532-2.794L40.054,9.7a1.883,1.883,0,1,1,2.525,2.794Z" transform="translate(-25.707 -8.574)" fill="#7cb2ff"/>
          <path id="Path_4796" data-name="Path 4796" d="M41.134,13.807,37.42,17.168a1.888,1.888,0,1,1-2.532-2.8L38.6,11.005a1.888,1.888,0,1,1,2.532,2.8Z" transform="translate(-34.264 -0.832)" fill="#7cb2ff"/>
        </g>
      </g>
      <g id="Group_4014" data-name="Group 4014" transform="translate(18.284 106.212)">
        <g id="Group_4013" data-name="Group 4013" transform="translate(0 0)">
          <path id="Path_4797" data-name="Path 4797" d="M13.839,28.455a1.379,1.379,0,0,1-1.951-.1L9.433,25.646a1.379,1.379,0,0,1,.1-1.951,1.394,1.394,0,0,1,1.958.09L13.943,26.5A1.38,1.38,0,0,1,13.839,28.455Z" transform="translate(-8.584 -23.337)" fill="#7cb2ff"/>
          <path id="Path_4798" data-name="Path 4798" d="M14.8,29.51a1.387,1.387,0,0,1-1.958-.09L10.385,26.7a1.384,1.384,0,0,1,2.054-1.854L14.9,27.559A1.379,1.379,0,0,1,14.8,29.51Z" transform="translate(-2.931 -17.088)" fill="#7cb2ff"/>
          <path id="Path_4799" data-name="Path 4799" d="M15.1,25.81l-2.725,2.462a1.381,1.381,0,1,1-1.854-2.047l2.725-2.462A1.381,1.381,0,1,1,15.1,25.81Z" transform="translate(-2.738 -22.94)" fill="#7cb2ff"/>
          <path id="Path_4800" data-name="Path 4800" d="M14.038,26.768,11.313,29.23a1.381,1.381,0,1,1-1.854-2.047l2.725-2.462a1.381,1.381,0,1,1,1.854,2.047Z" transform="translate(-9.004 -17.272)" fill="#7cb2ff"/>
        </g>
      </g>
      <g id="Group_4016" data-name="Group 4016" transform="translate(203.425 180.283)">
        <g id="Group_4015" data-name="Group 4015">
          <path id="Path_4801" data-name="Path 4801" d="M40.605,39.166a1.379,1.379,0,0,1-1.951-.1L36.2,36.358A1.386,1.386,0,0,1,38.254,34.5l2.456,2.718A1.38,1.38,0,0,1,40.605,39.166Z" transform="translate(-35.35 -34.046)" fill="#7cb2ff"/>
          <path id="Path_4802" data-name="Path 4802" d="M41.562,40.219a1.387,1.387,0,0,1-1.958-.09l-2.456-2.718A1.384,1.384,0,0,1,39.2,35.557l2.456,2.711A1.379,1.379,0,0,1,41.562,40.219Z" transform="translate(-29.694 -27.794)" fill="#7cb2ff"/>
          <path id="Path_4803" data-name="Path 4803" d="M41.86,36.519l-2.725,2.462a1.379,1.379,0,1,1-1.847-2.047l2.718-2.462a1.381,1.381,0,0,1,1.854,2.047Z" transform="translate(-29.501 -33.646)" fill="#7cb2ff"/>
          <path id="Path_4804" data-name="Path 4804" d="M40.8,37.477l-2.725,2.462a1.381,1.381,0,0,1-1.854-2.047l2.725-2.462A1.381,1.381,0,1,1,40.8,37.477Z" transform="translate(-35.77 -27.978)" fill="#7cb2ff"/>
        </g>
      </g>
      <path id="Path_4805" data-name="Path 4805" d="M40.224,57.168l4.766-.982a2.15,2.15,0,0,0,0-4.2l-4.766-.982a12.025,12.025,0,0,1-9.317-9.476l-.968-4.842a2.1,2.1,0,0,0-4.123,0l-.968,4.842a12.015,12.015,0,0,1-9.317,9.476l-4.766.982a2.15,2.15,0,0,0,0,4.2l4.766.982a12.016,12.016,0,0,1,9.317,9.469l.968,4.849a2.1,2.1,0,0,0,4.123,0l.968-4.849A12.025,12.025,0,0,1,40.224,57.168Z" transform="translate(9.717 151.705)" fill="#ffd875"/>
      <path id="Path_4806" data-name="Path 4806" d="M26.995,26.251l3.154-.65a1.423,1.423,0,0,0,0-2.781l-3.154-.65a7.953,7.953,0,0,1-6.17-6.274l-.643-3.209a1.389,1.389,0,0,0-2.732,0L16.806,15.9a7.953,7.953,0,0,1-6.17,6.274l-3.154.65a1.423,1.423,0,0,0,0,2.781l3.154.65a7.961,7.961,0,0,1,6.17,6.281l.643,3.21a1.389,1.389,0,0,0,2.732,0l.643-3.21A7.961,7.961,0,0,1,26.995,26.251Z" transform="translate(-6.361 13.134)" fill="#ffd875"/>
      <path id="Path_4807" data-name="Path 4807" d="M42.352,48l1.964-.408a.885.885,0,0,0,0-1.729l-1.964-.408A4.964,4.964,0,0,1,38.5,41.535l-.394-2a.87.87,0,0,0-1.709,0l-.4,2A4.956,4.956,0,0,1,32.15,45.45l-1.964.408a.884.884,0,0,0,0,1.729L32.15,48A4.965,4.965,0,0,1,36,51.91l.4,2a.869.869,0,0,0,1.709,0l.394-2A4.973,4.973,0,0,1,42.352,48Z" transform="translate(130.463 174.546)" fill="#ffd875"/>
    </g>
    <g id="Group_4019" data-name="Group 4019" transform="translate(46.611 59.036)">
      <g id="Group_4018" data-name="Group 4018">
        <path id="Path_4808" data-name="Path 4808" d="M137.523,37.387H63.055l-4-13.509c-1.5-5.084-5.769-8.515-10.576-8.515H23.316c-6.149,0-11.136,5.547-11.136,12.4v91.63c0,10.189,7.422,18.455,16.58,18.455H137.171c7.166,0,12.969-6.46,12.969-14.429V61.029C150.14,51.518,150.14,37.387,137.523,37.387Z" transform="translate(-12.18 -15.363)" fill="#ffd875"/>
        <path id="Path_4809" data-name="Path 4809" d="M118.295,96.736H23.386c-5.79,0-10.12-5.423-9.663-12.112l3.583-52.493c.457-6.689,5.52-12.112,11.316-12.112h94.9c5.8,0,10.12,5.423,9.663,12.112l-3.576,52.493C129.155,91.313,124.084,96.736,118.295,96.736Z" transform="translate(-3.244 12.187)" fill="#eaf0f5"/>
        <path id="Path_4810" data-name="Path 4810" d="M117.807,93.908H22.9c-5.79,0-9.213-5.153-7.65-11.5L27.554,32.588c1.57-6.35,7.533-11.5,13.329-11.5h94.9c5.8,0,9.22,5.146,7.65,11.5L131.13,82.4C129.566,88.754,123.6,93.908,117.807,93.908Z" transform="translate(3.739 18.536)" fill="#fff"/>
        <path id="Path_4811" data-name="Path 4811" d="M173.323,30.022l-4.1,10.306-1,2.628L150.137,88.886c-2.608,6.571-12.119,11.9-21.256,11.9H22.4c-3.915,0-7.021-3.182-8.328-7.332a14.468,14.468,0,0,1,.249-9.961L26.938,51.4c2.428-6.087,11.254-11.067,19.831-11.067h69.682l10.936-12.8c2.8-3.251,7.961-5.464,12.748-5.464h25.171a9.544,9.544,0,0,1,2.49.277C172.389,23.1,174.755,26.286,173.323,30.022Z" transform="translate(-5.509 24.305)" fill="#68a7f2"/>
        <path id="Path_4812" data-name="Path 4812" d="M167.8,22.344a2.784,2.784,0,0,1-.249.968l-4.109,10.306-.989,2.559-18.088,46C141.747,88.678,132.236,94,123.1,94H16.625a5.508,5.508,0,0,1-2.552-.553,14.468,14.468,0,0,1,.249-9.961L26.938,51.4c2.428-6.087,11.254-11.067,19.831-11.067h69.682l10.936-12.8c2.8-3.251,7.961-5.464,12.748-5.464h25.171A9.544,9.544,0,0,1,167.8,22.344Z" transform="translate(-5.509 24.305)" fill="#7cb2ff"/>
      </g>
    </g>
    <g id="Group_4020" data-name="Group 4020" transform="translate(161.765 34.399)">
      <rect id="Rectangle_2986" data-name="Rectangle 2986" width="47.96" height="35.435" rx="1.355" transform="translate(14.492 0) rotate(24.14)" fill="#7cb2ff"/>
      <path id="Path_4816" data-name="Path 4816" d="M35.631,15.995l-3.465,7.733A2.723,2.723,0,0,0,34.8,27.567l8.937-.5a2.721,2.721,0,0,0,2.02-4.365l-5.464-7.228A2.727,2.727,0,0,0,35.631,15.995Z" transform="translate(-10.515 3.496)" fill="#fff"/>
    </g>
    <g id="Group_4021" data-name="Group 4021" transform="translate(92.012 34.309)">
      <rect id="Rectangle_2987" data-name="Rectangle 2987" width="45.925" height="39.678" rx="0.651" fill="#7cb2ff"/>
      <rect id="Rectangle_2988" data-name="Rectangle 2988" width="39.936" height="34.504" rx="0.566" transform="translate(2.994 2.587)" fill="#fff"/>
      <path id="Path_4817" data-name="Path 4817" d="M36.884,14.517l5.588,11.43-20.949-.99Z" transform="translate(-2.295 4.356)" fill="#d3dce2"/>
      <path id="Path_4818" data-name="Path 4818" d="M19.575,24.13,34.46,14.656,40.5,19.674l6.037,5.017Z" transform="translate(-13.827 5.183)" fill="#eaf0f5"/>
      <circle id="Ellipse_599" data-name="Ellipse 599" cx="2.957" cy="2.957" r="2.957" transform="translate(12.729 9.999)" fill="#ffd875"/>
    </g>
  </g>
</svg>
