<svg xmlns="http://www.w3.org/2000/svg" width="237.509" height="219.2" viewBox="0 0 237.509 219.2">
  <g id="Group_4010" data-name="Group 4010" opacity="0.75">
    <g id="Group_4009" data-name="Group 4009" transform="translate(5.688)">
      <path id="Path_4768" data-name="Path 4768" d="M224.637,205.153a24.019,24.019,0,0,0-33.918-1.94L177.26,215.227a23.74,23.74,0,0,0-4.552-9.956,23.979,23.979,0,0,0-20.419-9.091c4.064-3.385,8.029-6.69,11.724-9.764A24.024,24.024,0,0,0,133.255,149.5s-27.914,23.256-55.834,46.624c-13.98,11.7-27.96,23.428-38.444,32.281-24,20.261-25.961,21.917-25.961,33.364a24,24,0,0,0,19.733,23.593C9.137,304.227,7.606,305.9,7.606,317.277a24.023,24.023,0,0,0,40.753,17.239c2.9-2.468,13.947-11.308,28.857-23.157a36.753,36.753,0,0,0-.264,4.915,24.018,24.018,0,0,0,41.755,16.2c7.178-6.888,67.1-60.512,103.99-93.4A24.024,24.024,0,0,0,224.637,205.153Z" transform="translate(-4.598 -143.935)" fill="#eaf0f5"/>
      <g id="Group_4002" data-name="Group 4002" transform="translate(183.231 37.35)">
        <g id="Group_4001" data-name="Group 4001">
          <path id="Path_4769" data-name="Path 4769" d="M42.468,157.577a2.152,2.152,0,0,1-3.048-.145L35.594,153.2a2.163,2.163,0,0,1,3.206-2.9l3.827,4.236A2.151,2.151,0,0,1,42.468,157.577Z" transform="translate(-34.274 -149.596)" fill="#7cb2ff"/>
          <path id="Path_4770" data-name="Path 4770" d="M44.03,159.3a2.144,2.144,0,0,1-3.041-.145l-3.833-4.236a2.16,2.16,0,0,1,3.206-2.9l3.827,4.236A2.152,2.152,0,0,1,44.03,159.3Z" transform="translate(-25.53 -139.929)" fill="#7cb2ff"/>
          <path id="Path_4771" data-name="Path 4771" d="M44.5,153.457l-4.242,3.84a2.153,2.153,0,1,1-2.89-3.193l4.242-3.84a2.153,2.153,0,1,1,2.89,3.193Z" transform="translate(-25.231 -148.98)" fill="#7cb2ff"/>
          <path id="Path_4772" data-name="Path 4772" d="M42.768,155.03l-4.242,3.833a2.153,2.153,0,1,1-2.89-3.193l4.242-3.84a2.156,2.156,0,1,1,2.89,3.2Z" transform="translate(-34.923 -140.214)" fill="#7cb2ff"/>
        </g>
      </g>
      <g id="Group_4004" data-name="Group 4004" transform="translate(0 62.599)">
        <g id="Group_4003" data-name="Group 4003">
          <path id="Path_4773" data-name="Path 4773" d="M13.179,159.939a1.693,1.693,0,0,1-2.362-.264l-3.167-3.5a1.69,1.69,0,0,1-.026-2.375,1.688,1.688,0,0,1,2.368.264l3.167,3.5A1.691,1.691,0,0,1,13.179,159.939Z" transform="translate(-7.15 -153.423)" fill="#7cb2ff"/>
          <path id="Path_4774" data-name="Path 4774" d="M14.478,161.363a1.688,1.688,0,0,1-2.368-.264l-3.167-3.5a1.7,1.7,0,0,1-.026-2.382,1.7,1.7,0,0,1,2.368.264l3.167,3.5A1.69,1.69,0,0,1,14.478,161.363Z" transform="translate(0.082 -145.426)" fill="#7cb2ff"/>
          <path id="Path_4775" data-name="Path 4775" d="M14.4,156.633l-3.094,2.8a1.689,1.689,0,0,1-2.368-.264,1.683,1.683,0,0,1-.02-2.375l3.094-2.8a1.8,1.8,0,0,1,2.388,2.646Z" transform="translate(0.032 -152.328)" fill="#7cb2ff"/>
          <path id="Path_4776" data-name="Path 4776" d="M13.129,157.775l-3.094,2.8a1.692,1.692,0,0,1-2.362-.264,1.692,1.692,0,0,1-.026-2.382l3.094-2.8a1.68,1.68,0,0,1,2.362.264A1.684,1.684,0,0,1,13.129,157.775Z" transform="translate(-7.04 -145.928)" fill="#7cb2ff"/>
        </g>
      </g>
      <g id="Group_4006" data-name="Group 4006" transform="translate(32.688 202.893)">
        <g id="Group_4005" data-name="Group 4005">
          <path id="Path_4777" data-name="Path 4777" d="M18.137,181.2a1.688,1.688,0,0,1-2.368-.264l-3.16-3.5a1.691,1.691,0,0,1-.026-2.382,1.693,1.693,0,0,1,2.362.264l3.167,3.5A1.683,1.683,0,0,1,18.137,181.2Z" transform="translate(-12.105 -174.688)" fill="#7cb2ff"/>
          <path id="Path_4778" data-name="Path 4778" d="M19.429,182.632a1.692,1.692,0,0,1-2.362-.264l-3.167-3.5a1.683,1.683,0,0,1-.026-2.375,1.681,1.681,0,0,1,2.362.264l3.167,3.5A1.692,1.692,0,0,1,19.429,182.632Z" transform="translate(-4.873 -166.694)" fill="#7cb2ff"/>
          <path id="Path_4779" data-name="Path 4779" d="M19.347,177.9l-3.094,2.8a1.8,1.8,0,0,1-2.388-2.646l3.094-2.8a1.793,1.793,0,0,1,2.388,2.639Z" transform="translate(-4.923 -173.595)" fill="#7cb2ff"/>
          <path id="Path_4780" data-name="Path 4780" d="M18.09,179.039l-3.1,2.8A1.793,1.793,0,0,1,12.6,179.2l3.094-2.8a1.8,1.8,0,0,1,2.395,2.639Z" transform="translate(-11.998 -167.197)" fill="#7cb2ff"/>
        </g>
      </g>
      <g id="Group_4008" data-name="Group 4008" transform="translate(189.728 142.896)">
        <g id="Group_4007" data-name="Group 4007">
          <path id="Path_4781" data-name="Path 4781" d="M40.52,170.481a1.316,1.316,0,0,1-1.861-.092L36.317,167.8a1.322,1.322,0,0,1,1.959-1.775l2.342,2.586A1.324,1.324,0,0,1,40.52,170.481Z" transform="translate(-35.51 -165.594)" fill="#7cb2ff"/>
          <path id="Path_4782" data-name="Path 4782" d="M41.478,171.535a1.324,1.324,0,0,1-1.867-.092l-2.336-2.586a1.319,1.319,0,0,1,1.953-1.775l2.342,2.593A1.316,1.316,0,0,1,41.478,171.535Z" transform="translate(-30.162 -159.681)" fill="#7cb2ff"/>
          <path id="Path_4783" data-name="Path 4783" d="M41.765,167.959l-2.6,2.349a1.317,1.317,0,1,1-1.762-1.959L40,166.006a1.317,1.317,0,1,1,1.768,1.953Z" transform="translate(-29.98 -165.216)" fill="#7cb2ff"/>
          <path id="Path_4784" data-name="Path 4784" d="M40.706,168.917l-2.6,2.349a1.317,1.317,0,1,1-1.762-1.96l2.593-2.342a1.317,1.317,0,1,1,1.768,1.953Z" transform="translate(-35.908 -159.854)" fill="#7cb2ff"/>
        </g>
      </g>
      <path id="Path_4785" data-name="Path 4785" d="M24.449,154.155l1.887-.389a.851.851,0,0,0,0-1.663l-1.887-.389a4.748,4.748,0,0,1-3.688-3.747l-.383-1.913a.828.828,0,0,0-1.63,0l-.383,1.913a4.748,4.748,0,0,1-3.688,3.747l-1.887.389a.853.853,0,0,0,0,1.663l1.887.389a4.757,4.757,0,0,1,3.688,3.747l.383,1.92a.829.829,0,0,0,1.63,0l.383-1.92A4.757,4.757,0,0,1,24.449,154.155Z" transform="translate(20.716 -135.9)" fill="#ffd875"/>
      <path id="Path_4786" data-name="Path 4786" d="M44.123,164.967l3.477-.719a1.568,1.568,0,0,0,0-3.061l-3.477-.713a8.774,8.774,0,0,1-6.8-6.908l-.706-3.536a1.53,1.53,0,0,0-3.008,0l-.7,3.536a8.783,8.783,0,0,1-6.8,6.908l-3.477.713a1.567,1.567,0,0,0,0,3.061l3.477.719a8.774,8.774,0,0,1,6.8,6.908l.7,3.53a1.53,1.53,0,0,0,3.008,0l.706-3.53A8.766,8.766,0,0,1,44.123,164.967Z" transform="translate(72.665 -116.826)" fill="#ffd875"/>
      <path id="Path_4787" data-name="Path 4787" d="M40.964,183.529l1.88-.389a.844.844,0,0,0,0-1.649l-1.88-.389a4.745,4.745,0,0,1-3.668-3.734l-.383-1.907a.825.825,0,0,0-1.623,0l-.383,1.907a4.745,4.745,0,0,1-3.668,3.734l-1.88.389a.844.844,0,0,0,0,1.649l1.88.389a4.736,4.736,0,0,1,3.668,3.734l.383,1.907a.826.826,0,0,0,1.623,0l.383-1.907A4.736,4.736,0,0,1,40.964,183.529Z" transform="translate(113.45 28.731)" fill="#ffd875"/>
    </g>
    <path id="Path_4788" data-name="Path 4788" d="M18.1,192.874H140.89l14.317-27.406a5.77,5.77,0,0,0-5.113-8.445H36.834Z" transform="translate(59.852 -70.676)" fill="#f29e25"/>
    <rect id="Rectangle_2982" data-name="Rectangle 2982" width="122.783" height="66.262" transform="translate(77.958 122.195)" fill="#ffb12f"/>
    <rect id="Rectangle_2983" data-name="Rectangle 2983" width="122.783" height="66.262" transform="translate(38.373 122.195)" fill="#ffd875"/>
    <path id="Path_4789" data-name="Path 4789" d="M243.8,174.521a2.379,2.379,0,0,1-2.388,2.388H8.67a2.385,2.385,0,0,1,0-4.77H241.409A2.374,2.374,0,0,1,243.8,174.521Z" transform="translate(-6.288 13.936)" fill="#7cb2ff"/>
    <path id="Path_4790" data-name="Path 4790" d="M148.8,192.874H26.016L10.03,162.281a3.6,3.6,0,0,1,3.187-5.258H127.894a3.6,3.6,0,0,1,3.187,1.933Z" transform="translate(12.355 -70.676)" fill="#ffb12f"/>
    <path id="Path_4791" data-name="Path 4791" d="M30.715,162.457l28.653,25.572a2.236,2.236,0,0,0,1.465.554l30.2-.172a2.179,2.179,0,0,0,1.531-3.721L70.3,162.457Z" transform="translate(130.442 -40.259)" fill="#ffd875"/>
    <rect id="Rectangle_2984" data-name="Rectangle 2984" width="39.874" height="5.5" transform="translate(47.556 159.361)" fill="#ffb12f"/>
    <rect id="Rectangle_2985" data-name="Rectangle 2985" width="39.874" height="5.5" transform="translate(47.556 171.186)" fill="#ffb12f"/>
  </g>
</svg>
