<svg xmlns="http://www.w3.org/2000/svg" width="237.509" height="178.036" viewBox="0 0 237.509 178.036">
  <g id="Group_3964" data-name="Group 3964" opacity="0.75">
    <path id="Path_4661" data-name="Path 4661" d="M157.871,92.448H-60.242a21.84,21.84,0,0,1,.792-2.771,27.318,27.318,0,0,1,.99-2.7c9.9-26.192,37.738-45.721,70.791-54.1A142.833,142.833,0,0,1,34.3,29.112c2.045-.264,4.156-.4,6.2-.528,2.771-.2,5.542-.264,8.313-.264,47.634,0,93.882,23.157,107.275,58.652a27.31,27.31,0,0,1,.99,2.7A21.84,21.84,0,0,1,157.871,92.448Z" transform="translate(69.94 85.588)" fill="#c6d5e0"/>
    <path id="Path_4662" data-name="Path 4662" d="M146.391,91.832H-60.242a21.84,21.84,0,0,1,.792-2.771,27.318,27.318,0,0,1,.99-2.7c9.9-26.192,37.738-45.721,70.791-54.1A142.833,142.833,0,0,1,34.3,28.5c1.056-.066,2.177-.066,3.233-.066,47.634,0,93.882,23.157,107.275,58.652a27.312,27.312,0,0,1,.99,2.7A11.951,11.951,0,0,1,146.391,91.832Z" transform="translate(69.94 86.204)" fill="#eaf0f5"/>
    <ellipse id="Ellipse_584" data-name="Ellipse 584" cx="14.092" cy="3.473" rx="14.092" ry="3.473" transform="translate(27.1 151.216)" fill="#c6d5e0"/>
    <ellipse id="Ellipse_585" data-name="Ellipse 585" cx="3.058" cy="15.113" rx="3.058" ry="15.113" transform="matrix(0.538, -0.843, 0.843, 0.538, 181.269, 132.836)" fill="#c6d5e0"/>
    <ellipse id="Ellipse_586" data-name="Ellipse 586" cx="14.092" cy="5.252" rx="14.092" ry="5.252" transform="translate(127.298 152.095)" fill="#c6d5e0"/>
    <g id="Group_3946" data-name="Group 3946" transform="translate(74.789)">
      <g id="Group_3945" data-name="Group 3945">
        <g id="Group_3929" data-name="Group 3929" transform="translate(49.576)">
          <g id="Group_3928" data-name="Group 3928">
            <path id="Path_4663" data-name="Path 4663" d="M-17.992,54.3a24.848,24.848,0,0,1-6.268-.2A21.978,21.978,0,0,1-42.732,35.039c-1.32-11.875,7.587-22.563,19.924-23.883.4,0,.726-.066,1.122-.066C-9.811,10.431.679,18.941,1.933,30.421,3.252,42.363-5.654,53.05-17.992,54.3Z" transform="translate(42.862 -11.055)" fill="#eaf0f5"/>
            <path id="Path_4664" data-name="Path 4664" d="M-20.653,11.1a22.335,22.335,0,0,0-2.382.125,22.178,22.178,0,0,0-15.115,8.128,20.686,20.686,0,0,0-4.532,15.385C-41.382,46.454-30.443,54.958-18.3,53.7A22.153,22.153,0,0,0-3.182,45.57,20.726,20.726,0,0,0,1.35,30.185C.129,19.246-9.5,11.1-20.653,11.1Z" transform="translate(43.141 -10.772)" fill="#fff"/>
          </g>
        </g>
        <g id="Group_3930" data-name="Group 3930" transform="translate(0 0.036)">
          <ellipse id="Ellipse_587" data-name="Ellipse 587" cx="72.964" cy="16.513" rx="72.964" ry="16.513" transform="translate(0 32.726) rotate(-5.893)" fill="#eaf0f5"/>
          <path id="Path_4665" data-name="Path 4665" d="M-23.006,54.01a7.985,7.985,0,0,1-1.254.066A21.978,21.978,0,0,1-42.732,35.009c-1.32-11.875,7.587-22.563,19.924-23.883.4,0,.726-.066,1.122-.066a22.113,22.113,0,0,1,18.6,19.067C-1.762,42.068-10.668,52.756-23.006,54.01Z" transform="translate(92.437 -11.06)" fill="#eaf0f5"/>
          <path id="Path_4666" data-name="Path 4666" d="M89.747,24.586c.726,6.532-23.223,19.067-70.725,23.949-6.729.66-13.195,1.122-19.4,1.32H-1.958a189.392,189.392,0,0,1-26.258-1.715c-12.931-1.913-21.442-5.146-21.838-8.247a4.835,4.835,0,0,1,1.319-3.563c6.532-8.115,35.626-16.56,69.142-19.99A291.656,291.656,0,0,1,50.756,14.69c6.6,0,12.733.264,18.275.792C81.435,17.131,89.286,20.3,89.747,24.586Z" transform="translate(52.059 9.259)" fill="#eaf0f5"/>
          <path id="Path_4667" data-name="Path 4667" d="M72.2,15.812c-1.056-.132-2.111-.264-3.167-.33-5.542-.528-11.678-.792-18.275-.792a291.656,291.656,0,0,0-30.348,1.649C-13.107,19.77-42.2,28.215-48.734,36.33a4.835,4.835,0,0,0-1.319,3.563c.4,3.1,8.907,6.334,21.838,8.247A189.392,189.392,0,0,0-1.958,49.855H-.374c7.917-.066,16.1-.528,24.411-1.385,39.453-4.09,63.534-13.525,69.274-20.65a3.891,3.891,0,0,0,1.122-2.9C93.97,20.76,85.921,17.461,72.2,15.812Z" transform="translate(52.059 9.259)" fill="#eaf0f5"/>
        </g>
        <g id="Group_3932" data-name="Group 3932" transform="translate(4.823 29.467)">
          <g id="Group_3931" data-name="Group 3931">
            <path id="Path_4668" data-name="Path 4668" d="M-49.645,38.395a83.7,83.7,0,0,1,7.62-4.909l1.992-1.089,1-.541c.336-.172.673-.336,1.016-.508l2.032-1c.68-.336,1.372-.627,2.058-.943a128.742,128.742,0,0,1,17.068-6.155c5.819-1.676,11.737-2.969,17.688-4.057L5.3,18.431c1.491-.244,3-.435,4.493-.653l2.243-.323,2.256-.264,4.506-.521,4.519-.4c.752-.059,1.5-.139,2.263-.185l2.263-.132,2.27-.139c.752-.04,1.5-.1,2.263-.112l4.539-.139c6.043-.106,12.1-.013,18.136.416a154.306,154.306,0,0,1,18,2.316c.739.152,1.478.323,2.217.482s1.484.3,2.21.5c1.465.383,2.936.726,4.381,1.194l1.082.33.541.172.534.191,2.131.772,2.085.9c.673.336,1.333.713,2,1.062A38.879,38.879,0,0,0,81.8,20.641c-1.445-.449-2.916-.765-4.381-1.122-.732-.185-1.478-.31-2.217-.468s-1.478-.3-2.223-.435a154.969,154.969,0,0,0-17.965-2.131q-9.035-.524-18.09-.323L32.4,16.32c-.752.013-1.5.073-2.256.119l-2.263.139-2.256.145c-.752.046-1.5.132-2.256.191l-4.506.409-4.5.508-2.243.257-2.243.31c-1.5.218-3,.4-4.48.64l-4.467.746c-5.938,1.056-11.836,2.355-17.655,3.952A129.16,129.16,0,0,0-33.8,29.693c-.686.3-1.385.594-2.072.91l-2.045.97c-.336.165-.68.323-1.016.488l-1,.528-2.006,1.049C-44.578,35.1-47.158,36.679-49.645,38.395Z" transform="translate(49.645 -15.521)" fill="#7cb2ff"/>
          </g>
        </g>
        <g id="Group_3937" data-name="Group 3937" transform="translate(41.029 41.562)">
          <g id="Group_3935" data-name="Group 3935">
            <g id="Group_3934" data-name="Group 3934">
              <g id="Group_3933" data-name="Group 3933">
                <ellipse id="Ellipse_588" data-name="Ellipse 588" cx="33.857" cy="7.662" rx="33.857" ry="7.662" transform="matrix(0.995, -0.103, 0.103, 0.995, 0, 6.952)" fill="#7cb2ff"/>
              </g>
            </g>
          </g>
          <g id="Group_3936" data-name="Group 3936" transform="translate(9.846 7.296)">
            <path id="Path_4669" data-name="Path 4669" d="M6.841,20.926c.191,1.715-8.075,5.212-24.266,6.894-14.013,1.451-25.044-.02-25.235-1.762-.264-2.388,10.6-5.476,24.272-6.894S6.577,18.538,6.841,20.926Z" transform="translate(42.665 -18.46)" fill="#ffd875"/>
          </g>
        </g>
        <g id="Group_3939" data-name="Group 3939" transform="translate(61.147 118.145)">
          <g id="Group_3938" data-name="Group 3938">
            <path id="Path_4670" data-name="Path 4670" d="M-22.544,77.848l3.008-6.063A2.962,2.962,0,0,0-21,67.774L-39.335,59.3A2.955,2.955,0,0,1-40.8,55.285l3.028-6.1a3.015,3.015,0,0,1,1.306-1.339L-1.782,29.337a3.222,3.222,0,0,1,2.857-.079l8.28,3.833A2.963,2.963,0,0,1,10.826,37.1L-1.683,62.3A2.97,2.97,0,0,0-.218,66.323l.422.191A2.963,2.963,0,0,1,1.5,70.829L-.693,74.2a3.174,3.174,0,0,1-3.985,1.115h0a3.168,3.168,0,0,0-4.163,1.418L-11.85,82.79a3.18,3.18,0,0,1-4.163,1.418l-5.067-2.342A2.969,2.969,0,0,1-22.544,77.848ZM-9.211,50.977l.811-1.63a3.076,3.076,0,0,0-4.433-3.879c-3.022,1.775-6.334,3.648-9.494,5.41a2.961,2.961,0,0,0,.211,5.324l5.575,2.573a3.172,3.172,0,0,0,4.163-1.412Z" transform="translate(41.108 -28.962)" fill="#ffb12f"/>
          </g>
        </g>
        <g id="Group_3941" data-name="Group 3941" transform="translate(1.016 12.997)">
          <g id="Group_3940" data-name="Group 3940">
            <path id="Path_4671" data-name="Path 4671" d="M95.912,33.117c-1.319-.594-3.431-1.517-6.4-2.573-10.688-3.761-32.394-8.841-67.1-5.278-45.391,4.684-67.1,19.529-72.638,23.223.99-2.177,4.354-7.257,11.15-12.931a2.794,2.794,0,0,1,.462-.33c10.424-8.511,28.7-18.143,58.586-21.244C72.755,8.508,91.624,28.037,95.912,33.117Z" transform="translate(50.222 -13.025)" fill="#fff"/>
          </g>
        </g>
        <g id="Group_3944" data-name="Group 3944" transform="translate(1.016 14.713)">
          <g id="Group_3943" data-name="Group 3943">
            <g id="Group_3942" data-name="Group 3942">
              <path id="Path_4672" data-name="Path 4672" d="M89.513,29.088c-10.688-3.761-32.394-8.841-67.1-5.278-45.391,4.684-67.1,19.529-72.638,23.223.99-2.177,4.354-7.257,11.15-12.931a2.794,2.794,0,0,1,.462-.33c10.688-8.049,28.5-16.626,56.408-19.529C60.352,9.824,80.936,21.7,89.513,29.088Z" transform="translate(50.222 -13.285)" fill="#7cb2ff"/>
            </g>
          </g>
        </g>
      </g>
    </g>
    <g id="Group_3950" data-name="Group 3950" transform="translate(41.05 122.505)">
      <g id="Group_3949" data-name="Group 3949">
        <g id="Group_3947" data-name="Group 3947" transform="translate(0 0.91)">
          <path id="Path_4673" data-name="Path 4673" d="M-32.142,76.933V71.022a2.7,2.7,0,0,0-2.745-2.646H-52.752A2.692,2.692,0,0,1-55.49,65.73V59.78a2.583,2.583,0,0,1,.508-1.531l20.215-27.38a2.766,2.766,0,0,1,2.237-1.108h8.069a2.693,2.693,0,0,1,2.745,2.646V56.962a2.7,2.7,0,0,0,2.745,2.652h.409a2.676,2.676,0,0,1,2.718,2.942l-.409,3.47a2.7,2.7,0,0,1-2.718,2.349h0a2.7,2.7,0,0,0-2.745,2.646v5.911a2.7,2.7,0,0,1-2.745,2.646H-29.4A2.7,2.7,0,0,1-32.142,76.933Zm0-26.192v-1.59a2.759,2.759,0,0,0-5.04-1.445c-1.7,2.514-3.582,5.205-5.4,7.765a2.645,2.645,0,0,0,2.263,4.143h5.436a2.7,2.7,0,0,0,2.745-2.652Z" transform="translate(55.49 -29.761)" fill="#ffb12f"/>
        </g>
        <g id="Group_3948" data-name="Group 3948" transform="translate(46.585)">
          <path id="Path_4674" data-name="Path 4674" d="M-8.765,55.129c0,13.7-4.513,26.126-19.839,26.126-15.141,0-19.825-12.021-19.825-25.816,0-13.657,5.2-25.816,20.063-25.816C-13.977,29.623-8.765,40.984-8.765,55.129Zm-28.085.185c0,9.157,1.082,17.312,8.385,17.312,7.132,0,8.062-7.62,8.062-17.431,0-9.672-1.207-16.942-7.957-16.942C-34.95,38.253-36.85,44.527-36.85,55.314Z" transform="translate(48.429 -29.623)" fill="#ffb12f"/>
        </g>
      </g>
    </g>
    <path id="Path_4675" data-name="Path 4675" d="M175.8,39.7a2.379,2.379,0,0,1-2.388,2.388H-59.33A2.374,2.374,0,0,1-61.712,39.7a2.374,2.374,0,0,1,2.382-2.388H173.409A2.379,2.379,0,0,1,175.8,39.7Z" transform="translate(61.712 135.938)" fill="#7cb2ff"/>
    <g id="Group_3953" data-name="Group 3953" transform="translate(89.011 18.657)">
      <g id="Group_3951" data-name="Group 3951" transform="translate(0 2.06)">
        <path id="Path_4676" data-name="Path 4676" d="M-47.394,30.994a.823.823,0,0,1-.693-.376.823.823,0,0,1,.244-1.141c.818-.534,20.241-13.169,34.083-15.267a.794.794,0,0,1,.937.693.83.83,0,0,1-.693.937C-27,17.878-46.74,30.73-46.945,30.855A.814.814,0,0,1-47.394,30.994Z" transform="translate(48.22 -14.195)" fill="#fff"/>
      </g>
      <g id="Group_3952" data-name="Group 3952" transform="translate(37.054)">
        <path id="Path_4677" data-name="Path 4677" d="M-42.281,16.651l-.323-1.616,5.641-1.135a.834.834,0,0,1,.97.647.817.817,0,0,1-.647.97Z" transform="translate(42.604 -13.882)" fill="#fff"/>
      </g>
    </g>
    <path id="Path_4678" data-name="Path 4678" d="M-7.942,31.857c0,2.111-9.368,3.761-20.848,3.761-10.028,0-18.473-1.254-20.452-2.969A147.406,147.406,0,0,1-21.071,28.36C-13.418,28.954-7.942,30.273-7.942,31.857Z" transform="translate(131.513 85.812)" fill="#c6d5e0"/>
    <path id="Path_4679" data-name="Path 4679" d="M-37.1,27.608l3-.614a1.356,1.356,0,0,0,0-2.646l-3-.614a7.567,7.567,0,0,1-5.859-5.964l-.607-3.048a1.322,1.322,0,0,0-2.6,0l-.607,3.048a7.574,7.574,0,0,1-5.865,5.964l-3,.614a1.354,1.354,0,0,0,0,2.646l3,.614a7.583,7.583,0,0,1,5.865,5.964l.607,3.048a1.322,1.322,0,0,0,2.6,0l.607-3.048A7.584,7.584,0,0,1-37.1,27.608Z" transform="translate(89.816 3.443)" fill="#ffd875"/>
    <path id="Path_4680" data-name="Path 4680" d="M-20.869,37.128l1.5-.31a.676.676,0,0,0,0-1.319l-1.5-.31a3.791,3.791,0,0,1-2.936-2.982l-.3-1.524a.661.661,0,0,0-1.3,0l-.3,1.524a3.775,3.775,0,0,1-2.929,2.982l-1.5.31a.674.674,0,0,0,0,1.319l1.5.31A3.775,3.775,0,0,1-25.712,40.1l.3,1.524a.66.66,0,0,0,1.3,0l.3-1.524A3.792,3.792,0,0,1-20.869,37.128Z" transform="translate(235.452 95.794)" fill="#ffd875"/>
    <path id="Path_4681" data-name="Path 4681" d="M-47.254,35.828l1.5-.3a.676.676,0,0,0,0-1.32l-1.5-.31a3.8,3.8,0,0,1-2.936-2.982l-.3-1.524a.661.661,0,0,0-1.3,0l-.3,1.524a3.783,3.783,0,0,1-2.929,2.982l-1.5.31a.674.674,0,0,0,0,1.32l1.5.3A3.792,3.792,0,0,1-52.1,38.81l.3,1.524a.661.661,0,0,0,1.3,0l.3-1.524A3.809,3.809,0,0,1-47.254,35.828Z" transform="translate(87.763 88.551)" fill="#ffd875"/>
    <g id="Group_3955" data-name="Group 3955" transform="translate(91.476 78.571)">
      <g id="Group_3954" data-name="Group 3954">
        <path id="Path_4682" data-name="Path 4682" d="M-44.173,26.858a1.044,1.044,0,0,1-1.478-.073l-1.867-2.065a1.053,1.053,0,0,1,.073-1.484,1.052,1.052,0,0,1,1.484.073l1.867,2.065A1.047,1.047,0,0,1-44.173,26.858Z" transform="translate(48.163 -22.964)" fill="#7cb2ff"/>
        <path id="Path_4683" data-name="Path 4683" d="M-43.406,27.695a1.052,1.052,0,0,1-1.484-.073l-1.867-2.065a1.045,1.045,0,0,1,.073-1.478,1.046,1.046,0,0,1,1.484.073l1.867,2.058A1.052,1.052,0,0,1-43.406,27.695Z" transform="translate(52.423 -18.253)" fill="#7cb2ff"/>
        <path id="Path_4684" data-name="Path 4684" d="M-43.182,24.847l-2.065,1.867a1.052,1.052,0,0,1-1.484-.073,1.053,1.053,0,0,1,.073-1.484l2.072-1.867a1.053,1.053,0,0,1,1.484.073A1.053,1.053,0,0,1-43.182,24.847Z" transform="translate(52.569 -22.662)" fill="#7cb2ff"/>
        <path id="Path_4685" data-name="Path 4685" d="M-44.022,25.61l-2.072,1.867a1.052,1.052,0,0,1-1.484-.073A1.053,1.053,0,0,1-47.5,25.92l2.065-1.867a1.053,1.053,0,0,1,1.484.073A1.053,1.053,0,0,1-44.022,25.61Z" transform="translate(47.847 -18.391)" fill="#7cb2ff"/>
      </g>
    </g>
    <g id="Group_3957" data-name="Group 3957" transform="translate(213.354 46.986)">
      <g id="Group_3956" data-name="Group 3956">
        <path id="Path_4686" data-name="Path 4686" d="M-24.172,23.683a1.483,1.483,0,0,1-2.1-.1l-2.639-2.923a1.483,1.483,0,0,1,.106-2.1,1.485,1.485,0,0,1,2.1.106l2.639,2.916A1.484,1.484,0,0,1-24.172,23.683Z" transform="translate(29.821 -18.176)" fill="#7cb2ff"/>
        <path id="Path_4687" data-name="Path 4687" d="M-23.09,24.875a1.491,1.491,0,0,1-2.1-.1l-2.639-2.923a1.489,1.489,0,0,1,.106-2.1,1.491,1.491,0,0,1,2.1.1l2.639,2.923A1.489,1.489,0,0,1-23.09,24.875Z" transform="translate(35.852 -11.51)" fill="#7cb2ff"/>
        <path id="Path_4688" data-name="Path 4688" d="M-22.767,20.843-25.7,23.489a1.477,1.477,0,0,1-2.1-.106,1.483,1.483,0,0,1,.106-2.1l2.929-2.646a1.483,1.483,0,0,1,2.1.1A1.5,1.5,0,0,1-22.767,20.843Z" transform="translate(36.057 -17.752)" fill="#7cb2ff"/>
        <path id="Path_4689" data-name="Path 4689" d="M-23.961,21.923l-2.929,2.646a1.483,1.483,0,0,1-2.1-.1,1.491,1.491,0,0,1,.106-2.1l2.929-2.646a1.477,1.477,0,0,1,2.1.106A1.489,1.489,0,0,1-23.961,21.923Z" transform="translate(29.373 -11.706)" fill="#7cb2ff"/>
      </g>
    </g>
    <g id="Group_3959" data-name="Group 3959" transform="translate(2.809 71.698)">
      <g id="Group_3958" data-name="Group 3958">
        <path id="Path_4690" data-name="Path 4690" d="M-56.085,27.43a1.489,1.489,0,0,1-2.1-.106l-2.639-2.916a1.491,1.491,0,0,1,.106-2.1,1.489,1.489,0,0,1,2.1.106l2.646,2.916A1.492,1.492,0,0,1-56.085,27.43Z" transform="translate(61.734 -21.922)" fill="#7cb2ff"/>
        <path id="Path_4691" data-name="Path 4691" d="M-55.01,28.621a1.489,1.489,0,0,1-2.1-.106L-59.747,25.6a1.5,1.5,0,0,1,.106-2.1,1.5,1.5,0,0,1,2.1.106l2.639,2.916A1.492,1.492,0,0,1-55.01,28.621Z" transform="translate(67.765 -15.255)" fill="#7cb2ff"/>
        <path id="Path_4692" data-name="Path 4692" d="M-54.68,24.584l-2.929,2.646a1.483,1.483,0,0,1-2.1-.1,1.483,1.483,0,0,1,.106-2.1l2.929-2.652a1.489,1.489,0,0,1,2.1.106A1.489,1.489,0,0,1-54.68,24.584Z" transform="translate(67.97 -21.497)" fill="#7cb2ff"/>
        <path id="Path_4693" data-name="Path 4693" d="M-55.881,25.664-58.8,28.316a1.489,1.489,0,0,1-2.1-.106,1.483,1.483,0,0,1,.106-2.1l2.929-2.652a1.489,1.489,0,0,1,2.1.106A1.484,1.484,0,0,1-55.881,25.664Z" transform="translate(61.286 -15.451)" fill="#7cb2ff"/>
      </g>
    </g>
    <g id="Group_3961" data-name="Group 3961" transform="translate(112.052 48.827)" opacity="0.2">
      <g id="Group_3960" data-name="Group 3960">
        <path id="Path_4694" data-name="Path 4694" d="M68,138.243h0a.536.536,0,0,0-.139-.33L18.364,20.28s-.772-3.061-24.4-1.254c-24.424,1.874-25.1,5.39-25.1,5.39L-44.715,138.144l-.013.1c0,2.19,17.424,4.038,41.181,4.6,4.829.112,9.923.178,15.187.178,6.749,0,13.228-.106,19.232-.284C52.532,142.07,68,140.308,68,138.243Z" transform="translate(44.728 -18.455)" fill="#fff"/>
      </g>
    </g>
    <g id="Group_3963" data-name="Group 3963" transform="translate(125.642 48.827)" opacity="0.5">
      <g id="Group_3962" data-name="Group 3962">
        <path id="Path_4695" data-name="Path 4695" d="M19.342,142.736c-6,.178-12.482.284-19.232.284-5.265,0-10.358-.066-15.187-.178l-2.131-9.137L-42.668,24.417s.68-3.516,25.11-5.39C6.061,17.219,6.833,20.28,6.833,20.28L18.425,133.73Z" transform="translate(42.668 -18.455)" fill="#fff"/>
      </g>
    </g>
  </g>
</svg>
