<svg id="Button" xmlns="http://www.w3.org/2000/svg" width="280" height="84" viewBox="0 0 280 84">
  <rect id="Backgound" width="280" height="84" rx="3" fill="#151515"/>
  <text id="Download_on_the" data-name="Download on the" transform="translate(153 30)" fill="#fff" font-size="16" font-family="Montserrat-Regular, Montserrat"><tspan x="-69.392" y="0">Download on the</tspan></text>
  <text id="App_Store" data-name="App Store" transform="translate(84 63)" fill="#fff" font-size="28" font-family="Montserrat-Regular, Montserrat"><tspan x="0" y="0">App Store</tspan></text>
  <path id="Apple_Logo" data-name="Apple Logo" d="M384.253-5120.4c-4.289-6.2-7.566-17.516-3.164-25.152a12.216,12.216,0,0,1,10.327-6.261c3.223-.057,6.268,2.175,8.235,2.175s5.672-2.684,9.558-2.289a11.658,11.658,0,0,1,9.129,4.943,11.306,11.306,0,0,0-5.39,9.51,11.027,11.027,0,0,0,6.7,10.095,27.651,27.651,0,0,1-3.458,7.1c-2.08,3.04-4.237,6.065-7.637,6.128-3.345.064-4.418-1.981-8.242-1.981s-5.016,1.921-8.179,2.046l-.175,0C388.763-5114.085,386.313-5117.426,384.253-5120.4Zm15.007-32.1a10.463,10.463,0,0,1,2.648-7.723,11.192,11.192,0,0,1,7.354-3.781,11.01,11.01,0,0,1-2.6,7.97,9.472,9.472,0,0,1-6.9,3.554C399.6-5152.478,399.427-5152.484,399.26-5152.5Z" transform="translate(-358.332 5180.586)" fill="#fff"/>
</svg>
