<svg xmlns="http://www.w3.org/2000/svg" width="96.961" height="132.959" viewBox="0 0 96.961 132.959">
  <path id="Path_3426" data-name="Path 3426" d="M372.664,391.118c7.4,4.5,15.111,5.722,22.913,3.394,1.717-.513,2.464,3.437.731,4.164a28.517,28.517,0,0,1-12.376,2.313c11.03,7.493,20.539,20.406,27.662,35.509,9.254,19.625,16.242,47.761,13.723,72.523-.369,3.632-4.366,3.684-4.7,0-1.082-11.822-1.454-23.37-3.7-34.909a149.75,149.75,0,0,0-9.8-32.031,105.234,105.234,0,0,0-27.96-37.5,51.537,51.537,0,0,1,1.625,16.582c-.342,5.2-5.441,5.423-5.281,0,.274-9.259-1.045-17.256-4.9-24.482C369.393,394.422,370.488,389.794,372.664,391.118Z" transform="translate(-151.44 -501.064) rotate(22)" fill="#0f0f0f"/>
</svg>
