<svg id="_876762" data-name="876762" xmlns="http://www.w3.org/2000/svg" width="47.341" height="47.341" viewBox="0 0 47.341 47.341">
  <g id="Group_1601" data-name="Group 1601">
    <path id="Path_2528" data-name="Path 2528" d="M23.67,0A23.7,23.7,0,0,0,0,23.67v18.6a5.072,5.072,0,0,0,5.072,5.072h6.763a1.691,1.691,0,0,0,1.691-1.691V28.743a1.691,1.691,0,0,0-1.691-1.691H5.072a5.017,5.017,0,0,0-1.691.311V23.67a20.289,20.289,0,0,1,40.578,0v3.693a5.014,5.014,0,0,0-1.691-.311H35.506a1.691,1.691,0,0,0-1.691,1.691V45.65a1.691,1.691,0,0,0,1.691,1.691h6.763a5.072,5.072,0,0,0,5.072-5.072V23.67A23.7,23.7,0,0,0,23.67,0ZM5.072,30.433h5.072V43.959H5.072a1.691,1.691,0,0,1-1.691-1.691V32.124A1.691,1.691,0,0,1,5.072,30.433ZM43.959,42.269a1.691,1.691,0,0,1-1.691,1.691H37.2V30.433h5.072a1.691,1.691,0,0,1,1.691,1.691Z" fill="#fff"/>
  </g>
</svg>
