<svg id="_876762" data-name="876762" xmlns="http://www.w3.org/2000/svg" width="171.987" height="171.987" viewBox="0 0 171.987 171.987">
  <g id="Group_1601" data-name="Group 1601">
    <path id="Path_2528" data-name="Path 2528" d="M85.993,0A86.086,86.086,0,0,0,0,85.993V153.56a18.427,18.427,0,0,0,18.427,18.427H43a6.142,6.142,0,0,0,6.143-6.143V104.421A6.142,6.142,0,0,0,43,98.278H18.427a18.226,18.226,0,0,0-6.143,1.13V85.993a73.709,73.709,0,1,1,147.418,0V99.408a18.215,18.215,0,0,0-6.143-1.13H128.99a6.142,6.142,0,0,0-6.143,6.143v61.424a6.142,6.142,0,0,0,6.143,6.143h24.57a18.427,18.427,0,0,0,18.427-18.427V85.993A86.086,86.086,0,0,0,85.993,0ZM18.427,110.563H36.854V159.7H18.427a6.142,6.142,0,0,1-6.143-6.143V116.705A6.142,6.142,0,0,1,18.427,110.563Zm141.275,43a6.142,6.142,0,0,1-6.143,6.143H135.133V110.563H153.56a6.142,6.142,0,0,1,6.143,6.143Z" fill="#383838"/>
  </g>
</svg>
