<svg xmlns="http://www.w3.org/2000/svg" width="56" height="51" viewBox="0 0 56 51">
  <path id="Union_69" data-name="Union 69" d="M3.281,51A3.3,3.3,0,0,1,0,47.688V22.74a3.3,3.3,0,0,1,3.281-3.312H27.574c1.244-.741,5.785-3.8,5.785-8.942,0-2.8.331-6.274,2.913-8.358C38.145.617,40.818,0,45.5,0a1.656,1.656,0,0,1,0,3.312c-3.762,0-5.976.433-7.178,1.4-.783.632-1.681,1.859-1.681,5.772a12.767,12.767,0,0,1-3.8,8.942H52.719A3.3,3.3,0,0,1,56,22.74V47.688A3.3,3.3,0,0,1,52.719,51Zm12.578-8.721A1.648,1.648,0,0,0,17.5,43.935h21a1.656,1.656,0,0,0,0-3.312h-21A1.648,1.648,0,0,0,15.859,42.279Z" fill="#fff"/>
</svg>
