<svg xmlns="http://www.w3.org/2000/svg" width="1904.892" height="437.912" viewBox="0 0 1904.892 437.912"><g transform="translate(-10073.096 -1352.588)"><path d="M874.474,791.394h0c50.592-3.47,97.838-52.744,101.306-103.338h0c3.373,50.593,51.431,99.868,102.025,103.338h0c-50.593,3.47-99.063,49.4-102.341,100.091h0C972,840.8,925.065,794.864,874.474,791.394Z" transform="translate(9198.622 664.531)" fill="#fff"/><path d="M-653.6-190.979h31.392l-15.762-148.554ZM-852.987,0l83.406-436.862h263.746L-422.43,0H-600.8l-10.9-94.7h-52.933L-675.011,0Zm648.474-338.352H-228.55v87.215H-205.3q13.266,0,19.111-7.027t5.845-24.234v-24.3q0-17.207-5.648-24.431T-204.514-338.352Zm-24.037,211.47V0H-406.92V-436.862h291.592q30.6,0,52.079,5.385T-28.114-414.8a64.525,64.525,0,0,1,19.9,29.291q6.239,17.995,6.239,42.819V-257.7q0,59.238-25.35,82.355-9.851,9.326-26.138,14.974Q-3.42-126.75-3.158,0h-178.37Q-181.79-127.013-228.55-126.882ZM109.418,0V-337.3H13.534v-99.562H390.5V-337.3H294.749V0ZM539.461-.263v-165.1L406.011-437.125H581.623l47.811,104.947L677.77-437.125H852.987L719.538-165.367V-.263Z" transform="translate(11125 1790.5)" fill="#fff"/></g></svg>