<svg xmlns="http://www.w3.org/2000/svg" width="180.136" height="57.337" viewBox="0 0 180.136 57.337">
  <g id="Group_1589" data-name="Group 1589" transform="translate(-861.253 -681.642)">
    <rect id="Rectangle_1614" data-name="Rectangle 1614" width="180.136" height="57.337" transform="translate(861.253 681.642)" fill="#0f0f0f"/>
    <path id="Path_2323" data-name="Path 2323" d="M874.473,697.856v-1.292a9.161,9.161,0,0,0,8.5-8.507h1.3a9.154,9.154,0,0,0,8.5,8.507v1.292a9.14,9.14,0,0,0-8.5,8.507h-1.3A9.154,9.154,0,0,0,874.473,697.856Z" transform="translate(-1.756 -0.852)" fill="#fff"/>
    <path id="Path_2324" data-name="Path 2324" d="M897.592,688.057h18.817v35.2c0,4.093-.876,6.955-2.593,8.576q-2.6,2.432-9.348,2.437h-18.54a20.878,20.878,0,0,1-5.333-.59,7.93,7.93,0,0,1-3.538-1.925,7.727,7.727,0,0,1-1.977-3.417,18.369,18.369,0,0,1-.607-5.082V714.61h18.3l.017,5.923a4.249,4.249,0,0,0,.555,2.523,2.113,2.113,0,0,0,1.8.763,2.2,2.2,0,0,0,1.882-.763,4.285,4.285,0,0,0,.59-2.523Z" transform="translate(-1.756 -0.852)" fill="#fff"/>
    <path id="Path_2325" data-name="Path 2325" d="M962.451,688.057l8.75,45.864H952.479l-1.145-9.938h-5.55l-1.093,9.938H926.013l8.75-45.864Z" transform="translate(-8.603 -0.852)" fill="#fff"/>
    <path id="Path_2326" data-name="Path 2326" d="M1045.863,688.057v45.864H1027.2V708.678l-7.744,25.243h-11.741l-7.779-25.243v25.243H981.3V688.057h26.474l5.784,19.026,5.767-19.026Z" transform="translate(-15.947 -0.852)" fill="#fff"/>
  </g>
</svg>
