<svg xmlns="http://www.w3.org/2000/svg" width="123.906" height="39.256" viewBox="0 0 123.906 39.256">
  <g id="Group_2047" data-name="Group 2047" transform="translate(-126 -58)">
    <path id="Path_2323" data-name="Path 2323"
      d="M874.473,694.253v-.817a5.793,5.793,0,0,0,5.374-5.379h.823a5.788,5.788,0,0,0,5.374,5.379v.817a5.779,5.779,0,0,0-5.374,5.379h-.823A5.788,5.788,0,0,0,874.473,694.253Z"
      transform="translate(-741.274 -623.539)" fill="#fff" />
    <path id="Path_3648" data-name="Path 3648"
      d="M-37.661-11h1.809l-.908-8.56ZM-49.15,0l4.806-25.172h15.2L-24.341,0H-34.619l-.628-5.457H-38.3L-38.895,0Zm37.366-19.5h-1.385v5.025h1.34a1.356,1.356,0,0,0,1.1-.4,2.216,2.216,0,0,0,.337-1.4v-1.4a2.33,2.33,0,0,0-.325-1.408A1.273,1.273,0,0,0-11.784-19.5ZM-13.169-7.311V0H-23.447V-25.172h16.8a12.507,12.507,0,0,1,3,.31A5.061,5.061,0,0,1-1.62-23.9,3.718,3.718,0,0,1-.473-22.213a7.553,7.553,0,0,1,.359,2.467v4.9q0,3.413-1.461,4.745a4.121,4.121,0,0,1-1.506.863Q-.2-7.3-.182,0H-10.46Q-10.475-7.319-13.169-7.311ZM6.3,0V-19.436H.78v-5.737H22.5v5.737H16.984V0ZM31.084-.015V-9.529L23.395-25.187H33.514l2.755,6.047,2.785-6.047h10.1L41.46-9.529V-.015Z"
      transform="translate(193.801 90)" fill="#fff" />
  </g>
</svg>