<svg xmlns="http://www.w3.org/2000/svg" width="49.411" height="47.917" viewBox="0 0 49.411 47.917">
  <g id="_1828378" data-name="1828378" transform="translate(-9.174 -9.183)">
    <path id="Path_3597" data-name="Path 3597" d="M117.373,110.077a7.323,7.323,0,0,1,7.345,6.7,1.841,1.841,0,1,0,3.668-.319,11.066,11.066,0,1,0-12.057,12.031,1.156,1.156,0,0,0,.173.009,1.842,1.842,0,0,0,.164-3.677,7.387,7.387,0,0,1,.708-14.741Z" transform="translate(-97.126 -97.217)" fill="#fff"/>
    <path id="Path_3598" data-name="Path 3598" d="M289.056,274.042c-1.07-1.786-1.864-3.116-2.52-4.2l-.017-.035c-1.726-2.883-2.373-3.961-4.307-7.155a4.26,4.26,0,0,0-5.8-1.553l-.043.026A4.018,4.018,0,0,0,275,262.469a4.168,4.168,0,0,0-3.953.129,4.1,4.1,0,0,0-1.519,1.623,4.073,4.073,0,0,0-3.521.311l-.052.035a4.155,4.155,0,0,0-.88.716l-3.5-5.826a4.186,4.186,0,1,0-7.172,4.307l5.334,8.889-1.484,5.256a4.929,4.929,0,0,0,1.717,5.256l9.718,7.595a1.164,1.164,0,0,0,.181.112,8.99,8.99,0,0,0,4.669,1.32,8.376,8.376,0,0,0,4.367-1.208l7.4-4.453A9.074,9.074,0,0,0,289.056,274.042Zm-17.6,14.266-9.649-7.526a1.9,1.9,0,0,1-.665-2.045l.708-2.52,1.821,3.038a1.52,1.52,0,0,0,2.037.544l.035-.017a1.522,1.522,0,0,0,.518-2.071l-3.616-6.041-5.67-9.442a1.279,1.279,0,0,1,.3-1.743,1.084,1.084,0,0,1,.872-.095,1.4,1.4,0,0,1,.811.647l5.61,9.33.017.035a.791.791,0,0,0,.043.069.181.181,0,0,0,.035.052l2.391,3.979a1.51,1.51,0,0,0,2.589-1.553l-2.468-4.108a1.3,1.3,0,0,1-.164-.958,1.058,1.058,0,0,1,.483-.7l.052-.035a1.26,1.26,0,0,1,1.674.57l2.192,3.651A1.51,1.51,0,0,0,274,269.813l-1.717-2.865a1.436,1.436,0,0,1-.19-1.018,1.044,1.044,0,0,1,1.364-.82,1.4,1.4,0,0,1,.811.647l1.623,2.7a1.51,1.51,0,1,0,2.589-1.553l-.88-1.467a1.364,1.364,0,0,1-.181-.993,1.078,1.078,0,0,1,.492-.708l.052-.035a1.246,1.246,0,0,1,1.666.535c1.881,3.107,2.555,4.229,4.177,6.939l.9,1.5c.492.829,1.07,1.786,1.761,2.943a6.048,6.048,0,0,1-1.726,8.354l-7.4,4.419A5.706,5.706,0,0,1,271.458,288.309Z" transform="translate(-231.852 -235.093)" fill="#fff"/>
  </g>
</svg>
