<svg xmlns="http://www.w3.org/2000/svg" width="18.687" height="18.687" viewBox="0 0 18.687 18.687">
  <path id="Path_4536" data-name="Path 4536" d="M1218.344,112a9.344,9.344,0,1,0,9.344,9.344A9.344,9.344,0,0,0,1218.344,112Zm4.558,13.469a.814.814,0,0,1-1.107.312,9.789,9.789,0,0,0-7.734-.781.812.812,0,1,1-.494-1.548,11.412,11.412,0,0,1,9.022.912A.811.811,0,0,1,1222.9,125.469Zm1.119-2.838a.811.811,0,0,1-.721.437.8.8,0,0,1-.375-.092,12.813,12.813,0,0,0-9.427-.945.813.813,0,0,1-.45-1.562,14.435,14.435,0,0,1,10.629,1.066A.813.813,0,0,1,1224.021,122.631Zm.4-2.361a.818.818,0,0,1-.362-.085,15.837,15.837,0,0,0-11.1-1.124.813.813,0,0,1-.418-1.57,17.465,17.465,0,0,1,12.242,1.239.812.812,0,0,1-.362,1.54Z" transform="translate(-1209 -112)" fill="#1ed760"/>
</svg>
