<svg xmlns="http://www.w3.org/2000/svg" xmlns:xlink="http://www.w3.org/1999/xlink" width="26.703" height="18.692" viewBox="0 0 26.703 18.692">
  <defs>
    <clipPath id="clip-path">
      <rect id="Rectangle_2900" data-name="Rectangle 2900" width="26.703" height="18.692" fill="none"/>
    </clipPath>
  </defs>
  <g id="Group_3780" data-name="Group 3780" transform="translate(0)">
    <g id="Group_3779" data-name="Group 3779" transform="translate(0 0)" clip-path="url(#clip-path)">
      <path id="Path_4537" data-name="Path 4537" d="M26.145,2.919A3.344,3.344,0,0,0,23.784.558C21.7,0,13.351,0,13.351,0S5,0,2.919.558A3.344,3.344,0,0,0,.558,2.919,34.758,34.758,0,0,0,0,9.346a34.756,34.756,0,0,0,.558,6.427,3.344,3.344,0,0,0,2.361,2.361c2.082.558,10.433.558,10.433.558s8.35,0,10.433-.558a3.344,3.344,0,0,0,2.361-2.361A34.743,34.743,0,0,0,26.7,9.346a34.744,34.744,0,0,0-.558-6.427" transform="translate(0 0)" fill="red"/>
      <path id="Path_4538" data-name="Path 4538" d="M48.594,32.308,55.531,28.3,48.594,24.3Z" transform="translate(-37.913 -18.957)" fill="#fff"/>
    </g>
  </g>
</svg>
