<svg xmlns="http://www.w3.org/2000/svg" xmlns:xlink="http://www.w3.org/1999/xlink" width="54" height="82" viewBox="0 0 54 82">
  <defs>
    <clipPath id="clip-path">
      <rect id="Rectangle_2758" data-name="Rectangle 2758" width="54" height="82" transform="translate(0.268 -0.098)" fill="none"/>
    </clipPath>
  </defs>
  <g id="Group_3559" data-name="Group 3559" transform="translate(-0.268 0.098)">
    <g id="Group_3558" data-name="Group 3558" clip-path="url(#clip-path)">
      <path id="Path_4428" data-name="Path 4428" d="M25.18,30.454H17V27.727A2.726,2.726,0,0,1,19.727,25h2.727a2.726,2.726,0,0,1,2.727,2.727Z" transform="translate(6.178 9.085)" fill="#707172"/>
      <path id="Path_4429" data-name="Path 4429" d="M30.361,37.18H14V31.727A2.726,2.726,0,0,1,16.727,29H27.634a2.726,2.726,0,0,1,2.727,2.727Z" transform="translate(5.088 10.539)" fill="#707172"/>
      <path id="Path_4430" data-name="Path 4430" d="M52.81,60.268H1V57.541A24.542,24.542,0,0,1,25.541,33h2.727A24.542,24.542,0,0,1,52.81,57.541Z" transform="translate(0.363 11.993)" fill="#f68955"/>
      <path id="Path_4431" data-name="Path 4431" d="M21.817,61.18h0A6.818,6.818,0,0,1,15,54.363V53H28.634v1.363a6.818,6.818,0,0,1-6.817,6.817" transform="translate(5.451 19.261)" fill="#ffcb4f"/>
      <path id="Path_4432" data-name="Path 4432" d="M36.812,44.973V42.266a4.1,4.1,0,0,0-4.09-4.09V36.812a4.1,4.1,0,0,0-4.09-4.09V0H25.9V32.722a4.1,4.1,0,0,0-4.09,4.09v1.363a4.1,4.1,0,0,0-4.09,4.09v2.708A25.938,25.938,0,0,0,0,69.534v2.727a1.363,1.363,0,0,0,1.363,1.363H19.088a8.18,8.18,0,1,0,16.361,0H53.173a1.363,1.363,0,0,0,1.363-1.363V69.534a25.938,25.938,0,0,0-17.724-24.56M24.541,36.812A1.365,1.365,0,0,1,25.9,35.449h2.727A1.365,1.365,0,0,1,30,36.812v1.363H24.541Zm-4.09,5.454A1.365,1.365,0,0,1,21.815,40.9H32.722a1.365,1.365,0,0,1,1.363,1.363v1.952a25.864,25.864,0,0,0-5.454-.589H25.9a25.864,25.864,0,0,0-5.454.589Zm6.817,36.812a5.459,5.459,0,0,1-5.454-5.454H32.722a5.459,5.459,0,0,1-5.454,5.454M51.81,70.9H2.727V69.534A23.2,23.2,0,0,1,25.9,46.356h2.727A23.2,23.2,0,0,1,51.81,69.534Z"/>
      <path id="Path_4433" data-name="Path 4433" d="M24.733,38.206a19.141,19.141,0,0,1,7.871,4.4l1.854-2a21.879,21.879,0,0,0-9-5.03Z" transform="translate(8.988 12.929)"/>
    </g>
  </g>
</svg>
