<svg id="Group_3457" data-name="Group 3457" xmlns="http://www.w3.org/2000/svg" xmlns:xlink="http://www.w3.org/1999/xlink" width="215.552" height="225.138" viewBox="0 0 215.552 225.138">
  <defs>
    <clipPath id="clip-path">
      <rect id="Rectangle_2626" data-name="Rectangle 2626" width="215.552" height="225.138" fill="none"/>
    </clipPath>
    <clipPath id="clip-path-2">
      <rect id="Rectangle_2625" data-name="Rectangle 2625" width="243.552" height="225.137" fill="none"/>
    </clipPath>
    <clipPath id="clip-path-3">
      <rect id="Rectangle_2550" data-name="Rectangle 2550" width="51.237" height="61.131" fill="none"/>
    </clipPath>
    <clipPath id="clip-path-4">
      <rect id="Rectangle_2558" data-name="Rectangle 2558" width="21.754" height="10.897" fill="none"/>
    </clipPath>
    <clipPath id="clip-path-5">
      <rect id="Rectangle_2601" data-name="Rectangle 2601" width="22.205" height="27.894" fill="none"/>
    </clipPath>
    <clipPath id="clip-path-6">
      <rect id="Rectangle_2602" data-name="Rectangle 2602" width="48.971" height="40.232" fill="none"/>
    </clipPath>
    <clipPath id="clip-path-7">
      <rect id="Rectangle_2617" data-name="Rectangle 2617" width="48.566" height="31.049" fill="none"/>
    </clipPath>
    <clipPath id="clip-path-8">
      <rect id="Rectangle_2618" data-name="Rectangle 2618" width="17.911" height="10.485" fill="none"/>
    </clipPath>
  </defs>
  <g id="Group_3241" data-name="Group 3241" clip-path="url(#clip-path)">
    <g id="Group_3240" data-name="Group 3240" transform="translate(0 0.001)">
      <g id="Group_3239" data-name="Group 3239" clip-path="url(#clip-path-2)">
        <path id="Path_4167" data-name="Path 4167" d="M335.075,2.284a2.28,2.28,0,0,0-4.559,0,2.243,2.243,0,0,0,1.1,1.9v36.43h2.533V4.072a2.238,2.238,0,0,0,.929-1.788" transform="translate(-264.619 -0.004)" fill="#f7941e"/>
        <path id="Path_4170" data-name="Path 4170" d="M335.461,171.154c-1.266-.253-36.475.253-36.475.253l-5.319-30.9s4.813.76,5.319-1.013.76-9.625-1.013-9.625-3.8-2.786-6.332.253-11.905,50.406-4.813,55.979,44.833,3.293,44.833,3.293Z" transform="translate(-227.558 -103.041)" fill="#fed4d5"/>
        <g id="Group_3160" data-name="Group 3160" transform="translate(56.667 25.681)" style="mix-blend-mode: overlay;isolation: isolate">
          <g id="Group_3159" data-name="Group 3159">
            <g id="Group_3158" data-name="Group 3158" clip-path="url(#clip-path-3)">
              <path id="Path_4171" data-name="Path 4171" d="M308.833,171.369c-2.377,4.413-6.482,10.226-11.661,10.3-8.359.127-9.752-1.14-9.752-7.472s2.66-42.68,6.333-45.34c.024-.017.054-.029.079-.046a3.436,3.436,0,0,0-2.19,1.4c-2.533,3.04-11.9,50.406-4.812,55.978s44.833,3.293,44.833,3.293l3.8-18.237c-.827-.165-16.11-.007-26.629.123" transform="translate(-284.226 -128.814)" fill="#231f20"/>
            </g>
          </g>
        </g>
        <path id="Path_4179" data-name="Path 4179" d="M498.971,649.1c-1.013,1.013-31.071,26.681-67.208-.338l-5.741-22.628L450,628.157h34.111l20.939-2.364Z" transform="translate(-341.084 -501.026)" fill="#2f3655"/>
        <path id="Path_4180" data-name="Path 4180" d="M548.679,389.464V337.285a9.625,9.625,0,0,0-9.625-9.625h-29.72a9.625,9.625,0,0,0-9.625,9.625v52.179Z" transform="translate(-400.079 -262.334)" fill="#3e4768"/>
        <path id="Path_4181" data-name="Path 4181" d="M770.805,695.027s13.171-52.348,6.417-59.44-12.158-6.079-17.562-1.689c-7.709,6.264,2.026,61.129,2.026,61.129Z" transform="translate(-605.825 -504.741)" fill="#fed4d5"/>
        <path id="Path_4182" data-name="Path 4182" d="M382.894,686.557s13.171-52.348,6.417-59.44-12.158-6.079-17.562-1.689c-7.709,6.264,2.026,61.129,2.026,61.129Z" transform="translate(-295.254 -497.96)" fill="#fed4d5"/>
        <path id="Path_4183" data-name="Path 4183" d="M575.181,268.677a3.31,3.31,0,0,0-.929.147v-4.58a6.459,6.459,0,0,0-6.459-6.459h-7.6a6.459,6.459,0,0,0-6.459,6.459v3.943a3.379,3.379,0,0,0-3.208,3.36v3.715a3.38,3.38,0,0,0,3.208,3.36V280.2a6.459,6.459,0,0,0,6.459,6.459h7.6a6.459,6.459,0,0,0,6.459-6.459V279a3.31,3.31,0,0,0,.929.147,3.387,3.387,0,0,0,3.377-3.377v-3.715a3.387,3.387,0,0,0-3.377-3.377" transform="translate(-440.766 -206.39)" fill="#fed4d5"/>
        <path id="Path_4184" data-name="Path 4184" d="M401.281,326.808c-.507,0,0,21.952,0,21.952h20.77s9.794-18.575,7.261-23.641Z" transform="translate(-321.095 -260.299)" fill="#2f3655"/>
        <path id="Path_4185" data-name="Path 4185" d="M797.917,918.139a3.711,3.711,0,0,0,.068-.676v-4.222a3.715,3.715,0,0,0-3.715-3.715h-1.182a3.715,3.715,0,0,0-3.715,3.715v4.222a3.711,3.711,0,0,0,.068.676Z" transform="translate(-631.992 -728.191)" fill="#ef4136"/>
        <path id="Path_4186" data-name="Path 4186" d="M783.807,947.613v-.76a8.106,8.106,0,0,0-8.106-8.105h-2.786a8.105,8.105,0,0,0-8.105,8.105v.76Z" transform="translate(-612.326 -751.586)" fill="#ef4136"/>
        <path id="Path_4187" data-name="Path 4187" d="M399.841,913.9a3.72,3.72,0,0,0,.068-.675v-4.222a3.715,3.715,0,0,0-3.715-3.715h-1.182a3.715,3.715,0,0,0-3.715,3.715v4.222a3.714,3.714,0,0,0,.068.675Z" transform="translate(-313.282 -724.801)" fill="#ef4136"/>
        <path id="Path_4188" data-name="Path 4188" d="M385.731,943.379v-.76a8.105,8.105,0,0,0-8.106-8.106h-2.786a8.106,8.106,0,0,0-8.105,8.106v.76Z" transform="translate(-293.616 -748.196)" fill="#ef4136"/>
        <g id="Group_3184" data-name="Group 3184" transform="translate(79.997 77.564)" opacity="0.59" style="mix-blend-mode: overlay;isolation: isolate">
          <g id="Group_3183" data-name="Group 3183">
            <g id="Group_3182" data-name="Group 3182" clip-path="url(#clip-path-4)">
              <path id="Path_4189" data-name="Path 4189" d="M401.237,389.04c.064,5.461.189,10.9.189,10.9H422.2s.312-.595.794-1.562c-9.7,1.873-17.933-5.424-21.754-9.334" transform="translate(-401.237 -389.04)" fill="#231f20"/>
            </g>
          </g>
        </g>
        <rect id="Rectangle_2559" data-name="Rectangle 2559" width="1.778" height="25.215" transform="translate(136.39 137.104)" fill="#fff"/>
        <rect id="Rectangle_2560" data-name="Rectangle 2560" width="3.771" height="2.366" transform="translate(135.367 161.241)" fill="#3e4768"/>
        <rect id="Rectangle_2561" data-name="Rectangle 2561" width="34.482" height="33.836" transform="translate(121.251 122.126)" fill="#2060d1"/>
        <rect id="Rectangle_2562" data-name="Rectangle 2562" width="37.068" height="5.388" transform="translate(119.957 119.647)" fill="#fff"/>
        <rect id="Rectangle_2563" data-name="Rectangle 2563" width="37.068" height="5.388" transform="translate(119.957 151.166)" fill="#fff"/>
        <rect id="Rectangle_2564" data-name="Rectangle 2564" width="1.94" height="29.417" transform="translate(124.914 123.527)" fill="#fff"/>
        <rect id="Rectangle_2565" data-name="Rectangle 2565" width="1.94" height="29.417" transform="translate(136.714 123.85)" fill="#fff"/>
        <rect id="Rectangle_2566" data-name="Rectangle 2566" width="1.94" height="29.417" transform="translate(148.674 123.527)" fill="#fff"/>
        <rect id="Rectangle_2567" data-name="Rectangle 2567" width="1.778" height="25.215" transform="translate(119.903 137.104)" fill="#fff"/>
        <rect id="Rectangle_2568" data-name="Rectangle 2568" width="3.771" height="2.366" transform="translate(118.88 161.241)" fill="#3e4768"/>
        <rect id="Rectangle_2569" data-name="Rectangle 2569" width="1.778" height="25.215" transform="translate(155.14 137.104)" fill="#fff"/>
        <rect id="Rectangle_2570" data-name="Rectangle 2570" width="3.771" height="2.366" transform="translate(154.116 161.241)" fill="#3e4768"/>
        <rect id="Rectangle_2571" data-name="Rectangle 2571" width="1.778" height="25.215" transform="translate(90.356 139.034)" fill="#fff"/>
        <rect id="Rectangle_2572" data-name="Rectangle 2572" width="3.771" height="2.366" transform="translate(89.333 163.171)" fill="#3e4768"/>
        <rect id="Rectangle_2573" data-name="Rectangle 2573" width="34.482" height="33.835" transform="translate(75.217 124.056)" fill="#2060d1"/>
        <rect id="Rectangle_2574" data-name="Rectangle 2574" width="37.068" height="5.388" transform="translate(73.923 121.577)" fill="#fff"/>
        <rect id="Rectangle_2575" data-name="Rectangle 2575" width="37.068" height="5.388" transform="translate(73.923 153.096)" fill="#fff"/>
        <rect id="Rectangle_2576" data-name="Rectangle 2576" width="1.94" height="29.417" transform="translate(78.88 125.457)" fill="#fff"/>
        <rect id="Rectangle_2577" data-name="Rectangle 2577" width="1.94" height="29.417" transform="translate(90.679 125.78)" fill="#fff"/>
        <rect id="Rectangle_2578" data-name="Rectangle 2578" width="1.94" height="29.417" transform="translate(102.64 125.457)" fill="#fff"/>
        <rect id="Rectangle_2579" data-name="Rectangle 2579" width="1.778" height="25.215" transform="translate(73.87 139.034)" fill="#fff"/>
        <rect id="Rectangle_2580" data-name="Rectangle 2580" width="3.771" height="2.366" transform="translate(72.846 163.171)" fill="#3e4768"/>
        <rect id="Rectangle_2581" data-name="Rectangle 2581" width="1.778" height="25.215" transform="translate(109.106 139.034)" fill="#fff"/>
        <rect id="Rectangle_2582" data-name="Rectangle 2582" width="3.772" height="2.366" transform="translate(108.082 163.171)" fill="#3e4768"/>
        <rect id="Rectangle_2583" data-name="Rectangle 2583" width="2.786" height="39.514" transform="translate(58.933 160.566)" fill="#fff"/>
        <rect id="Rectangle_2584" data-name="Rectangle 2584" width="5.91" height="3.708" transform="translate(57.329 198.391)" fill="#3e4768"/>
        <rect id="Rectangle_2585" data-name="Rectangle 2585" width="54.037" height="53.023" transform="translate(35.208 137.094)" fill="#7099ed"/>
        <rect id="Rectangle_2586" data-name="Rectangle 2586" width="58.089" height="8.443" transform="translate(33.181 133.21)" fill="#fff"/>
        <rect id="Rectangle_2587" data-name="Rectangle 2587" width="58.089" height="8.443" transform="translate(33.181 182.603)" fill="#fff"/>
        <rect id="Rectangle_2588" data-name="Rectangle 2588" width="3.039" height="46.1" transform="translate(40.949 139.289)" fill="#fff"/>
        <rect id="Rectangle_2589" data-name="Rectangle 2589" width="3.039" height="46.1" transform="translate(59.44 139.795)" fill="#fff"/>
        <rect id="Rectangle_2590" data-name="Rectangle 2590" width="3.039" height="46.1" transform="translate(78.184 139.289)" fill="#fff"/>
        <rect id="Rectangle_2591" data-name="Rectangle 2591" width="2.786" height="39.514" transform="translate(33.097 160.566)" fill="#fff"/>
        <rect id="Rectangle_2592" data-name="Rectangle 2592" width="5.91" height="3.708" transform="translate(31.492 198.391)" fill="#3e4768"/>
        <rect id="Rectangle_2593" data-name="Rectangle 2593" width="2.786" height="39.514" transform="translate(88.315 160.566)" fill="#fff"/>
        <rect id="Rectangle_2594" data-name="Rectangle 2594" width="5.91" height="3.708" transform="translate(86.711 198.391)" fill="#3e4768"/>
        <path id="Path_4190" data-name="Path 4190" d="M550.527,685.395l.76-7.937h22.881s26.681.675,30.4,33.773c0,0-.338,26.343-23.641,32.084L550.7,745.173Z" transform="translate(-440.766 -542.391)" fill="#7099ed"/>
        <path id="Path_4191" data-name="Path 4191" d="M452.744,711.147a33.688,33.688,0,1,1-33.688-33.688,33.689,33.689,0,0,1,33.688,33.688" transform="translate(-308.535 -542.391)" fill="#2948bd"/>
        <path id="Path_4192" data-name="Path 4192" d="M464.533,699.8H446.471a35.541,35.541,0,0,0-9.314-20.939h17.076v-1.52H435.695a35.7,35.7,0,1,0,.54,50.828h21.037v-1.52H437.616a35.526,35.526,0,0,0,9.017-23.641c0-.342-.042-.673-.051-1.013h17.951Zm-53.614,34.87a31.662,31.662,0,1,1,31.662-31.662,31.7,31.7,0,0,1-31.662,31.662" transform="translate(-300.398 -534.251)" fill="#fff"/>
        <path id="Path_4193" data-name="Path 4193" d="M784.772,908.835l13.636,13.636h3.841L783.7,903.917h-2.132l-18.712,18.712h3.683l13.609-13.609h.828v14.253h2.7V908.751Z" transform="translate(-610.758 -723.699)" fill="#7099ed"/>
        <rect id="Rectangle_2595" data-name="Rectangle 2595" width="6.206" height="2.913" transform="translate(150.753 198.265)" fill="#2f3655"/>
        <rect id="Rectangle_2596" data-name="Rectangle 2596" width="6.206" height="2.913" transform="translate(186.088 198.265)" fill="#2f3655"/>
        <rect id="Rectangle_2597" data-name="Rectangle 2597" width="6.206" height="2.913" transform="translate(168.484 198.265)" fill="#2f3655"/>
        <rect id="Rectangle_2598" data-name="Rectangle 2598" width="2.702" height="55.556" transform="translate(170.383 129.326)" fill="#7099ed"/>
        <path id="Path_4194" data-name="Path 4194" d="M788.5,625.738c0,2.308-10.66,4.18-23.81,4.18s-23.81-1.871-23.81-4.18,10.66-4.179,23.81-4.179,23.81,1.871,23.81,4.179" transform="translate(-593.17 -497.637)" fill="#f7941e"/>
        <rect id="Rectangle_2599" data-name="Rectangle 2599" width="1.393" height="19.63" transform="translate(170.51 105.558)" fill="#7099ed"/>
        <rect id="Rectangle_2600" data-name="Rectangle 2600" width="5.193" height="3.039" transform="translate(168.885 122.825)" fill="#2f3655"/>
        <path id="Path_4195" data-name="Path 4195" d="M792.7,594.487c0,1.888-10.6,3.42-23.683,3.42s-23.683-1.531-23.683-3.42,10.6-3.419,23.683-3.419S792.7,592.6,792.7,594.487" transform="translate(-596.73 -473.225)" fill="#f7941e"/>
        <g id="Group_3187" data-name="Group 3187" transform="translate(109.761 52.377)" style="mix-blend-mode: overlay;isolation: isolate">
          <g id="Group_3186" data-name="Group 3186">
            <g id="Group_3185" data-name="Group 3185" clip-path="url(#clip-path-5)">
              <path id="Path_4196" data-name="Path 4196" d="M557.789,287.141c-3.218-2.445-1.826-17.435-.981-24.433a6.436,6.436,0,0,0-3.072,5.477v3.943a3.379,3.379,0,0,0-3.208,3.36V279.2a3.379,3.379,0,0,0,3.208,3.36v1.579A6.459,6.459,0,0,0,560.2,290.6h7.6a6.416,6.416,0,0,0,4.938-2.342c-4.262.548-11.958,1.149-14.944-1.119" transform="translate(-550.528 -262.708)" fill="#231f20"/>
            </g>
          </g>
        </g>
        <g id="Group_3190" data-name="Group 3190" transform="translate(99.629 86.898)" opacity="0.64" style="mix-blend-mode: overlay;isolation: isolate">
          <g id="Group_3189" data-name="Group 3189">
            <g id="Group_3188" data-name="Group 3188" clip-path="url(#clip-path-6)">
              <path id="Path_4197" data-name="Path 4197" d="M511.361,467.478c5.91,1.858,16.211-6.079,16.211-6.079s-17.393-2.026-22.459-10.638-3.283-14.9-3.283-14.9l-2.121,1.8V476.09h17.263c-6.091-3.171-5.612-8.612-5.612-8.612" transform="translate(-499.71 -435.858)" fill="#231f20"/>
              <path id="Path_4198" data-name="Path 4198" d="M694.429,439.14s2.4,30.193-9.723,38.67h12.087v-39.8a7.769,7.769,0,0,0-2.364,1.134" transform="translate(-647.822 -437.578)" fill="#231f20"/>
            </g>
          </g>
        </g>
        <path id="Path_4214" data-name="Path 4214" d="M571.718,460.09a2.28,2.28,0,1,0-2.517,3.8,2.243,2.243,0,0,0,2.192.134l30.378,20.108,1.4-2.112L572.7,461.852a2.239,2.239,0,0,0-.979-1.761" transform="translate(-454.899 -368.057)" fill="#f7941e"/>
        <path id="Path_4215" data-name="Path 4215" d="M701.954,425.08s20.65,8.93,19.534,17.86-39.905,9.209-39.905,9.209a17.708,17.708,0,0,1-2.233,3.07c-1.116,1.116-10.6,1.674-10.046-1.116s1.953-6.977,4.186-7.814,24.278-5.023,23.162-6.7-7.813-4.744-7.813-4.744Z" transform="translate(-535.843 -340.331)" fill="#fed4d5"/>
        <g id="Group_3235" data-name="Group 3235" transform="translate(137.123 84.749)" opacity="0.59" style="mix-blend-mode: overlay;isolation: isolate">
          <g id="Group_3234" data-name="Group 3234">
            <g id="Group_3233" data-name="Group 3233" clip-path="url(#clip-path-7)">
              <path id="Path_4216" data-name="Path 4216" d="M716.755,425.08l-5.453,4.061c5.066,2.342,14.492,7.14,17.174,11.566,3.721,6.139-29.58,6.883-34.417,8.372-3.078.947-5.172,4.524-6.291,7.006,2.617.19,5.769-.252,6.384-.866a17.71,17.71,0,0,0,2.233-3.07s38.789-.279,39.905-9.209-19.534-17.86-19.534-17.86" transform="translate(-687.767 -425.08)" fill="#231f20"/>
            </g>
          </g>
        </g>
        <path id="Path_4217" data-name="Path 4217" d="M732.331,346.2c.448.236-10.234,19.421-10.234,19.421l-14.885-8.576a1.788,1.788,0,0,1-.862-1.183c-.85-4.005-4.429-22.1-.341-25.029Z" transform="translate(-563.711 -264.876)" fill="#2f3655"/>
        <g id="Group_3238" data-name="Group 3238" transform="translate(146.226 90.261)" opacity="0.44" style="mix-blend-mode: overlay;isolation: isolate">
          <g id="Group_3237" data-name="Group 3237">
            <g id="Group_3236" data-name="Group 3236" clip-path="url(#clip-path-8)">
              <path id="Path_4218" data-name="Path 4218" d="M733.681,456.328c-.09-.047-.17-.081-.258-.125l12.16,7.006s3-5.385,5.751-10.485c-3.514,1.98-12.768,6.121-17.653,3.6" transform="translate(-733.423 -452.724)" fill="#231f20"/>
            </g>
          </g>
        </g>
        <path id="Path_4219" data-name="Path 4219" d="M570.862,246.618s2.533,0,1.773-4.433-8.105-7.092-8.105-7.092.886,2.66.633,2.28a13.528,13.528,0,0,0-7.092-3.166c-3.419-.253-6.839,2.153-6.839,2.153l2.913.633s-3.8.76-5.7,2.786-2.153,5.952-2.153,5.952a2.836,2.836,0,0,1,3.546.38c1.646,1.646,21.023.507,21.023.507" transform="translate(-437.375 -187.498)" fill="#2f3655"/>
        <path id="Path_4220" data-name="Path 4220" d="M581.919,294.614H559.756c-1.013,0-1.013-4.433,0-4.433h22.163c.788,0,.788,4.433,0,4.433" transform="translate(-447.546 -232.327)" fill="#ed1e46"/>
        <rect id="Rectangle_2619" data-name="Rectangle 2619" width="1.858" height="27.863" transform="translate(70.247 107.373)" fill="#2f3655"/>
        <path id="Path_4221" data-name="Path 4221" d="M249.975,569.493c0,3.288-15.48,5.953-34.575,5.953s-34.575-2.665-34.575-5.953,15.48-5.952,34.575-5.952,34.575,2.665,34.575,5.952" transform="translate(-144.773 -451.186)" fill="#f7941e"/>
        <rect id="Rectangle_2620" data-name="Rectangle 2620" width="8.359" height="1.013" transform="translate(67.714 109.822)" fill="#2f3655"/>
        <path id="Path_4222" data-name="Path 4222" d="M278.708,927.045l13.636,13.636h3.842l-18.554-18.554H275.5l-18.712,18.712h3.683l13.609-13.609h.828v14.253h2.7V926.96Z" transform="translate(-205.59 -738.279)" fill="#2060d1"/>
        <rect id="Rectangle_2621" data-name="Rectangle 2621" width="2.702" height="55.556" transform="translate(69.74 132.45)" fill="#2060d1"/>
        <rect id="Rectangle_2622" data-name="Rectangle 2622" width="6.206" height="2.913" transform="translate(49.856 201.895)" fill="#2f3655"/>
        <rect id="Rectangle_2623" data-name="Rectangle 2623" width="6.206" height="2.913" transform="translate(85.191 201.895)" fill="#2f3655"/>
        <rect id="Rectangle_2624" data-name="Rectangle 2624" width="6.206" height="2.913" transform="translate(67.587 201.895)" fill="#2f3655"/>
      </g>
    </g>
  </g>
</svg>
