<svg id="Group_3458" data-name="Group 3458" xmlns="http://www.w3.org/2000/svg" xmlns:xlink="http://www.w3.org/1999/xlink" width="186.167" height="250.757" viewBox="0 0 186.167 250.757">
  <defs>
    <clipPath id="clip-path">
      <rect id="Rectangle_2548" data-name="Rectangle 2548" width="186.167" height="250.757" fill="none"/>
    </clipPath>
    <clipPath id="clip-path-2">
      <rect id="Rectangle_2547" data-name="Rectangle 2547" width="186.167" height="250.758" fill="none"/>
    </clipPath>
    <clipPath id="clip-path-3">
      <rect id="Rectangle_2537" data-name="Rectangle 2537" width="47.407" height="24.17" fill="none"/>
    </clipPath>
    <clipPath id="clip-path-4">
      <rect id="Rectangle_2538" data-name="Rectangle 2538" width="82.209" height="56.575" fill="none"/>
    </clipPath>
    <clipPath id="clip-path-5">
      <rect id="Rectangle_2539" data-name="Rectangle 2539" width="71.141" height="113.728" fill="none"/>
    </clipPath>
    <clipPath id="clip-path-6">
      <rect id="Rectangle_2540" data-name="Rectangle 2540" width="38.289" height="68.247" fill="none"/>
    </clipPath>
    <clipPath id="clip-path-7">
      <rect id="Rectangle_2541" data-name="Rectangle 2541" width="35.513" height="14.196" fill="none"/>
    </clipPath>
    <clipPath id="clip-path-8">
      <rect id="Rectangle_2542" data-name="Rectangle 2542" width="13.43" height="18.297" fill="none"/>
    </clipPath>
    <clipPath id="clip-path-9">
      <rect id="Rectangle_2543" data-name="Rectangle 2543" width="8.727" height="15.837" fill="none"/>
    </clipPath>
    <clipPath id="clip-path-10">
      <rect id="Rectangle_2544" data-name="Rectangle 2544" width="32.578" height="21.44" fill="none"/>
    </clipPath>
    <clipPath id="clip-path-11">
      <rect id="Rectangle_2545" data-name="Rectangle 2545" width="17.061" height="18.434" fill="none"/>
    </clipPath>
    <clipPath id="clip-path-12">
      <rect id="Rectangle_2546" data-name="Rectangle 2546" width="65.587" height="34.438" fill="none"/>
    </clipPath>
  </defs>
  <g id="Group_3154" data-name="Group 3154" clip-path="url(#clip-path)">
    <g id="Group_3153" data-name="Group 3153" transform="translate(0 -0.001)">
      <g id="Group_3152" data-name="Group 3152" clip-path="url(#clip-path-2)">
        <path id="Path_4138" data-name="Path 4138" d="M472.062,240.071s14.867,35.229,18.746,32.966,27.472-14.221,27.472-14.221,7.757-7.11,8.4-3.555-6.787,8.4-6.787,8.4-23.594,31.027-33.29,27.149-19.715-21.654-19.715-21.654-.97-32.966,5.171-29.088" transform="translate(-369.272 -189.648)" fill="#fed4d5"/>
        <g id="Group_3124" data-name="Group 3124" transform="translate(97.579 77.331)" style="mix-blend-mode: overlay;isolation: isolate">
          <g id="Group_3123" data-name="Group 3123">
            <g id="Group_3122" data-name="Group 3122" clip-path="url(#clip-path-3)">
              <path id="Path_4139" data-name="Path 4139" d="M484.94,385.994c-5.453-2.282-12.827-9.924-18.032-15.97.017,1.361.041,2.18.041,2.18s10.019,17.776,19.715,21.655c6.705,2.682,20.053-11.326,27.652-20.224-9.154,6.486-23.355,14.88-29.375,12.36" transform="translate(-466.908 -370.024)" fill="#231f20"/>
            </g>
          </g>
        </g>
        <path id="Path_4140" data-name="Path 4140" d="M328.317,733.921V695.956h21.224a2.693,2.693,0,1,0,0-5.386H328.317v-27.8H349.11a6.356,6.356,0,0,0,0-12.713H301.276a6.356,6.356,0,0,0,0,12.713h21.87v27.8H301.707a2.693,2.693,0,1,0,0,5.386h21.439v37.972c-22.164.507-40.077,6.854-40.077,10.509,0,3.808,19,6.895,42.447,6.895s42.447-3.087,42.447-6.895c0-3.678-17.341-10.081-39.646-10.516" transform="translate(-223.911 -514.206)" fill="#b0d0ff"/>
        <path id="Path_4141" data-name="Path 4141" d="M412.548,523.25s72.4,4.309,71.966,23.27-71.966,46.972-71.966,46.972l-3.017-4.309S450.47,559.018,441.42,556s-35.768.862-46.11-9.481-11.2-20.254-11.2-20.254Z" transform="translate(-303.832 -413.896)" fill="#2f3655"/>
        <g id="Group_3127" data-name="Group 3127" transform="translate(83.427 120.412)" opacity="0.56" style="mix-blend-mode: overlay;isolation: isolate">
          <g id="Group_3126" data-name="Group 3126">
            <g id="Group_3125" data-name="Group 3125" clip-path="url(#clip-path-4)">
              <path id="Path_4142" data-name="Path 4142" d="M422.112,631.035l1.19,1.7c21.469-12.3,60.786-35.927,57.956-42.531-2.78-6.486-53.527-11.642-82.064-14.044a42.9,42.9,0,0,0,8.7,12.213c10.342,10.342,37.06,6.464,46.11,9.481s-31.889,33.182-31.889,33.182" transform="translate(-399.193 -576.16)" fill="#231f20"/>
            </g>
          </g>
        </g>
        <path id="Path_4143" data-name="Path 4143" d="M344.566,515s-7.864,9.8-2.693,20.793S400.7,561.651,400.7,561.651s-14.221,20.685-17.453,41.37-3.232,23.917-3.232,23.917l6.141,3.555s47.834-63.024,42.662-77.245-59.146-37.168-59.146-37.168Z" transform="translate(-269.032 -407.372)" fill="#3e4768"/>
        <g id="Group_3130" data-name="Group 3130" transform="translate(71.08 107.63)" opacity="0.56" style="mix-blend-mode: overlay;isolation: isolate">
          <g id="Group_3129" data-name="Group 3129">
            <g id="Group_3128" data-name="Group 3128" clip-path="url(#clip-path-5)">
              <path id="Path_4144" data-name="Path 4144" d="M380.01,626.936l3.1,1.793a198.382,198.382,0,0,1,9.077-35.19c8.726-24.563,19.069-34.906,19.069-34.906s-51.712-16.483-61.085-25.209c-5.8-5.4-4.151-13.156-2.294-18.28L344.566,515s-7.864,9.8-2.693,20.793,58.823,25.856,58.823,25.856-14.221,20.685-17.453,41.37-3.232,23.917-3.232,23.917" transform="translate(-340.112 -515.001)" fill="#231f20"/>
            </g>
          </g>
        </g>
        <path id="Path_4145" data-name="Path 4145" d="M405.05,74.264s8.834,4.094,7.757,10.989-4.956,5.6-2.155,9.05,4.74,5.387.862,7.11-4.309,1.508-3.878,6.679-2.8,11.42-6.895,7.541-3.232-8.834-5.818-5.818-6.249,1.939-8.4.215-25.425-1.939-26.5-6.033,6.895-5.387,9.912-10.989-2.155-7.541,2.8-10.773,5.818,1.077,8.188-4.956,7.11-9.05,12.281-7.757,9.7,4.956,11.851,4.74" transform="translate(-284.7 -54.76)" fill="#f7941e"/>
        <path id="Path_4146" data-name="Path 4146" d="M371.993,207.729c-1.022.02-11.312-.323-15.837,3.232s-3.232,54.621-4.525,63.024c0,0,18.1,8.4,35.229-1.939,0,0-3.878-21.978,1.293-29.411s-2.586-14.221-3.232-20.685,3.232-14.544-12.928-14.221" transform="translate(-278.144 -164.308)" fill="#2948bd"/>
        <g id="Group_3133" data-name="Group 3133" transform="translate(73.487 44.651)" style="mix-blend-mode: overlay;isolation: isolate">
          <g id="Group_3132" data-name="Group 3132">
            <g id="Group_3131" data-name="Group 3131" clip-path="url(#clip-path-6)">
              <path id="Path_4147" data-name="Path 4147" d="M384.921,226.64c-.482-4.816,1.537-10.525-4.081-12.991.4,4.14.771,11.148-.875,14.661-2.424,5.171,1.454,7.434,1.939,13.413s-9.211,10.666-9.211,17.776c0,4.707-12.528,13.375-21,18.7-.02.16-.038.339-.06.476,0,0,18.1,8.4,35.229-1.939,0,0-3.878-21.978,1.293-29.411s-2.586-14.221-3.232-20.685" transform="translate(-351.631 -213.649)" fill="#231f20"/>
            </g>
          </g>
        </g>
        <path id="Path_4148" data-name="Path 4148" d="M368.228,286.754l-4.194-6.1-13.582,1.9c-16.368,1.461-11.52,55.759,4.848,54.3l13.943-.2,1.248-17.577Z" transform="translate(-269.208 -222.001)" fill="#4e6fd8"/>
        <path id="Path_4149" data-name="Path 4149" d="M577.419,271.821l39.754-16.806.323-3.555,10.019-1.939.323,5.818-7.757,5.494-1.939-1.939-38.784,23.27Z" transform="translate(-456.745 -197.373)" fill="#7099ed"/>
        <path id="Path_4150" data-name="Path 4150" d="M270.137,221.339s-4.2-2.586-11.958.97-24.563,13.9-22.947,20.038,48.48-5.171,34.906-21.008" transform="translate(-185.985 -174.363)" fill="#2948bd"/>
        <path id="Path_4151" data-name="Path 4151" d="M416.76,283.341a9.631,9.631,0,0,0-4.742,1.85c-3.008-3.239-6.521-5.022-10.129-4.686C393,281.331,386.965,294.536,388.4,310s9.808,27.328,18.695,26.5c4.727-.44,8.632-4.4,11.051-10.323a9.182,9.182,0,0,0,2.609.146c7.643-.711,12.943-10.909,11.839-22.778s-8.194-20.915-15.837-20.2" transform="translate(-307.064 -221.85)" fill="#7099ed"/>
        <path id="Path_4152" data-name="Path 4152" d="M528.648,1052.867l2.155,5.386s6.464.216,6.464,1.939-10.342.215-10.342.215l-7.757-8.834,3.124-.969,3.555,1.4,4.74-1.293Z" transform="translate(-410.667 -831.04)" fill="#2948bd"/>
        <path id="Path_4153" data-name="Path 4153" d="M491.177,833.58l2.155,3.447,3.878.646-4.094,1.293.215,5.818s4.094,3.878,2.155,4.309-5.6-2.37-6.033-4.525-4.309-8.834-4.309-8.834Z" transform="translate(-383.754 -659.37)" fill="#2948bd"/>
        <path id="Path_4154" data-name="Path 4154" d="M455.449,197.291s-7.757,1.293-8.834,4.525,1.077,4.74-1.293,4.74-13.79-14.221-13.79-14.221,11.635,0,14.005-3.447,9.912,8.4,9.912,8.4" transform="translate(-341.347 -148.914)" fill="#fed4d5"/>
        <g id="Group_3136" data-name="Group 3136" transform="translate(49.222 55.487)" style="mix-blend-mode: overlay;isolation: isolate">
          <g id="Group_3135" data-name="Group 3135">
            <g id="Group_3134" data-name="Group 3134" clip-path="url(#clip-path-7)">
              <path id="Path_4155" data-name="Path 4155" d="M256.018,269.809c-5.279-1.4-6.464-4.309-6.464-4.309s-2.586,3.663-.108,8.942c1.8,3.826-8.325,3.633-13.922,3.237.017.1,0,.216.025.318,1.217,4.625,28.085-.651,35.488-10.3-3.646,1.128-11.119,3.147-15.018,2.113" transform="translate(-235.524 -265.5)" fill="#231f20"/>
            </g>
          </g>
        </g>
        <g id="Group_3139" data-name="Group 3139" transform="translate(100.672 39.345)" style="mix-blend-mode: overlay;isolation: isolate">
          <g id="Group_3138" data-name="Group 3138">
            <g id="Group_3137" data-name="Group 3137" clip-path="url(#clip-path-8)">
              <path id="Path_4156" data-name="Path 4156" d="M485.228,188.888a6.667,6.667,0,0,1-3.5,2.087,72.92,72.92,0,0,0,.909,14.065,5.334,5.334,0,0,0,2.377,1.516c2.37,0,.215-1.508,1.293-4.74s8.834-4.525,8.834-4.525-7.541-11.851-9.911-8.4" transform="translate(-481.709 -188.259)" fill="#231f20"/>
            </g>
          </g>
        </g>
        <g id="Group_3142" data-name="Group 3142" transform="translate(95.626 77.573)" style="mix-blend-mode: overlay;isolation: isolate">
          <g id="Group_3141" data-name="Group 3141">
            <g id="Group_3140" data-name="Group 3140" clip-path="url(#clip-path-9)">
              <path id="Path_4157" data-name="Path 4157" d="M466.292,379.1c0,4.373-1.953,7.918-4.363,7.918s-4.363-3.545-4.363-7.918,1.953-7.918,4.363-7.918,4.363,3.545,4.363,7.918" transform="translate(-457.566 -371.178)" fill="#231f20"/>
            </g>
          </g>
        </g>
        <g id="Group_3145" data-name="Group 3145" transform="translate(138.515 53.809)" style="mix-blend-mode: overlay;isolation: isolate">
          <g id="Group_3144" data-name="Group 3144">
            <g id="Group_3143" data-name="Group 3143" clip-path="url(#clip-path-10)">
              <path id="Path_4158" data-name="Path 4158" d="M686.048,263.944l-1.939-.646-2.263,1.131s-1.777-1.131-3.393,1.293-6.949.969-7.272,2.747,0,2.909-1.131,3.878c-.7.6-4.472,4.026-7.261,6.565l22.882-13.729,1.939,1.939,7.757-5.495-.231-4.156Z" transform="translate(-662.789 -257.472)" fill="#231f20"/>
            </g>
          </g>
        </g>
        <path id="Path_4159" data-name="Path 4159" d="M495.392,141.157s5.6,8.619,12.066,7.972,6.895-8.4,7.972-12.282,1.724-11.851-1.939-12.5-5.6-.215-6.895,3.663,2.37,4.74-2.8,6.464-4.525-1.077-6.895.431-1.508,6.249-1.508,6.249" transform="translate(-391.74 -98.167)" fill="#fed4d5"/>
        <g id="Group_3148" data-name="Group 3148" transform="translate(103.499 25.94)" style="mix-blend-mode: overlay;isolation: isolate">
          <g id="Group_3147" data-name="Group 3147">
            <g id="Group_3146" data-name="Group 3146" clip-path="url(#clip-path-11)">
              <path id="Path_4160" data-name="Path 4160" d="M499.055,136.326c1.939-.215,5.279-.215,7.757-1.832s.646-4.525,1.724-7.326c.525-1.364,2.174-2.338,3.765-2.973-2.9-.325-4.56.4-5.7,3.835-1.293,3.878,2.37,4.741-2.8,6.464s-4.525-1.077-6.9.431-1.508,6.249-1.508,6.249.367.562,1.015,1.384c-.337-2.952,1.068-6.056,2.648-6.232" transform="translate(-495.239 -124.124)" fill="#231f20"/>
            </g>
          </g>
        </g>
        <path id="Path_4161" data-name="Path 4161" d="M242.189,280.109s44.278,15.19,47.834,17.13,4.2,4.2,4.2,4.2,6.141,1.293,4.525,2.909a3.706,3.706,0,0,1-3.878.646,11.337,11.337,0,0,1-.97,7.434c-1.939,3.878-2.586,6.464-3.555,4.525s.323-4.848.323-4.848-.97,2.909-4.525-.646-1.293-8.726-1.293-8.726-50.742-.754-51.389-13.036c-.64-12.154,8.726-9.588,8.726-9.588" transform="translate(-184.647 -221.39)" fill="#fed4d5"/>
        <g id="Group_3151" data-name="Group 3151" transform="translate(48.785 61.785)" style="mix-blend-mode: overlay;isolation: isolate">
          <g id="Group_3150" data-name="Group 3150">
            <g id="Group_3149" data-name="Group 3149" clip-path="url(#clip-path-12)">
              <path id="Path_4162" data-name="Path 4162" d="M527.415,400.045a31.337,31.337,0,0,1,.189,3.383,10.359,10.359,0,0,0-.189-3.383" transform="translate(-465.976 -378.225)" fill="#231f20"/>
              <path id="Path_4163" data-name="Path 4163" d="M290.778,323.921c-6.572.97-3.771-10.881-3.771-10.881s-41.046-3.34-47.08-7.11c-3.58-2.237-4.952-6.855-5.415-10.293a12.655,12.655,0,0,0-1.049,6.522c.646,12.282,51.389,13.036,51.389,13.036s-2.262,5.171,1.293,8.726c3.1,3.1,4.233,1.287,4.473.771-.229.568-1.124,3.019-.271,4.723s1.455-.085,2.9-3.173c-1.591.53-2.472-2.321-2.472-2.321" transform="translate(-233.432 -295.637)" fill="#231f20"/>
              <path id="Path_4164" data-name="Path 4164" d="M530.448,388.854c-.405,1.141-3.033,2.339-3.033,2.339a3.707,3.707,0,0,0,3.878-.646c.634-.634.069-1.217-.846-1.693" transform="translate(-465.976 -369.373)" fill="#231f20"/>
            </g>
          </g>
        </g>
        <path id="Path_4165" data-name="Path 4165" d="M708.885,298.879s.646-3.232-.485-4.525.97-2.1,1.616-1.454.969,1.454,1.454,1.131.808-2.424,3.232-2.1.969-3.878,2.424-3.232,1.616,5.656,1.293,7.6-.485,4.525-3.878,5.333-5.656-2.747-5.656-2.747" transform="translate(-560.093 -228.31)" fill="#fed4d5"/>
      </g>
    </g>
  </g>
</svg>
