<svg xmlns="http://www.w3.org/2000/svg" xmlns:xlink="http://www.w3.org/1999/xlink" width="215.779" height="242.705" viewBox="0 0 215.779 242.705">
  <defs>
    <clipPath id="clip-path">
      <rect id="Rectangle_2752" data-name="Rectangle 2752" width="215.779" height="242.705" transform="translate(0 -18.715)" fill="none"/>
    </clipPath>
    <clipPath id="clip-path-2">
      <rect id="Rectangle_2719" data-name="Rectangle 2719" width="215.779" height="229.705" fill="none"/>
    </clipPath>
    <clipPath id="clip-path-3">
      <path id="Path_4365" data-name="Path 4365" d="M105.4,0q-2.937.006-6.186.332C56.46,4.652,11.818,82.944.657,158.879c-6.741,45.865,39.522,70.788,88.556,70.827H89.4c24.516-.012,49.7-6.244,69.3-19.188,38.4-25.357,57.026-61.437,57.077-84.657v-.184c-.026-12.274-5.273-20.918-15.561-22.411-29.743-4.319-71.355-6.668-65.838-30.873C142.546,36.565,142.05.083,105.641,0Z" transform="translate(-0.001 -0.001)" fill="none"/>
    </clipPath>
    <clipPath id="clip-path-4">
      <rect id="Rectangle_2751" data-name="Rectangle 2751" width="250.939" height="267.135" fill="none"/>
    </clipPath>
    <clipPath id="clip-path-5">
      <rect id="Rectangle_2721" data-name="Rectangle 2721" width="60.342" height="58.983" fill="none"/>
    </clipPath>
    <clipPath id="clip-path-6">
      <rect id="Rectangle_2722" data-name="Rectangle 2722" width="57.383" height="150.729" fill="none"/>
    </clipPath>
    <clipPath id="clip-path-7">
      <rect id="Rectangle_2723" data-name="Rectangle 2723" width="22.996" height="65.578" fill="none"/>
    </clipPath>
    <clipPath id="clip-path-8">
      <rect id="Rectangle_2724" data-name="Rectangle 2724" width="17.118" height="56.206" fill="none"/>
    </clipPath>
    <clipPath id="clip-path-9">
      <rect id="Rectangle_2725" data-name="Rectangle 2725" width="27.797" height="16.364" fill="none"/>
    </clipPath>
    <clipPath id="clip-path-10">
      <rect id="Rectangle_2727" data-name="Rectangle 2727" width="21.424" height="39.548" fill="none"/>
    </clipPath>
    <clipPath id="clip-path-11">
      <rect id="Rectangle_2748" data-name="Rectangle 2748" width="81.561" height="33.351" fill="none"/>
    </clipPath>
    <clipPath id="clip-path-12">
      <rect id="Rectangle_2749" data-name="Rectangle 2749" width="75.929" height="84.694" fill="none"/>
    </clipPath>
    <clipPath id="clip-path-13">
      <rect id="Rectangle_2750" data-name="Rectangle 2750" width="32.559" height="53.833" fill="none"/>
    </clipPath>
  </defs>
  <g id="Group_3552" data-name="Group 3552" transform="translate(0 18.715)" clip-path="url(#clip-path)">
    <g id="Group_3551" data-name="Group 3551" transform="translate(-9.58 -37.43)">
      <g id="Group_3550" data-name="Group 3550" clip-path="url(#clip-path-4)">
        <path id="Path_4366" data-name="Path 4366" d="M160.307,201.73c-12.606,5.743-35.126-5.306-44.692-10.594,8.348-9.776,35.816-22.195,35.816-22.195l-2-7.674S95.887,166.3,94.845,185.13c-.2,3.554-.736,3.906-.211,9.277,5.138,34,55.9,36.985,55.9,36.985s25.848-36.985,9.772-29.661" transform="translate(-64.87 -102.651)" fill="#fed4d5"/>
        <g id="Group_3465" data-name="Group 3465" transform="translate(40.364 69.757)" style="mix-blend-mode: overlay;isolation: isolate">
          <g id="Group_3464" data-name="Group 3464">
            <g id="Group_3463" data-name="Group 3463" clip-path="url(#clip-path-5)">
              <path id="Path_4367" data-name="Path 4367" d="M184.073,221.24c-12.606,5.743-35.126-5.306-44.692-10.594C145,204.069,159.26,196.3,168,191.918c-15.694.221-38.408,8.539-38.985,19.924-.63,12.45,20.805,22.7,20.805,22.7l4.827,12.711A100.186,100.186,0,0,0,174.3,250.9s25.849-36.984,9.772-29.661" transform="translate(-129 -191.918)" fill="#231f20"/>
            </g>
          </g>
        </g>
        <path id="Path_4368" data-name="Path 4368" d="M169.86,246.4c-.21,1.221-10.928,38.815-10.928,38.815s28.16,7.324,37.617,4.883,21.225-24.168,14.921-31.491S169.86,246.4,169.86,246.4" transform="translate(-109.203 -156.837)" fill="#2948bd"/>
        <path id="Path_4369" data-name="Path 4369" d="M283.977,238.034s11.444-3.731,24.694,29.152,12.648,121.04,12.648,121.04l-83.117.7s.231-5.771.683-14.836c1.336-26.783,4.606-82.319,9.556-102.706,6.625-27.286,23.891-33.35,23.891-33.35Z" transform="translate(-163.67 -151.434)" fill="#4e6fd8"/>
        <g id="Group_3468" data-name="Group 3468" transform="translate(100.271 86.473)" opacity="0.58" style="mix-blend-mode: overlay;isolation: isolate">
          <g id="Group_3467" data-name="Group 3467">
            <g id="Group_3466" data-name="Group 3466" clip-path="url(#clip-path-6)">
              <path id="Path_4370" data-name="Path 4370" d="M340.5,238.034h-1.461a40.792,40.792,0,0,0,3.6,6.1c1.374,1.559-11.461,9.793-7.678,14.187s19.229,35.886,14.5,38.815-29-5.126-29-5.126c2.522,13.549,43.187,38.449,43.187,38.449l-21.436,2.929s22.7,14.647,21.751,28.2c-.569,8.148-19.488,19.338-34.691,27.047l48.568-.409s.6-88.156-12.648-121.04S340.5,238.034,340.5,238.034" transform="translate(-320.459 -237.907)" fill="#231f20"/>
            </g>
          </g>
        </g>
        <path id="Path_4371" data-name="Path 4371" d="M346.367,105.577a1.41,1.41,0,0,0-.857.375c-.7-11.8-6.267-21.03-13.113-21.03-6.924,0-12.544,9.442-13.137,21.436a1.365,1.365,0,0,0-.613-.268c-1.372,0-2.485,2.412-2.485,5.389s1.113,5.388,2.485,5.388a1.737,1.737,0,0,0,1.254-.843c1.1,5.58,3.351,10.2,6.263,12.974l.711,17.76c0,5,12.811,5,12.811,0l.368-19.253a27.593,27.593,0,0,0,4.933-12.18c.4.6.858,1.028,1.38,1.028,1.372,0,2.485-2.413,2.485-5.389s-1.112-5.389-2.485-5.389" transform="translate(-217.235 -54.055)" fill="#fed4d5"/>
        <g id="Group_3471" data-name="Group 3471" transform="translate(98.926 30.867)" style="mix-blend-mode: overlay;isolation: isolate">
          <g id="Group_3470" data-name="Group 3470">
            <g id="Group_3469" data-name="Group 3469" clip-path="url(#clip-path-7)">
              <path id="Path_4372" data-name="Path 4372" d="M336.893,127.073c2.364-2.2,2.364-9.154,2.207-13.732s-.946-2.746-1.891-2.746c-.653,0-.756-15.156-.618-24.44A8.138,8.138,0,0,0,332.4,84.92c-6.924,0-12.544,9.443-13.137,21.437a1.363,1.363,0,0,0-.613-.269c-1.373,0-2.485,2.412-2.485,5.388s1.113,5.389,2.485,5.389a1.736,1.736,0,0,0,1.253-.842c1.1,5.58,3.351,10.2,6.263,12.974l.711,17.76c0,3.344,5.718,4.44,9.514,3.312-.557-8.006-1.162-21.448.5-23" transform="translate(-316.161 -84.92)" fill="#231f20"/>
            </g>
          </g>
        </g>
        <g id="Group_3474" data-name="Group 3474" transform="translate(98.926 30.395)" opacity="0.58" style="mix-blend-mode: overlay;isolation: isolate">
          <g id="Group_3473" data-name="Group 3473">
            <g id="Group_3472" data-name="Group 3472" clip-path="url(#clip-path-8)">
              <path id="Path_4373" data-name="Path 4373" d="M328.954,131.394c.407-3.943,3.666-8.2,3.666-8.2-18.912-6.206-5.791-29.5.659-39.141a7.029,7.029,0,0,0-2.361-.427c-6.294,0-11.4,8.583-11.94,19.485a1.24,1.24,0,0,0-.557-.244c-1.247,0-2.258,2.193-2.258,4.9s1.011,4.9,2.258,4.9a1.581,1.581,0,0,0,1.14-.766c1,5.072,3.046,9.273,5.692,11.793l.646,16.143h4.2c-.7-2.694-1.377-6.221-1.148-8.436" transform="translate(-316.161 -83.624)" fill="#231f20"/>
            </g>
          </g>
        </g>
        <path id="Path_4374" data-name="Path 4374" d="M337.489,84.325s1.325,4.875-4.639,7.954-10.161,2.566-10.161,2.566-1.767-7.954.221-13.856,13.474-5.132,13.474-5.132-4.639-4.362-2.871-4.362,3.313,2.823,3.313,2.823,2.43-4.876,3.534-3.336-1.325,4.618-1.325,4.618,5.964-1.539,9.056,5.389,1.325,14.625,1.325,14.625-8.614-1.282-11.927-11.29" transform="translate(-221.224 -44.991)" fill="#225399"/>
        <g id="Group_3477" data-name="Group 3477" transform="translate(100.816 34.26)" opacity="0.58" style="mix-blend-mode: overlay;isolation: isolate">
          <g id="Group_3476" data-name="Group 3476">
            <g id="Group_3475" data-name="Group 3475" clip-path="url(#clip-path-9)">
              <path id="Path_4375" data-name="Path 4375" d="M345.44,105.129c-4.083-3.355-7.967-10.874-7.967-10.874s-3.286,9.37-6.771,9.833-2.091-5.437-2.091-5.437-3.853,4.457-6.409,6.112a37.464,37.464,0,0,0,.65,5.087s4.2.513,10.161-2.566,4.639-7.954,4.639-7.954c3.313,10.007,11.927,11.29,11.927,11.29a25.558,25.558,0,0,0,.42-3.254c-.86.008-2.3-.383-4.558-2.236" transform="translate(-322.201 -94.255)" fill="#231f20"/>
            </g>
          </g>
        </g>
        <path id="Path_4376" data-name="Path 4376" d="M268.052,138.081s5.044-9.521,7.25-11.352,12.136-4.211,14.658-2.38,5.674.916,4.728,2.93-7.111-.084-8.511.366,0,10.8-4.413,15.014-14.027,3.3-14.027,3.3Z" transform="translate(-183.963 -78.732)" fill="#fed4d5"/>
        <path id="Path_4377" data-name="Path 4377" d="M316.114,170.758H292.264a.746.746,0,0,1-.684-.8V132.005a.746.746,0,0,1,.684-.8h23.849a.746.746,0,0,1,.685.8v37.957a.746.746,0,0,1-.685.8" transform="translate(-200.345 -83.518)" fill="#00aeef"/>
        <path id="Path_4378" data-name="Path 4378" d="M413.691,260.64s8.406-3.418,16.812,12.694,26.059,55.172,18.913,62.5-25.218-20.994-31.523-37.106-14.29-39.548-4.2-38.083" transform="translate(-280.952 -165.711)" fill="#fed4d5"/>
        <path id="Path_4379" data-name="Path 4379" d="M309.919,652.178a7.97,7.97,0,0,1-3.782-4.394c-.841-2.929-3.363-13.182-3.363-13.182l-71.031,2.929s.42,8.789-5.044,14.159l-4.313,15.745c28.607,6.295,61.6,4.5,89.927-6.079Z" transform="translate(-152.802 -403.94)" fill="#00aeef"/>
        <path id="Path_4380" data-name="Path 4380" d="M323.249,170.466c0,4.989-3.481,9.032-7.775,9.032s-7.776-4.044-7.776-9.032,3.482-9.032,7.776-9.032,7.775,4.044,7.775,9.032" transform="translate(-211.42 -102.757)" fill="#fff"/>
        <path id="Path_4381" data-name="Path 4381" d="M315.264,179.416c-4.34,0-7.871-4.1-7.871-9.143s3.531-9.144,7.871-9.144,7.871,4.1,7.871,9.144-3.531,9.143-7.871,9.143m0-18.065c-4.235,0-7.68,4-7.68,8.922s3.445,8.921,7.68,8.921,7.68-4,7.68-8.921-3.445-8.922-7.68-8.922" transform="translate(-211.211 -102.563)" fill="#225399"/>
        <rect id="Rectangle_2726" data-name="Rectangle 2726" width="3.152" height="7.873" transform="translate(115.875 58.372)" fill="#fff"/>
        <path id="Path_4382" data-name="Path 4382" d="M356.291,140.308a2.072,2.072,0,1,1-2.049-2.38,2.233,2.233,0,0,1,2.049,2.38" transform="translate(-241.993 -87.795)" fill="#fff"/>
        <g id="Group_3480" data-name="Group 3480" transform="translate(95.029 47.692)" style="mix-blend-mode: overlay;isolation: isolate">
          <g id="Group_3479" data-name="Group 3479">
            <g id="Group_3478" data-name="Group 3478" clip-path="url(#clip-path-10)">
              <path id="Path_4383" data-name="Path 4383" d="M319.613,131.21H307.77c-.125,3.139-.457,7.226-1.344,6.652-1.419-.915-2.522-.549-2.679,4.028s.105,5.8,1.419,5.676,7.25-4.577,8.353-1.648-1.891,12.633-.157,13.732,1.418.549,1.576,2.38c.1,1.128.075,5.519.043,8.727h4.633c3.047,0,5.516-2.869,5.516-6.408V137.618c0-3.539-2.469-6.408-5.516-6.408" transform="translate(-303.706 -131.21)" fill="#231f20"/>
            </g>
          </g>
        </g>
        <g id="Group_3543" data-name="Group 3543" transform="translate(77.95 230.661)" style="mix-blend-mode: overlay;isolation: isolate">
          <g id="Group_3542" data-name="Group 3542">
            <g id="Group_3541" data-name="Group 3541" clip-path="url(#clip-path-11)">
              <path id="Path_4416" data-name="Path 4416" d="M249.124,644.649c19.861,1.2,54.248,3.631,53.949,6.064-.42,3.418-20.6,10.253-20.6,10.253s17.953,3.157,24.649,6.986a150.241,150.241,0,0,0,23.559-6.6l-2.394-9.178a7.971,7.971,0,0,1-3.782-4.394c-.841-2.93-3.363-13.182-3.363-13.182l-71.031,2.929a23.724,23.724,0,0,1-.99,7.119" transform="translate(-249.124 -634.601)" fill="#231f20"/>
            </g>
          </g>
        </g>
        <path id="Path_4417" data-name="Path 4417" d="M440.976,304.552s-15.762-53.1-31.523-53.829-12.924,17.211-9.772,34.055a174.025,174.025,0,0,0,7.565,28.2s26.795-11.718,33.73-8.422" transform="translate(-272.931 -159.578)" fill="#4e6fd8"/>
        <path id="Path_4418" data-name="Path 4418" d="M368.014,298.3c-2.162-1.318-44.657-49.381-44.657-49.381s2.942-15.8.421-13.664-3.783,6.405-3.783,6.405-13.87-7.686-18.493-7.686-7.565,3.416-1.681,7.686,12.609,6.832,16.812,14.945,42.871,79.851,55.48,61.062c0,0,6.41-12.962-4.1-19.367" transform="translate(-203.752 -148.928)" fill="#fed4d5"/>
        <g id="Group_3546" data-name="Group 3546" transform="translate(92.795 87.167)" style="mix-blend-mode: overlay;isolation: isolate">
          <g id="Group_3545" data-name="Group 3545">
            <g id="Group_3544" data-name="Group 3544" clip-path="url(#clip-path-12)">
              <path id="Path_4419" data-name="Path 4419" d="M345.758,299.089c-21.436-31.248-29.632-47.6-35.306-50.778-4.01-2.243-10.366-5.611-13.647-8.494-.674,1.4.006,3.363,3.035,5.561,5.884,4.27,12.609,6.832,16.812,14.945s42.871,79.851,55.48,61.063c0,0,.153-.322.364-.843-5.178.43-13.986-2.867-26.738-21.454" transform="translate(-296.567 -239.817)" fill="#231f20"/>
            </g>
          </g>
        </g>
        <g id="Group_3549" data-name="Group 3549" transform="translate(135.486 91.141)" opacity="0.58" style="mix-blend-mode: overlay;isolation: isolate">
          <g id="Group_3548" data-name="Group 3548">
            <g id="Group_3547" data-name="Group 3547" clip-path="url(#clip-path-13)">
              <path id="Path_4420" data-name="Path 4420" d="M460.827,304.054a9.93,9.93,0,0,1,4.737.529s-15.762-53.1-31.523-53.829c-.372-.017-.684.026-1.036.029,7.492,7,20.135,22.678,27.822,53.271" transform="translate(-433.005 -250.75)" fill="#231f20"/>
            </g>
          </g>
        </g>
      </g>
    </g>
  </g>
</svg>
