<svg xmlns="http://www.w3.org/2000/svg" xmlns:xlink="http://www.w3.org/1999/xlink" width="182.722" height="202.58" viewBox="0 0 182.722 202.58"><defs><clipPath id="a"><rect width="182.722" height="202.58" fill="none"/></clipPath></defs><g clip-path="url(#a)"><path d="M388.377,49.951l-19.241,99.038h71.746l16.33-99.038Z" transform="translate(-282.115 -38.175)" fill="#d6bab4"/><rect width="77.188" height="5.684" transform="translate(81.34 110.814)" fill="#424242"/><path d="M672.462,470.062h6.009v4.7l-6.009.983Z" transform="translate(-513.933 -359.248)" fill="#000100"/><path d="M678.472,149.038h-6.01l16.327-99.023,5.376,3.847Z" transform="translate(-513.933 -38.225)" fill="#000100"/><rect width="37.299" height="9.167" transform="translate(106.419 168.653)" fill="#424242"/><path d="M469.1,574.459l-15.8-80.288H431.4L417.06,573.194h11.063l14.229-78.4,15.682,79.663Z" transform="translate(-318.741 -377.673)" fill="#000100"/><path d="M426.6,110.814H354.858L376.386,0h68.489Z" transform="translate(-271.202 0)" fill="#be4d4d"/><path d="M663.77,110.814H659.7L677.975,0l3.432,3.847Z" transform="translate(-504.183 0)" fill="#f2e0da"/><path d="M418.08,34.1A25.238,25.238,0,0,0,455.11,0H424.7Z" transform="translate(-319.52)" fill="#e98b41"/><path d="M520.8,123.912a67.261,67.261,0,0,0-7.812,9.282,42.437,42.437,0,0,0-5.846,11.318c-1.5,4.415-2.569,8.938-4.659,13.134a62.128,62.128,0,0,1-14.579,18.422c-7.928,7.021-19.908,14.82-20.431,26.24h45.2l13.618-82.591a24.744,24.744,0,0,0-5.488,4.2" transform="translate(-357.272 -91.495)" fill="#6a977e"/><path d="M462.726,310.088l-10.842,19.835,26.547-2.973Z" transform="translate(-345.355 -236.987)" fill="#f2e0da"/><path d="M429.674,131.437l9.5,14.575c.991,1.519,3.441.1,2.443-1.428l-9.5-14.575c-.991-1.519-3.441-.1-2.443,1.428" transform="translate(-328.202 -98.863)" fill="#f2e0da"/><path d="M454.059,119.942l9.5,14.575c.991,1.519,3.441.1,2.443-1.428l-9.5-14.575c-.991-1.519-3.441-.1-2.443,1.428" transform="translate(-346.838 -90.078)" fill="#f2e0da"/><path d="M479.38,107.837l10.137,15.547c.991,1.519,3.441.1,2.443-1.428l-10.137-15.547c-.991-1.519-3.441-.1-2.443,1.428" transform="translate(-366.19 -80.826)" fill="#f2e0da"/><path d="M585.736,38.163a27.781,27.781,0,0,0-5.883,9.874c-1.283,3.668-1.8,7.651-3.628,11.117-1.87,3.551-5.3,5.493-8.184,8.1a15.917,15.917,0,0,0-5.464,10.807c-.2,4.2,2.23,7.816,4.884,10.839a41.284,41.284,0,0,0,8.527,7.257,69.972,69.972,0,0,0,14.573,6.986l.469-2.842A74.082,74.082,0,0,1,580.7,95.684a43.9,43.9,0,0,1-8.441-5.936c-2.581-2.358-5.381-5.266-6.457-8.671-1.224-3.878.574-8.115,3.3-10.915,2.484-2.555,5.705-4.294,7.941-7.1,2.288-2.875,3.311-6.411,4.255-9.9a33.58,33.58,0,0,1,4.061-9.966c3.683-5.6,10.008-9.386,16.572-8.975l.465-2.819a21.094,21.094,0,0,0-16.654,6.764" transform="translate(-429.944 -23.955)" fill="#4e5c8e"/><path d="M41.606,272.7a8.4,8.4,0,0,0,1.128-.293c17.982-4.672,29.923-8.661,44.793-18.12l-5.009-7.21C71.113,252,63.348,252.983,54.8,254.527c4.772-10.263,8.833-21.165,8.833-21.165L50.73,224.224s-14.49,26.608-17.07,35.542C31.336,267.809,35.772,273.776,41.606,272.7Z" transform="translate(-25.244 -171.365)" fill="#2948bd"/><path d="M259.488,289.432l-4.019-3.782a1.179,1.179,0,0,0-1.816.247l-2.984,3.63-3.831,1.868-.219-1.694.8-1.462a1.179,1.179,0,0,0-.145-1.239,1.164,1.164,0,0,0-.264-.243,1.137,1.137,0,0,0-.106-.063,1.245,1.245,0,0,0-.114-.053l-.546-.219a1.178,1.178,0,0,0-1.41.427l-.86,1.337a4.244,4.244,0,0,0-.655,1.88l-.375,3.805,3.438,4.949,1.571,2.261,7.793-4.2a1.178,1.178,0,0,0,.438-.411l3.488-5.552a1.179,1.179,0,0,0-.19-1.485" transform="translate(-185.675 -218.065)" fill="#814f50"/><path d="M224.528,222.948c1.089-8.165,13.752-15.239,28.091-12.4,13.345,2.642,21.307,14.048,18.73,21.872-3.775,11.459-14.42,11.319-26.772,3.6-6.168-3.855-21.662-.99-20.05-13.072" transform="translate(-171.508 -160.425)" fill="#f2e0da"/><path d="M260.366,231.88c.724,1.424-.288,3.39-2.26,4.393s-4.157.661-4.88-.763.288-3.39,2.26-4.393,4.157-.661,4.881.763" transform="translate(-193.351 -176.193)" fill="#be4d4d"/><path d="M310.978,219.3c.684,1.345-.272,3.2-2.134,4.149s-3.926.624-4.61-.721.272-3.2,2.134-4.149,3.926-.624,4.61.721" transform="translate(-232.344 -166.633)" fill="#e98b41"/><path d="M352.877,229.777c.684,1.345-.272,3.2-2.134,4.149s-3.926.624-4.61-.721.272-3.2,2.134-4.149,3.926-.624,4.61.721" transform="translate(-264.366 -174.643)" fill="#6a977e"/><path d="M379.483,255.333c.75,1.476-.3,3.514-2.342,4.552s-4.308.684-5.058-.791.3-3.514,2.342-4.552,4.308-.684,5.058.791" transform="translate(-284.182 -194.08)" fill="#4e5c8e"/><path d="M373.065,294.133c.83,1.633-.331,3.89-2.593,5.04s-4.769.758-5.6-.876.331-3.89,2.593-5.04,4.769-.758,5.6.876" transform="translate(-278.652 -223.62)" fill="#000100"/><path d="M230.6,748.527c-4.779-3.44-11.747-17.023-11.921-19.03-.368-4.234,1.993-3.507,7.143-8.919l9.7,5.547c-2.605,5.818,1.279,14.36,1.279,14.36,2.492.089,5.49,1.356,5.908,2.344,1.806,4.263-9.58,6.772-12.106,5.7" transform="translate(-167.1 -550.707)" fill="#be4d4d"/><path d="M175,447.211a5.635,5.635,0,0,0-.974-3.191,3.15,3.15,0,0,0-1.922-1.826c-9.379-6.154-37.629,2.176-62.056,2.176l-23.525.4c-4.154,11.276-10.024,35.671,16.413,35.671,8.349,0,20.644-2.284,32.57-5.852a224.033,224.033,0,0,0-13.432,31.5l9.7,5.547c5.782-7.876,14.241-19.139,26.03-36.193,11.752-17,18.1-21.852,17.2-28.233" transform="translate(-63.35 -336.218)" fill="#4e5c8e"/><path d="M176.4,522.989a.472.472,0,0,1-.415-.7A358.543,358.543,0,0,1,196,489.5l.612-.889c2.917-4.236,5.933-8.615,7.52-13.518.7-2.163.676-3.739-.074-4.818-1.192-1.714-3.87-1.681-5.781-1.507A129.8,129.8,0,0,0,181.441,472c-12.112,2.857-24.636,5.812-30.637.507-3.034-2.682-4.163-7.143-3.455-13.637a.472.472,0,0,1,.938.1c-.673,6.168.354,10.364,3.142,12.828,2.227,1.968,5.493,2.707,9.359,2.707,5.92,0,13.252-1.73,20.437-3.425a130.5,130.5,0,0,1,16.965-3.255c2.145-.2,5.168-.21,6.641,1.909.93,1.337.994,3.184.2,5.647-1.629,5.033-4.685,9.471-7.64,13.762l-.611.889a357.573,357.573,0,0,0-19.957,32.7.472.472,0,0,1-.416.248" transform="translate(-112.456 -350.377)"/><path d="M427.922,798.3c-1.118.045-21.716.709-23.261-.585-3.437-2.88-1.783-6.63,0-13.885h11.171c4.088,7.34,12.352,7.751,14.28,9.219,3.684,2.8.534,4.929-2.191,5.251" transform="translate(-307.733 -599.047)" fill="#be4d4d"/><path d="M173.347,443.2a7.708,7.708,0,0,0-1.651-1.263l-.025-.018a3.965,3.965,0,0,0-1.206-.591c-10.711-4.441-37.28,3.034-60.418,3.034l-23.525.4c-4.154,11.276-10.024,35.671,16.414,35.671,14.184,0,39.755-6.592,55.56-14.871h0C152.563,483.413,160.278,521,160.278,521h11.171c1.109-9.707,2.86-23.684,4.625-44.34,1.885-22.054,3.5-28.163-2.728-33.452" transform="translate(-63.35 -336.215)" fill="#434a68"/><path d="M202.347,534.307a.471.471,0,0,1-.471-.458c-.2-7.139-.108-12.251-.008-17.664.062-3.312.125-6.737.125-10.83,0-1.137,0-2.255,0-3.359-.024-10.43-.044-19.438,2.043-31.367A6.046,6.046,0,0,0,203.2,466a4.171,4.171,0,0,0-3.1-1.523c-.938-.073-7.354,1.519-8.317,1.779v0c-.036.009-.078.019-.123.027-.912.2-7.348,1.581-13.427,2.633q-3.518.608-6.909,1.205c-11.531,2.021-22.423,3.93-33.727,5.165a5.629,5.629,0,0,1-5.145-1.865c-2.379-2.8-2.615-8.227-.664-15.291a.472.472,0,0,1,.909.251c-1.839,6.656-1.666,11.916.473,14.429a4.673,4.673,0,0,0,4.324,1.539c11.274-1.232,22.151-3.138,33.667-5.157q3.4-.6,6.911-1.206c6.352-1.1,13.1-2.562,13.48-2.645.446-.147,1.438-.386,3.762-.927,4.072-.949,4.67-.9,4.867-.88a5.072,5.072,0,0,1,3.769,1.888,7.117,7.117,0,0,1,1.01,5.369c-2.073,11.847-2.053,20.817-2.029,31.2q0,1.656,0,3.36c0,4.1-.064,7.531-.125,10.847-.1,5.4-.195,10.5.008,17.62a.471.471,0,0,1-.458.485h-.014" transform="translate(-99.72 -349.865)"/><path d="M277.73,527.33c-6.217,2.8-16.38,4.293-19.224,5.251-8.165,2.75-11.754,8.257-19.731,12.676,10.434-1.542,31.657-8.989,37.952-12.424a55.686,55.686,0,0,0-1.572,10.877.472.472,0,0,0,.471.466h.005a.471.471,0,0,0,.466-.476c-.032-3.033.952-8.337,1.986-12.508.04-.143.467-1.548.831-2.836a.864.864,0,0,0-1.184-1.026" transform="translate(-182.485 -402.956)"/><path d="M123.045,183.376l-14.933-2.207A39.155,39.155,0,0,0,113,167.888l10.932,1.66c-1.277,5.276-2.58,10.569-.883,13.828" transform="translate(-82.625 -128.31)" fill="#c27774"/><path d="M137.279,174.014a22,22,0,0,0,4.428,3.739,66.065,66.065,0,0,1,1.557-7.673l-9.852-1.5a14.462,14.462,0,0,0,3.867,5.43" transform="translate(-101.961 -128.841)" fill="#000002"/><rect width="26.122" height="4.373" transform="translate(109.647 57.745) rotate(-69.914)" fill="#000100"/><path d="M506.938,91.434c0,3.58-2.994,7.057-5.843,5.859-2.392-1.006-3.829-3.076-2.914-6.475.875-3.248,5.562-4.927,7.347-8.779a52.336,52.336,0,0,1,1.409,9.395" transform="translate(-380.526 -62.699)" fill="#be4d4d"/><path d="M170.065,255.693c3.843,1.062,30.185-14.153,31.944-15.172l6.123,5.354c-14.059,17.2-36.894,26.627-41.508,26.379-12.756-.686-33.855-18.7-36.509-26.1-3.109-8.669,6.483-19.26,14.076-11.311,5.535,5.8,22.789,19.993,25.874,20.846" transform="translate(-98.982 -177.339)" fill="#4e6fd8"/><path d="M451.572,221.336c-.693-1.138-2.12-.319-2.779.229l-7.678,7.087,3.178-2.933-2.788,0a2.829,2.829,0,0,0-2.616,1.744l-1.845,4.446,6.12,5.351s9.444-4.589,10.178-7.467-1.77-8.453-1.77-8.453" transform="translate(-334.014 -168.72)" fill="#814f50"/><path d="M117.687,279.517c-8.921,3.3-16.608,3.646-23.525.4-1.6-22.517-2.488-43.844,2.315-55.689l14.933,2.207c6.4,7.131,12.61,13.832,16.506,21.441,2.333,4.556-7.726,15.8-10.229,31.645" transform="translate(-70.99 -171.365)" fill="#4e6fd8"/><path d="M92.479,328.83a.471.471,0,0,1-.468-.422,239.048,239.048,0,0,1-.839-40.355.472.472,0,1,1,.941.06,238.128,238.128,0,0,0,.836,40.2.471.471,0,0,1-.419.518l-.05,0" transform="translate(-69.307 -219.81)"/><path d="M164.172,329c-.067-.034-.143-.072-.224-.111a52.28,52.28,0,0,1-16.487-14.614.472.472,0,1,0-.752.569q.485.641.966,1.246a8.943,8.943,0,0,0,.291,5.279c1.682,4.839,3.987,6.734,7.191,6.734s6.5,3.818,9.891,1.369c-.167-.079-.505-.283-.876-.472" transform="translate(-112.051 -240.044)" fill="#000100"/><path d="M122.6,205.035c-.871-.5-11.495-2.685-12.5-2.818-1.076-.142-1.982,5.186-1.982,5.186a49.976,49.976,0,0,0,14.933,2.207s.747-3.895-.449-4.575" transform="translate(-82.625 -154.544)" fill="#be4d4d"/><path d="M119.836,225.42a45.874,45.874,0,0,1-13.394-2.275.471.471,0,1,1,.279-.9,42.569,42.569,0,0,0,14.767,2.186.471.471,0,0,1,.053.941q-.837.048-1.705.048" transform="translate(-81.096 -169.835)"/><path d="M126.625,65.708c0,8.362-1.159,17.47-4.968,17.47-10.019,0-18.862-8.722-19.541-17.056-.579-7.121,2.209-16.836,14.572-16.063,6.624.414,9.936,7.287,9.936,15.649" transform="translate(-77.989 -38.225)" fill="#c27774"/><path d="M56.374,26.094a16.208,16.208,0,0,0-7.922,1.449,12.981,12.981,0,0,0-12.036-8.491,13.238,13.238,0,0,0-12.961,13.5,13.238,13.238,0,0,0,12.961,13.5,12.489,12.489,0,0,0,5.975-1.521,19.4,19.4,0,0,0,5.966,9.612,10.237,10.237,0,0,0,2.9-3.674c-3-1.141-4.431-5.536-2.575-8.205a2.858,2.858,0,0,1,4.594-.214,12.723,12.723,0,0,1,1.448,3.388C59.1,43.346,64.954,39.76,66.96,35.3c-1.46-4.6-4.289-8.988-10.586-9.211" transform="translate(-17.926 -14.56)" fill="#351d01"/><path d="M84.532,833.892c0,1.946-8.97,2.586-20.036,2.586s-20.036-.639-20.036-2.586,8.97-4.462,20.036-4.462,20.036,2.516,20.036,4.462" transform="translate(-33.979 -633.898)" fill="#000100"/><path d="M120.874,709.305a9.823,9.823,0,0,1-7.652,0V669.628h7.652Z" transform="translate(-86.531 -511.768)" fill="#6a977e"/><path d="M58.237,479.421c0,2.651-12.787,4.286-28.958,4.286a29.284,29.284,0,0,1-8.511-57.3,2.445,2.445,0,0,1,2.9,1.923c1.111,4.293-2.033,19.894,5.45,26.693,7.351,6.68,29.119,8.758,29.119,24.4" transform="translate(0 -325.846)" fill="#d6bab4"/></g></svg>